<svg width="73" height="25" viewBox="0 0 73 25" fill="none" xmlns="http://www.w3.org/2000/svg">
<g clip-path="url(#clip0_3_387)">
<path d="M70.853 14.1568V13.8168H67.139C65.163 13.8168 63.875 14.7561 63.875 16.2928C63.875 17.6488 64.953 18.5088 66.6383 18.5088C69.299 18.5088 70.853 16.8588 70.853 14.1568ZM72.959 11.6008V20.0741H70.853V17.8041C70.141 19.3168 68.377 20.2808 66.3223 20.2808C63.5316 20.2808 61.7136 18.7201 61.7136 16.3208C61.7136 13.8168 63.7936 12.2241 67.0076 12.2241H70.0083C70.5943 12.2241 70.853 11.9368 70.853 11.5188C70.853 9.72081 69.563 8.49481 67.297 8.49481C65.347 8.49481 63.8216 9.69481 63.717 11.1288H61.7136C61.9523 8.59281 64.3736 6.72415 67.349 6.72415C70.7996 6.72748 72.959 8.68081 72.959 11.6008ZM56.819 13.5028C56.819 10.5328 55.0796 8.60481 52.4196 8.60481C49.7596 8.60481 47.9956 10.5315 47.9956 13.5028C47.9956 16.4741 49.751 18.4061 52.4196 18.4061C55.0896 18.4061 56.819 16.4681 56.819 13.5028ZM45.8376 13.5028C45.8376 9.67215 48.1023 6.72815 52.235 6.72815C54.107 6.72815 55.845 7.66548 56.6343 9.06815V0.132812H58.7416V20.0728H56.6336V17.9101C55.8536 19.3435 54.099 20.2801 52.235 20.2801C48.1016 20.2801 45.8376 17.3348 45.8376 13.5028ZM41.067 14.1568V13.8168H37.3623C35.387 13.8168 34.0956 14.7561 34.0956 16.2928C34.0956 17.6488 35.1756 18.5088 36.863 18.5088C39.507 18.5088 41.067 16.8588 41.067 14.1568ZM43.1736 11.6008V20.0741H41.069V17.8041C40.359 19.3168 38.5943 20.2808 36.539 20.2808C33.749 20.2808 31.9323 18.7201 31.9323 16.3208C31.9323 13.8168 34.0123 12.2241 37.223 12.2241H40.2263C40.811 12.2241 41.069 11.9368 41.069 11.5188C41.069 9.72081 39.779 8.49481 37.5143 8.49481C35.5643 8.49481 34.037 9.69481 33.9323 11.1288H31.9323C32.1676 8.59281 34.5923 6.72415 37.567 6.72415C41.0163 6.72748 43.177 8.68081 43.177 11.6008H43.1736Z" fill="#1E232E"/>
<path d="M7.00698 20.3573C6.83727 20.3774 6.67939 20.4545 6.55915 20.576C6.43891 20.6974 6.36341 20.856 6.34499 21.026C6.34499 21.036 6.34499 21.0473 6.34299 21.0586V21.0486C6.34099 21.0686 6.34032 21.0886 6.33965 21.1086V23.378C6.33965 23.5781 6.26014 23.7701 6.11862 23.9116C5.97709 24.0531 5.78514 24.1326 5.58499 24.1326H1.71632C1.59142 24.133 1.46838 24.1023 1.35829 24.0433C1.24821 23.9843 1.15451 23.8988 1.08565 23.7946C1.00338 23.671 0.959333 23.5258 0.958985 23.3773V11.8326C0.958324 10.1004 1.34291 8.38977 2.08488 6.82454C2.82685 5.2593 3.90765 3.87867 5.24899 2.78262L5.25099 2.77929L5.39499 2.66329L5.40299 2.65796C5.49899 2.58063 5.59699 2.50596 5.69632 2.43329L5.72165 2.41329L5.85432 2.31862L5.86899 2.30862C5.91699 2.27262 5.96699 2.23863 6.01565 2.20463L6.04299 2.18663L6.16365 2.10262L6.19965 2.07862C6.32299 1.99662 6.44765 1.91862 6.57365 1.84063L6.57899 1.83796C6.65432 1.79129 6.72899 1.74663 6.80699 1.70196L6.81299 1.69862C6.89099 1.65329 6.96899 1.60929 7.04699 1.56729L7.05032 1.56596C8.09464 0.994248 9.2207 0.586592 10.389 0.357292H10.3943L10.521 0.332625L10.5363 0.329292L10.6543 0.309292L10.6783 0.304625L10.7897 0.286625L10.8217 0.281292L10.927 0.265958L10.9663 0.259292L11.109 0.239292L11.205 0.227292L11.255 0.221958L11.345 0.211292L11.3997 0.205958L11.4863 0.196625L11.545 0.190625L11.629 0.183958L11.6923 0.178625L11.7723 0.171958L11.839 0.167958L11.917 0.162625L11.9883 0.157958L12.0617 0.154625L12.1377 0.150625L12.2077 0.147292L12.2923 0.144625L12.3543 0.143958L12.4497 0.140625H12.6497C19.1083 0.140625 24.337 5.37596 24.3397 11.8346V23.3766C24.3395 23.5769 24.2598 23.7689 24.1182 23.9105C23.9766 24.0521 23.7846 24.1318 23.5843 24.132H19.7157C19.6163 24.132 19.5179 24.1126 19.4261 24.0746C19.3343 24.0366 19.2509 23.981 19.1806 23.9108C19.1104 23.8406 19.0546 23.7572 19.0166 23.6654C18.9786 23.5737 18.959 23.4753 18.959 23.376V21.106C18.9585 20.9057 18.8786 20.7138 18.7369 20.5722C18.5953 20.4306 18.4033 20.351 18.203 20.3506H12.6497L7.00698 20.3573ZM18.959 11.3526C18.9825 10.5187 18.8404 9.68834 18.5409 8.90966C18.2414 8.13098 17.7905 7.41941 17.2143 6.81612C16.638 6.21282 15.9479 5.72977 15.1837 5.39492C14.4196 5.06006 13.5966 4.88004 12.7625 4.86528C11.9283 4.85052 11.0995 5.0013 10.324 5.30891C9.54853 5.61651 8.84172 6.07483 8.24448 6.65736C7.64724 7.23989 7.17144 7.93506 6.8446 8.70265C6.51775 9.47025 6.34636 10.295 6.34032 11.1293C6.32876 12.7913 6.97334 14.3908 8.13409 15.5804C9.29484 16.77 10.878 17.4536 12.5398 17.4829C14.2016 17.5121 15.8079 16.8846 17.0098 15.7365C18.2116 14.5885 18.9121 13.0127 18.959 11.3513V11.3526Z" fill="#1E232E"/>
</g>
<defs>
<clipPath id="clip0_3_387">
<rect width="72" height="24" fill="white" transform="translate(0.958984 0.132812)"/>
</clipPath>
</defs>
</svg>
