<svg width="161" height="31" viewBox="0 0 161 31" fill="none" xmlns="http://www.w3.org/2000/svg">
<g clip-path="url(#clip0_3_40)">
<g clip-path="url(#clip1_3_40)">
<g clip-path="url(#clip2_3_40)">
<path d="M14.1273 14.9763C14.1273 12.2624 12.1077 10.3559 9.62615 10.3559C7.14464 10.3559 5.12502 12.2956 5.12502 14.9748C5.12502 17.6254 7.14464 19.5937 9.62615 19.5937C12.1107 19.5937 14.1273 17.6918 14.1273 14.9763ZM14.1635 23.0518V20.9522C12.9394 22.4058 11.116 23.3069 8.93483 23.3069C4.40049 23.3084 0.958984 19.7567 0.958984 14.9763C0.958984 10.2291 4.53181 6.61255 9.03596 6.61255C11.1552 6.61255 12.9409 7.51821 14.165 8.93707V6.90085H18.236V23.0518H14.1635ZM38.0065 19.4654C36.5816 19.4654 36.1862 18.9492 36.1862 17.5937V10.4224H38.802V6.89934H36.1862V2.95972H32.0141V6.89934H26.6405V5.91821C26.6405 4.55972 27.1718 4.04198 28.6284 4.04198H29.5431V0.909904H27.5356C24.0941 0.909904 22.4729 2.00877 22.4729 5.36726V6.89783H20.156V10.4224H22.4729V23.0503H26.645V10.4224H32.0186V18.3363C32.0186 21.6314 33.3077 23.0533 36.6828 23.0533H38.8352V19.4669H38.005L38.0065 19.4654ZM52.9665 13.5212C52.6692 11.4231 50.9137 10.1627 48.8624 10.1627C46.8096 10.1627 45.122 11.3899 44.6933 13.5212H52.9665ZM44.6586 16.042C44.9575 18.4314 46.7114 19.7899 48.9288 19.7899C50.6828 19.7899 52.0412 18.9808 52.8337 17.6888H57.1054C56.1107 21.1122 52.9665 23.3084 48.8292 23.3084C43.8329 23.3084 40.325 19.8865 40.325 15.0065C40.325 10.131 44.0322 6.60953 48.9318 6.60953C53.8631 6.60953 57.436 10.1627 57.436 15.008C57.436 15.3642 57.4043 15.7175 57.3379 16.042H44.6586ZM83.9582 14.9763C83.9582 12.359 81.9386 10.3559 79.4571 10.3559C76.9756 10.3559 74.956 12.2956 74.956 14.9748C74.956 17.6254 76.9756 19.5937 79.4571 19.5937C81.9386 19.5937 83.9582 17.5952 83.9582 14.9763ZM70.8503 6.90085H74.9212V8.99896C76.1439 7.51368 77.9643 6.61104 80.1499 6.61104C84.6179 6.61104 88.1243 10.1975 88.1243 14.9431C88.1243 19.6933 84.5514 23.3114 80.0503 23.3114C77.9643 23.3114 76.2435 22.5024 75.0541 21.1469V29.6978H70.8503V6.90085ZM102.796 14.9763C102.796 12.2624 100.779 10.3559 98.2948 10.3559C95.8133 10.3559 93.7937 12.2956 93.7937 14.9748C93.7937 17.6254 95.8133 19.5937 98.2948 19.5937C100.779 19.5937 102.796 17.6918 102.796 14.9763ZM102.832 23.0518V20.9522C101.608 22.4058 99.7846 23.3069 97.6035 23.3069C93.0692 23.3069 89.6277 19.7552 89.6277 14.9748C89.6277 10.2276 93.2005 6.61104 97.7031 6.61104C99.8209 6.61104 101.608 7.5167 102.832 8.93556V6.90085H106.902V23.0518H102.832ZM63.5145 8.48424C63.5145 8.48424 64.5499 6.61255 67.0873 6.61255C68.1726 6.61255 68.8745 6.97481 68.8745 6.97481V11.0956C68.8745 11.0956 67.3439 10.1733 65.9371 10.359C64.5303 10.5446 63.6412 11.805 63.6458 13.4925V23.0548H59.4435V6.90387H63.5145V8.48424ZM125.911 6.89934L115.635 29.6465H111.302L115.336 20.8525L108.514 6.90085H113.425L117.416 16.2231L121.511 6.90085L125.911 6.89934ZM158.716 6.53405L148.527 0.796697C145.539 -0.887832 141.8 1.21632 141.8 4.58839V5.17707C141.801 5.44007 141.872 5.69802 142.006 5.92433C142.14 6.15065 142.332 6.33715 142.562 6.46462L144.487 7.5484C145.051 7.86839 145.754 7.4699 145.754 6.83443V5.37028C145.754 4.63821 146.567 4.17783 147.216 4.54613L156.04 9.51821C156.689 9.88349 156.689 10.7982 156.04 11.1635L147.216 16.1341C146.567 16.4993 145.756 16.0435 145.756 15.3099V14.531C145.756 11.1605 142.017 9.05179 139.024 10.7393L128.835 16.4782C128.156 16.8513 127.589 17.4001 127.195 18.0671C126.8 18.7341 126.592 19.4949 126.592 20.2699C126.592 21.0449 126.8 21.8057 127.195 22.4727C127.589 23.1397 128.156 23.6885 128.835 24.0616L139.024 29.7975C142.014 31.4835 145.756 29.3793 145.756 26.0073V25.4186C145.754 25.1556 145.682 24.8978 145.548 24.6715C145.414 24.4453 145.222 24.2588 144.992 24.131L143.069 23.0442C142.505 22.7258 141.8 23.1242 141.8 23.7597V25.2239C141.8 25.9559 140.988 26.4133 140.34 26.0465L131.514 21.0759C131.367 20.995 131.244 20.8759 131.158 20.7311C131.072 20.5862 131.027 20.4209 131.027 20.2525C131.027 20.0842 131.072 19.9189 131.158 19.774C131.244 19.6292 131.367 19.51 131.514 19.4292L140.34 14.4571C140.989 14.0903 141.8 14.5476 141.8 15.2812V16.0601C141.8 19.4307 145.537 21.5393 148.527 19.8518L158.716 14.1129C159.224 13.8346 159.671 13.4568 160.03 13.0021C160.39 12.5473 160.654 12.0249 160.806 11.466C160.959 10.9071 160.998 10.3231 160.921 9.74887C160.843 9.17461 160.651 8.62183 160.355 8.12349C159.961 7.45671 159.395 6.90824 158.716 6.53556V6.53405Z" fill="white"/>
</g>
</g>
</g>
<defs>
<clipPath id="clip0_3_40">
<rect width="160" height="30.19" fill="white" transform="translate(0.958984 0.202972)"/>
</clipPath>
<clipPath id="clip1_3_40">
<rect width="160" height="30.19" fill="white" transform="translate(0.958984 0.202972)"/>
</clipPath>
<clipPath id="clip2_3_40">
<rect width="160" height="30.1887" fill="white" transform="translate(0.958984 0.203644)"/>
</clipPath>
</defs>
</svg>
