<svg width="143" height="33" viewBox="0 0 143 33" fill="none" xmlns="http://www.w3.org/2000/svg">
<g opacity="0.7" clip-path="url(#clip0_3_351)">
<g clip-path="url(#clip1_3_351)">
<g clip-path="url(#clip2_3_351)">
<mask id="mask0_3_351" style="mask-type:luminance" maskUnits="userSpaceOnUse" x="0" y="1" width="143" height="32">
<path d="M0.311188 1.30762H142.267V32.4101H0.311188V1.30762Z" fill="white"/>
</mask>
<g mask="url(#mask0_3_351)">
<path d="M101.867 15.9645L102.81 9.65814C100.752 8.55088 97.879 7.61309 94.5759 7.61309C88.0575 7.61309 84.4979 11.0218 84.4979 15.41C84.4979 20.0546 88.7442 21.4174 91.6605 22.3978C93.4181 23.0366 94.7906 23.5059 94.7906 24.4428C94.7906 25.2094 93.8901 25.9333 92.089 25.9333C89.4735 25.9333 85.8279 24.4428 83.4688 22.3552L82.4396 29.2578C84.8839 31.0473 88.4017 32.112 92.1316 32.112C98.6074 32.112 102.296 28.9597 102.296 24.4854C102.296 19.7991 98.3075 18.2216 95.0914 17.0718C93.2903 16.433 92.0038 16.0497 92.0038 15.1554C92.0038 14.3879 92.9044 13.7917 94.7489 13.7917C97.407 13.7917 100.152 15.0267 101.867 15.9645ZM19.2667 8.25278L18.8382 10.2978C17.5943 7.86861 13.9052 7.61309 11.9329 7.61309C5.75873 7.61309 0.353775 13.4927 0.353775 21.546C0.353775 28.0219 4.29925 32.1128 9.23132 32.1128C11.9764 32.1128 14.3346 31.4732 16.2643 29.2143L15.7497 31.4732H23.5129L27.0725 8.21019H19.2667V8.25278ZM12.7909 24.3576C10.1319 24.3576 8.11608 22.3126 8.11608 19.7139C8.11583 19.1014 8.2368 18.4948 8.47202 17.9292C8.70723 17.3636 9.05204 16.8502 9.48658 16.4184C9.92112 15.9867 10.4368 15.6452 11.0039 15.4137C11.571 15.1821 12.1783 15.0651 12.7909 15.0693C15.3638 15.0693 17.4222 17.1569 17.4222 19.7139C17.4222 22.3126 15.3638 24.3576 12.7909 24.3576ZM76.5209 8.25278H75.7056L75.277 10.2978C74.0331 7.86861 70.345 7.61309 68.3727 7.61309C62.1967 7.61309 56.7926 13.4927 56.7926 21.546C56.7926 28.0219 60.7381 32.1128 65.6702 32.1128C68.4153 32.1128 70.7735 31.4732 72.7041 29.2143L72.1895 31.4732H79.9518L83.5113 8.21019H76.52L76.5209 8.25278ZM69.2297 24.3576C66.5707 24.3576 64.555 22.3126 64.555 19.7139C64.5547 19.1013 64.6757 18.4947 64.911 17.929C65.1462 17.3634 65.4911 16.8499 65.9258 16.4181C66.3604 15.9864 66.8762 15.6449 67.4434 15.4134C68.0106 15.1819 68.618 15.065 69.2306 15.0693C71.8036 15.0693 73.8619 17.1569 73.8619 19.7139C73.9045 22.3126 71.8027 24.3576 69.2297 24.3576ZM135.019 8.25278H134.205L133.775 10.2978C132.532 7.86861 128.843 7.61309 126.87 7.61309C120.695 7.61309 115.292 13.4927 115.292 21.546C115.292 28.0219 119.236 32.1128 124.168 32.1128C126.913 32.1128 129.272 31.4732 131.202 29.2143L130.688 31.4732H138.45L142.009 8.21019H135.019V8.25278ZM127.729 24.3576C125.07 24.3576 123.053 22.3126 123.053 19.7139C123.053 19.1013 123.174 18.4947 123.409 17.929C123.644 17.3634 123.989 16.8499 124.424 16.4181C124.858 15.9864 125.374 15.6449 125.941 15.4134C126.509 15.1819 127.116 15.065 127.729 15.0693C130.301 15.0693 132.36 17.1569 132.36 19.7139C132.365 20.324 132.248 20.929 132.018 21.4938C131.787 22.0586 131.446 22.5719 131.015 23.0039C130.584 23.4359 130.072 23.778 129.508 24.0104C128.944 24.2428 128.339 24.3608 127.729 24.3576ZM34.5775 9.1054C36.7334 9.1054 38.4813 7.3691 38.4813 5.22824C38.4813 3.08648 36.7334 1.35107 34.5775 1.35107C32.4224 1.35107 30.6755 3.08648 30.6755 5.22824C30.6755 7.3691 32.4224 9.1054 34.5775 9.1054Z" fill="white"/>
<path d="M34.5349 10.5968C33.7443 10.595 32.9635 10.4227 32.2455 10.0917C31.5276 9.76065 30.8895 9.27869 30.3747 8.67866L26.9012 31.4732H34.7061L38.0953 9.31746C37.0966 10.1505 35.8354 10.6033 34.5349 10.5959V10.5968ZM52.8046 15.9219C54.9605 15.9219 56.7084 14.1856 56.7084 12.0448C56.7084 9.90303 54.9605 8.16762 52.8046 8.16762C50.6486 8.16762 48.9026 9.90303 48.9026 12.0448C48.9026 14.1856 50.6495 15.9219 52.8046 15.9219ZM47.3588 12.0448C47.3588 10.5534 47.9586 9.1897 48.9452 8.21021H41.6114L38.0519 31.4732H45.8576L48.3445 15.1128C47.7013 14.2602 47.3588 13.1946 47.3588 12.0448ZM111.218 9.06194C113.373 9.06194 115.12 7.32653 115.12 5.18478C115.12 3.04391 113.373 1.30762 111.218 1.30762C109.062 1.30762 107.314 3.04391 107.314 5.18478C107.314 7.32653 109.062 9.06194 111.218 9.06194Z" fill="white"/>
<path d="M111.217 10.5958C109.502 10.5958 107.958 9.78579 106.928 8.55078L103.411 31.4731H111.217L114.605 9.40251C113.649 10.183 112.451 10.6051 111.217 10.5958Z" fill="white"/>
</g>
</g>
</g>
</g>
<defs>
<clipPath id="clip0_3_351">
<rect width="142" height="31.94" fill="white" transform="translate(0.288971 0.713379)"/>
</clipPath>
<clipPath id="clip1_3_351">
<rect width="142" height="31.94" fill="white" transform="translate(0.288971 0.713379)"/>
</clipPath>
<clipPath id="clip2_3_351">
<rect width="141.956" height="31.94" fill="white" transform="translate(0.311188 0.713379)"/>
</clipPath>
</defs>
</svg>
