<svg width="161" height="40" viewBox="0 0 161 40" fill="none" xmlns="http://www.w3.org/2000/svg">
<g clip-path="url(#clip0_3_310)">
<g clip-path="url(#clip1_3_310)">
<g clip-path="url(#clip2_3_310)">
<path fill-rule="evenodd" clip-rule="evenodd" d="M1.43396 28.8699L7.13512 24.5029C10.1628 28.4554 13.3781 30.2773 16.9605 30.2773C20.5232 30.2773 23.6501 28.4768 26.542 24.5553L32.3215 28.8175C28.1522 34.4719 22.9647 37.4585 16.9605 37.4585C10.9761 37.4585 5.74123 34.4922 1.43396 28.8699Z" fill="url(#paint0_linear_3_310)"/>
<path fill-rule="evenodd" clip-rule="evenodd" d="M16.9425 9.89068L6.79496 18.6353L2.10698 13.1949L16.9622 0.393066L31.7025 13.2045L26.9915 18.6252L16.9425 9.89068Z" fill="url(#paint1_linear_3_310)"/>
<path d="M65.4938 7.77539H71.2389V31.7137H65.4938V7.77539Z" fill="white"/>
<path fill-rule="evenodd" clip-rule="evenodd" d="M53.8831 31.8193C50.4961 31.8193 47.674 30.7211 45.3846 28.5263C43.0953 26.2995 41.9661 23.4464 41.9661 19.9653C41.9661 16.4527 43.1262 13.5675 45.4162 11.3102C47.7365 9.02088 50.5586 7.89168 53.9147 7.89168C58.0535 7.89168 61.7227 9.67924 63.8549 12.4704L60.1233 16.3902C58.3357 14.4776 56.3916 13.505 54.2903 13.505C52.5033 13.505 51.0295 14.1008 49.8062 15.3241C48.6145 16.5473 48.0187 18.0837 48.0187 19.9338C48.0187 21.7213 48.6145 23.2267 49.8062 24.4494C51.0295 25.6411 52.5033 26.237 54.2593 26.237C56.5481 26.237 58.5553 25.2334 60.2173 23.2577L64.1061 26.9894C63.04 28.4008 61.5971 29.5609 59.8096 30.4705C58.0226 31.38 56.0469 31.8193 53.8831 31.8193ZM79.8563 9.68994C79.8563 10.5153 79.5284 11.3068 78.9448 11.8904C78.3612 12.474 77.5697 12.8018 76.7444 12.8018C75.919 12.8018 75.1275 12.474 74.5439 11.8904C73.9603 11.3068 73.6325 10.5153 73.6325 9.68994C73.6435 8.87187 73.9762 8.09103 74.5586 7.51641C75.141 6.9418 75.9262 6.61963 76.7444 6.61963C77.5625 6.61963 78.3477 6.9418 78.9301 7.51641C79.5125 8.09103 79.8452 8.87187 79.8563 9.68994ZM79.6169 14.2383H73.8718V31.7134H79.6169V14.2383ZM90.7224 31.8503C87.9943 31.8503 85.799 31.0038 84.0745 29.3103C82.381 27.6168 81.534 25.4525 81.534 22.7875C81.534 20.1219 82.381 17.9581 84.1055 16.2646C85.8306 14.5711 88.0568 13.7246 90.8165 13.7246C94.4231 13.7246 97.5899 15.4806 99.0638 18.7736L94.6422 21.0939C93.7642 19.6201 92.5415 18.8677 90.9421 18.8677C89.7819 18.8677 88.8408 19.2439 88.0884 19.9963C87.3669 20.7493 86.9907 21.6898 86.9907 22.7875C86.9907 25.0768 88.6527 26.7703 90.8795 26.7703C92.4784 26.7703 93.9523 25.8917 94.5797 24.5435L99.0013 27.1775C97.4959 30.0627 94.3916 31.8503 90.7224 31.8503ZM106.189 7.7751H100.444V31.7134H106.189V25.6197L106.862 24.9912L112.114 31.7134H118.797L110.729 21.3862L118.394 14.2383H111.373L106.189 19.0732V7.7751ZM119.834 22.6675V7.7751H125.819V22.3341C125.819 24.9371 127.335 26.1914 129.529 26.1914C131.69 26.1914 133.239 24.8741 133.239 22.3341V7.7751H139.224V22.6675C139.224 29.504 134.424 32.0756 129.529 32.0756C124.665 32.0756 119.834 29.504 119.834 22.6675ZM152.15 32.1921C156.778 32.1921 160.529 28.1197 160.529 23.0955C160.529 18.0719 156.778 13.9989 152.15 13.9989C150.264 13.9989 148.524 14.6759 147.123 15.818V14.2383H141.618V38.8946H147.123V30.3736C148.524 31.5152 150.264 32.1921 152.15 32.1921ZM147.123 23.1051V23.0859C147.129 20.8428 148.895 19.0259 151.073 19.0259C153.255 19.0259 155.023 20.8478 155.023 23.0955C155.023 25.3426 153.255 27.1651 151.073 27.1651C148.895 27.1651 147.129 25.3488 147.123 23.1051Z" fill="white"/>
</g>
</g>
</g>
<defs>
<linearGradient id="paint0_linear_3_310" x1="1.43396" y1="39.7912" x2="32.3215" y2="39.7912" gradientUnits="userSpaceOnUse">
<stop stop-color="#8930FD"/>
<stop offset="1" stop-color="#49CCF9"/>
</linearGradient>
<linearGradient id="paint1_linear_3_310" x1="2.10698" y1="21.9193" x2="31.7025" y2="21.9193" gradientUnits="userSpaceOnUse">
<stop stop-color="#FF02F0"/>
<stop offset="1" stop-color="#FFC800"/>
</linearGradient>
<clipPath id="clip0_3_310">
<rect width="160" height="38.86" fill="white" transform="translate(0.958984 0.213379)"/>
</clipPath>
<clipPath id="clip1_3_310">
<rect width="160" height="38.86" fill="white" transform="translate(0.958984 0.213379)"/>
</clipPath>
<clipPath id="clip2_3_310">
<rect width="159.946" height="38.86" fill="white" transform="translate(0.986229 0.213379)"/>
</clipPath>
</defs>
</svg>
