<svg width="161" height="53" viewBox="0 0 161 53" fill="none" xmlns="http://www.w3.org/2000/svg">
<g clip-path="url(#clip0_3_20)">
<g clip-path="url(#clip1_3_20)">
<g clip-path="url(#clip2_3_20)">
<path d="M159.847 35.685C159.575 35.685 159.327 35.861 159.199 36.229C157.559 40.909 155.343 43.693 153.519 43.693C152.471 43.693 152.047 42.525 152.047 40.693C152.047 36.109 154.791 26.389 156.175 21.957C156.335 21.421 156.439 20.941 156.439 20.533C156.439 19.245 155.735 18.613 153.991 18.613C152.111 18.613 150.087 19.349 148.119 22.797C147.439 19.757 145.383 18.429 142.511 18.429C139.191 18.429 135.983 20.565 133.343 24.029C130.703 27.493 127.599 28.629 125.263 28.069C126.943 23.957 127.567 20.885 127.567 18.605C127.567 15.029 125.799 12.869 122.943 12.869C118.599 12.869 116.095 17.013 116.095 21.373C116.095 24.741 117.623 28.205 120.983 29.885C118.167 36.253 114.055 42.013 112.495 42.013C110.479 42.013 109.887 32.149 109.999 25.093C110.071 21.045 110.407 20.837 110.407 19.613C110.407 18.909 109.951 18.429 108.119 18.429C103.847 18.429 102.527 22.045 102.327 26.197C102.262 27.7748 102.015 29.3399 101.591 30.861C99.807 37.229 96.127 42.061 93.727 42.061C92.615 42.061 92.311 40.949 92.311 39.493C92.311 34.909 94.879 29.181 94.879 24.293C94.879 20.701 93.303 18.429 90.335 18.429C86.839 18.429 82.215 22.589 77.839 30.381C79.279 24.413 79.871 18.637 75.607 18.637C74.6819 18.6508 73.7738 18.8868 72.959 19.325C72.6854 19.4529 72.4568 19.6602 72.3027 19.9199C72.1486 20.1795 72.0762 20.4796 72.095 20.781C72.503 27.133 66.975 43.405 61.735 43.405C60.783 43.405 60.319 42.373 60.319 40.709C60.319 36.117 63.055 26.421 64.431 21.981C64.607 21.405 64.703 20.909 64.703 20.477C64.703 19.261 63.951 18.637 62.247 18.637C60.375 18.637 58.343 19.349 56.383 22.797C55.695 19.757 53.639 18.429 50.767 18.429C46.055 18.429 40.791 23.413 38.479 29.909C35.383 38.581 29.143 46.957 20.743 46.957C13.119 46.957 9.09499 40.613 9.09499 30.589C9.09499 16.117 19.719 4.29298 27.599 4.29298C31.367 4.29298 33.167 6.69298 33.167 10.373C33.167 14.829 30.679 16.901 30.679 18.597C30.679 19.117 31.111 19.629 31.967 19.629C35.391 19.629 39.423 15.605 39.423 10.117C39.423 4.62898 34.967 0.612976 27.087 0.612976C14.063 0.612976 0.958984 13.717 0.958984 30.509C0.958984 43.869 7.55098 51.925 18.951 51.925C26.727 51.925 33.519 45.877 37.183 38.821C37.599 44.669 40.255 47.725 44.303 47.725C47.903 47.725 50.815 45.581 53.039 41.813C53.895 45.757 56.167 47.685 59.119 47.685C62.503 47.685 65.335 45.541 68.031 41.557C67.991 44.685 68.703 47.629 71.415 47.629C72.695 47.629 74.223 47.333 74.495 46.213C77.351 34.405 84.407 24.765 86.567 24.765C87.207 24.765 87.383 25.381 87.383 26.109C87.383 29.317 85.119 35.893 85.119 40.093C85.119 44.629 87.047 47.629 91.031 47.629C95.447 47.629 99.935 42.221 102.927 34.317C103.863 41.701 105.887 47.661 109.055 47.661C112.943 47.661 119.847 39.477 124.031 30.813C125.671 31.021 128.135 30.965 130.503 29.293C129.495 31.845 128.903 34.637 128.903 37.429C128.903 45.469 132.743 47.725 136.047 47.725C139.639 47.725 142.551 45.581 144.783 41.813C145.519 45.213 147.399 47.677 150.855 47.677C156.263 47.677 160.959 42.149 160.959 37.613C160.959 36.413 160.447 35.685 159.847 35.685ZM47.599 43.269C45.415 43.269 44.559 41.069 44.559 37.789C44.559 32.093 48.455 22.581 52.575 22.581C54.375 22.581 55.055 24.701 55.055 27.293C55.055 33.077 51.351 43.269 47.599 43.269ZM122.407 26.269C121.103 24.717 120.631 22.605 120.631 20.725C120.631 18.405 121.479 16.445 122.495 16.445C123.511 16.445 123.823 17.445 123.823 18.837C123.823 21.165 122.991 24.565 122.407 26.269ZM139.343 43.269C137.159 43.269 136.303 40.741 136.303 37.789C136.303 32.293 140.199 22.581 144.351 22.581C146.151 22.581 146.791 24.685 146.791 27.293C146.791 33.077 143.151 43.269 139.343 43.269Z" fill="white"/>
</g>
</g>
</g>
<defs>
<clipPath id="clip0_3_20">
<rect width="160" height="52" fill="white" transform="translate(0.958984 0.292969)"/>
</clipPath>
<clipPath id="clip1_3_20">
<rect width="160" height="52" fill="white" transform="translate(0.958984 0.292969)"/>
</clipPath>
<clipPath id="clip2_3_20">
<rect width="160" height="52" fill="white" transform="translate(0.958984 0.292969)"/>
</clipPath>
</defs>
</svg>
