<svg width="149" height="37" viewBox="0 0 149 37" fill="none" xmlns="http://www.w3.org/2000/svg">
<g clip-path="url(#clip0_3_169)">
<g clip-path="url(#clip1_3_169)">
<g clip-path="url(#clip2_3_169)">
<path fill-rule="evenodd" clip-rule="evenodd" d="M1.38913 26.714L6.66336 22.6741C9.46434 26.3306 12.4388 28.016 15.753 28.016C19.0489 28.016 21.9416 26.3503 24.617 22.7225L29.9637 26.6656C26.1066 31.8966 21.3075 34.6595 15.753 34.6595C10.2167 34.6595 5.37385 31.9153 1.38913 26.714Z" fill="url(#paint0_linear_3_169)"/>
<path fill-rule="evenodd" clip-rule="evenodd" d="M15.7363 9.15577L6.34867 17.2456L2.01175 12.2126L15.7545 0.369385L29.3911 12.2214L25.0328 17.2362L15.7363 9.15577Z" fill="url(#paint1_linear_3_169)"/>
<path d="M60.6519 7.19873H65.9668V29.3444H60.6519V7.19873Z" fill="black"/>
<path fill-rule="evenodd" clip-rule="evenodd" d="M49.9107 29.4425C46.7773 29.4425 44.1665 28.4265 42.0486 26.3961C39.9307 24.336 38.886 21.6966 38.886 18.4762C38.886 15.2266 39.9593 12.5575 42.0778 10.4692C44.2243 8.35131 46.8352 7.30668 49.9399 7.30668C53.7688 7.30668 57.1632 8.96038 59.1358 11.5425L55.6835 15.1688C54.0298 13.3994 52.2313 12.4996 50.2874 12.4996C48.6342 12.4996 47.2707 13.0509 46.1391 14.1825C45.0366 15.3142 44.4854 16.7355 44.4854 18.447C44.4854 20.1007 45.0366 21.4934 46.1391 22.6245C47.2707 23.727 48.6342 24.2782 50.2587 24.2782C52.3761 24.2782 54.233 23.3498 55.7705 21.522L59.3682 24.9743C58.3819 26.2799 57.047 27.3532 55.3933 28.1947C53.7402 29.0361 51.9124 29.4425 49.9107 29.4425ZM73.9388 8.97028C73.9388 9.7338 73.6355 10.4661 73.0956 11.0059C72.5557 11.5458 71.8235 11.8491 71.06 11.8491C70.2965 11.8491 69.5642 11.5458 69.0243 11.0059C68.4844 10.4661 68.1811 9.7338 68.1811 8.97028C68.1913 8.21346 68.4991 7.4911 69.0379 6.95951C69.5766 6.42793 70.3031 6.12988 71.06 6.12988C71.8169 6.12988 72.5433 6.42793 73.0821 6.95951C73.6209 7.4911 73.9287 8.21346 73.9388 8.97028ZM73.7174 13.178H68.4025V29.3446H73.7174V13.178ZM83.9913 29.4712C81.4675 29.4712 79.4366 28.6881 77.8412 27.1214C76.2745 25.5547 75.4909 23.5524 75.4909 21.087C75.4909 18.621 76.2746 16.6193 77.8699 15.0526C79.4658 13.4859 81.5253 12.7028 84.0783 12.7028C87.4149 12.7028 90.3445 14.3274 91.708 17.3737L87.6176 19.5203C86.8053 18.1568 85.6742 17.4607 84.1945 17.4607C83.1212 17.4607 82.2506 17.8088 81.5545 18.5048C80.8871 19.2014 80.5391 20.0715 80.5391 21.087C80.5391 23.2049 82.0766 24.7716 84.1367 24.7716C85.6158 24.7716 86.9793 23.9588 87.5597 22.7115L91.6502 25.1483C90.2575 27.8175 87.3857 29.4712 83.9913 29.4712ZM98.2999 7.19883H92.9851V29.3446H98.2999V23.7072L98.9225 23.1257L103.781 29.3446H109.964L102.499 19.7907L109.59 13.178H103.096L98.2999 17.6509V7.19883ZM110.923 20.976V7.19883H116.459V20.6676C116.459 23.0757 117.862 24.236 119.892 24.236C121.891 24.236 123.324 23.0174 123.324 20.6676V7.19883H128.861V20.976C128.861 27.3006 124.42 29.6796 119.892 29.6796C115.392 29.6796 110.923 27.3006 110.923 20.976ZM140.819 29.7874C145.1 29.7874 148.571 26.02 148.571 21.372C148.571 16.7245 145.1 12.9566 140.819 12.9566C139.074 12.9566 137.465 13.5828 136.169 14.6394V13.178H131.075V35.988H136.169V28.1051C137.465 29.1612 139.074 29.7874 140.819 29.7874ZM136.169 21.3808V21.3631C136.173 19.2879 137.807 17.6071 139.823 17.6071C141.841 17.6071 143.477 19.2926 143.477 21.372C143.477 23.4508 141.841 25.1368 139.823 25.1368C137.807 25.1368 136.173 23.4566 136.169 21.3808Z" fill="black"/>
</g>
</g>
</g>
<defs>
<linearGradient id="paint0_linear_3_169" x1="1.38913" y1="36.8175" x2="29.9637" y2="36.8175" gradientUnits="userSpaceOnUse">
<stop stop-color="#8930FD"/>
<stop offset="1" stop-color="#49CCF9"/>
</linearGradient>
<linearGradient id="paint1_linear_3_169" x1="2.01175" y1="20.2836" x2="29.3911" y2="20.2836" gradientUnits="userSpaceOnUse">
<stop stop-color="#FF02F0"/>
<stop offset="1" stop-color="#FFC800"/>
</linearGradient>
<clipPath id="clip0_3_169">
<rect width="148" height="35.95" fill="white" transform="translate(0.958984 0.203125)"/>
</clipPath>
<clipPath id="clip1_3_169">
<rect width="148" height="35.95" fill="white" transform="translate(0.958984 0.203125)"/>
</clipPath>
<clipPath id="clip2_3_169">
<rect width="147.968" height="35.95" fill="white" transform="translate(0.97493 0.203125)"/>
</clipPath>
</defs>
</svg>
