<svg width="161" height="53" viewBox="0 0 161 53" fill="none" xmlns="http://www.w3.org/2000/svg">
<g clip-path="url(#clip0_3_304)">
<g clip-path="url(#clip1_3_304)">
<g clip-path="url(#clip2_3_304)">
<path d="M15.4452 3.48105H1.44517V40.3718H15.4452C21.0956 40.3718 25.8978 38.6233 29.3327 35.3168C32.7734 32.0073 34.5901 27.3759 34.5901 21.9259C34.5901 16.476 32.7734 11.8455 29.3327 8.53409C25.8968 5.22858 21.0956 3.48105 15.4452 3.48105ZM9.30217 10.871H15.3682C22.3781 10.871 26.3964 14.9002 26.3964 21.9259C26.3964 28.8479 22.2734 32.9818 15.3682 32.9818H9.30217V10.871ZM41.8606 2.08203C39.2729 2.08203 37.2459 4.13168 37.2459 6.74903C37.2459 9.33578 39.2729 11.3627 41.8606 11.3627C44.4632 11.3627 46.501 9.33677 46.501 6.74903C46.501 4.13168 44.4632 2.08203 41.8606 2.08203ZM38.2036 40.3728H45.5946V14.6445H38.2036V40.3728ZM68.6907 16.9213C66.8306 14.9861 64.2725 13.9712 61.2355 13.9712C58.0949 13.9712 55.1478 15.2547 52.9392 17.5847C50.6368 20.0135 49.3681 23.395 49.3681 27.1073C49.3681 30.8068 50.6368 34.1804 52.9392 36.6052C55.1498 38.9353 58.0959 40.2168 61.2355 40.2168C64.3001 40.2168 66.7882 39.2492 68.6404 37.3378V38.2698C68.6404 42.2408 66.0842 44.6103 61.8042 44.6103C58.9479 44.6103 56.2161 43.7652 53.6905 42.0986L53.3785 41.8932L50.7168 47.9879L50.9271 48.136C53.6639 50.0701 57.8382 51.2243 62.0905 51.2243C70.6406 51.2243 75.9524 46.1505 75.9524 37.9845V14.6445H68.6907V16.9213ZM62.9446 33.3698C59.4663 33.3698 56.9408 30.7367 56.9408 27.1073C56.9408 23.4622 59.4663 20.8172 62.9446 20.8172C66.4653 20.8172 68.9237 23.4039 68.9237 27.1063C68.9237 30.7367 66.41 33.3698 62.9446 33.3698ZM84.771 2.08203C82.1842 2.08203 80.1553 4.13168 80.1553 6.74903C80.1553 9.33677 82.1833 11.3637 84.771 11.3637C87.3735 11.3637 89.4113 9.33677 89.4113 6.74903C89.4113 4.13267 87.3735 2.08203 84.771 2.08203ZM81.115 40.3728H88.506V14.6445H81.115V40.3728ZM111.124 31.6588C109.664 33.2523 107.854 34.0955 105.891 34.0955C102.442 34.0955 99.939 31.3211 99.939 27.4953C99.939 23.6705 102.453 20.8942 105.917 20.8942C107.903 20.8942 109.486 21.6396 111.049 23.3072L111.252 23.5244L116.582 19.0746L116.399 18.8347C114.012 15.698 110.355 13.9702 106.098 13.9702C98.0434 13.9702 92.4187 19.5327 92.4187 27.4963C92.4187 35.459 98.0434 41.0195 106.098 41.0195C110.331 41.0195 113.997 39.3016 116.423 36.1836L116.609 35.9467L111.331 31.4347L111.124 31.6588ZM160.472 40.0559C160.472 40.0559 158.784 40.3718 156.534 40.3718C149.563 40.3718 147.245 36.7839 147.245 30.6379V4.77738H154.592V29.8738C154.592 32.7014 155.409 33.6798 157.73 33.8645C159.112 33.975 160.472 33.7578 160.472 33.7578V40.0559ZM138.052 32.3707C136.328 33.7924 134.07 34.6395 131.993 34.6395C128.804 34.6395 126.667 33.0183 125.936 30.0633H143.612L143.649 29.7908C143.728 29.2083 143.782 28.2753 143.782 27.4697V27.4677C143.769 23.5481 142.565 20.1804 140.298 17.7309C138.025 15.2715 134.902 13.9702 131.267 13.9702C127.489 13.9702 124.243 15.2774 121.878 17.7496C119.511 20.2208 118.26 23.6192 118.26 27.5723C118.26 31.5166 119.548 34.8883 121.983 37.324C124.4 39.7419 127.728 41.0195 131.604 41.0195C135.193 41.0195 138.303 40.1901 140.822 38.4604C141.847 37.7554 142.659 36.8678 142.934 36.543L138.052 32.3707ZM131.216 20.4292C133.832 20.4292 135.622 21.9852 136.29 24.8227H125.959C126.447 22.7355 127.768 20.4292 131.216 20.4292Z" fill="#ED1B2F"/>
</g>
</g>
</g>
<defs>
<clipPath id="clip0_3_304">
<rect width="160" height="51.34" fill="white" transform="translate(0.958984 0.983398)"/>
</clipPath>
<clipPath id="clip1_3_304">
<rect width="160" height="51.34" fill="white" transform="translate(0.958984 0.983398)"/>
</clipPath>
<clipPath id="clip2_3_304">
<rect width="159.944" height="51.34" fill="white" transform="translate(0.987061 0.983398)"/>
</clipPath>
</defs>
</svg>
