<svg width="63" height="33" viewBox="0 0 63 33" fill="none" xmlns="http://www.w3.org/2000/svg">
<g opacity="0.7" clip-path="url(#clip0_3_347)">
<g clip-path="url(#clip1_3_347)">
<g clip-path="url(#clip2_3_347)">
<path d="M4.54011 26.8354H0.337204V22.6255H4.54011V26.8354ZM4.54011 21.0343H0.337204V1.0166H4.54011V21.0343ZM6.52154 8.61761H10.7061V10.3564H10.7742C11.7435 9.34559 13.0031 8.32694 14.5594 8.32694C16.5408 8.32694 17.4788 9.7026 17.4788 12.0917V26.8359H13.2942V13.6135C13.2942 12.2396 12.8268 11.8023 12.1088 11.8023C11.5323 11.8023 10.992 12.1305 10.7061 12.4975V26.8354H6.52154V8.61761ZM26.5445 26.8324H30.5435V1.0166H26.3629V9.62709H26.2865C25.7881 8.94232 24.8764 8.32651 23.64 8.32651C20.5788 8.32651 19.1726 11.66 19.1726 17.6816C19.1726 23.6328 20.2593 27.1191 23.2812 27.1191C24.9497 27.1191 25.6375 26.3191 26.4729 25.3716H26.5449L26.5445 26.8324ZM26.3629 23.4836C26.1412 23.8127 25.7052 24.0671 25.0911 24.0671C23.8638 24.0671 23.64 23.2392 23.64 17.6462C23.64 11.9145 23.9712 11.1546 25.1998 11.1546C25.7423 11.1546 26.1787 11.4095 26.3633 11.7351L26.3629 23.4836ZM32.6934 1.0166H36.8723V5.19812H32.6934V1.0166ZM32.6934 8.61761H36.8723V26.8354H32.6934V8.61761ZM42.1615 14.1796C42.1615 11.9049 42.6695 10.9185 43.6773 10.9185C44.6654 10.9185 45.1655 11.9044 45.1655 14.1796C45.1655 16.4107 44.6654 17.4014 43.6773 17.4014C42.6691 17.4014 42.1615 16.4107 42.1615 14.1796ZM50.2348 6.43935C48.6453 6.62134 47.1915 7.74386 46.5124 9.18935C45.4536 8.43518 44.5165 8.32651 43.6768 8.32651C40.349 8.32651 38.3924 11.0647 38.3924 13.9928C38.3924 16.0833 38.8232 17.8723 40.6061 19.0913C39.2623 19.8865 38.21 20.8676 38.21 22.5701C38.21 24.0645 39.4059 24.9727 40.7143 25.3341V25.4122C39.1209 26.0298 37.4873 26.7429 37.4873 28.744C37.4873 29.9071 38.8638 32.2582 43.6768 32.2582C48.5759 32.2582 50.2348 29.6832 50.2348 27.1017C50.2348 20.9754 41.6937 22.8651 41.6937 20.645C41.6937 20.2832 41.7613 19.996 42.0908 19.8149C42.5569 19.9554 43.0628 19.996 43.5708 19.996C46.8668 19.996 48.9246 17.2587 48.9246 14.1036C48.9246 12.6027 48.5763 11.4702 47.7017 10.3826C48.0639 10.0897 48.6086 9.91078 48.97 9.91078C49.2598 9.91078 49.8337 9.98192 50.2352 10.1294L50.2348 6.43935ZM46.7603 27.6699C46.7603 28.7811 45.7072 29.427 43.8283 29.427C41.6169 29.427 40.9648 28.888 40.9648 27.9933C40.9648 26.7071 42.9275 26.1699 43.5708 26.0607C44.0173 26.0961 46.7603 26.5251 46.7603 27.6699ZM61.8571 17.7248C61.8571 10.8417 59.3288 8.33087 56.0861 8.33087C52.8364 8.33087 50.3111 10.8417 50.3111 17.7248C50.3111 24.6161 52.8368 27.1261 56.0861 27.1261C59.3288 27.1261 61.8571 24.6161 61.8571 17.7248ZM57.3889 17.7248C57.3889 23.2667 57.0589 24.0671 56.0865 24.0671C55.1102 24.0671 54.779 23.2667 54.779 17.7248C54.779 12.1807 55.1102 11.3868 56.0865 11.3868C57.0585 11.3864 57.3889 12.1807 57.3889 17.7248Z" fill="white"/>
</g>
</g>
</g>
<defs>
<clipPath id="clip0_3_347">
<rect width="62" height="31.86" fill="white" transform="translate(0.288971 0.743164)"/>
</clipPath>
<clipPath id="clip1_3_347">
<rect width="62" height="31.86" fill="white" transform="translate(0.288971 0.743164)"/>
</clipPath>
<clipPath id="clip2_3_347">
<rect width="61.9742" height="31.86" fill="white" transform="translate(0.301849 0.743164)"/>
</clipPath>
</defs>
</svg>
