<svg width="161" height="51" viewBox="0 0 161 51" fill="none" xmlns="http://www.w3.org/2000/svg">
<g clip-path="url(#clip0_3_62)">
<g clip-path="url(#clip1_3_62)">
<g clip-path="url(#clip2_3_62)">
<path d="M19.367 48.949V49.086H0.958984V48.949C4.18998 47.177 4.89398 45.131 4.89398 40.628V9.79797C4.89398 5.29597 4.18998 3.25097 0.958984 1.47797V1.33997H19.367V1.47597C16.135 3.24997 15.433 5.29497 15.433 9.79797V40.628C15.433 45.13 16.135 47.177 19.367 48.949ZM49.512 27.533C57.594 27.533 61.316 22.552 61.316 15.323C61.316 8.09297 57.592 3.11397 49.512 3.11397H43.401V27.533H49.512ZM43.401 29.306V40.969C43.401 45.334 44.384 47.039 48.951 48.949V49.085H28.927V48.948C32.16 47.176 32.862 45.129 32.862 40.627V9.79897C32.862 5.29697 32.16 3.25197 28.927 1.47697V1.34097H52.817C64.198 1.34097 71.787 6.18497 71.787 15.323C71.787 24.461 64.198 29.306 52.887 29.306H43.401ZM83.984 10.345C83.984 16.142 89.113 18.121 95.014 19.825C102.884 22.076 111.947 24.395 111.947 35.378C111.947 44.926 103.376 49.77 93.891 49.77C88.2 49.77 84.264 47.586 81.384 47.586C79.416 47.586 78.082 48.542 76.606 49.77L75.551 34.286H75.691C80.048 42.949 86.863 48.337 93.821 48.337C99.791 48.337 104.008 45.132 104.008 39.402C104.008 32.716 97.262 31.08 90.377 28.966C83.28 26.852 76.044 24.123 76.044 14.642C76.044 6.11597 83.282 0.658966 93.047 0.658966C98.457 0.658966 102.111 2.77297 104.71 2.77297C106.677 2.77297 107.802 1.61497 108.856 0.658966L109.137 14.436H108.995C105.131 7.34397 100.425 2.09097 93.047 2.09097C88.127 2.09097 83.984 4.95597 83.984 10.343M151.615 9.32197C152.318 8.16197 152.668 7.07097 152.668 5.97997C152.668 4.20497 151.684 2.56797 149.508 1.47697V1.34097H160.959V1.47697C158.078 3.38697 156.252 5.70597 154.214 8.98097L141.568 29.102V40.971C141.568 45.473 142.411 47.178 145.644 48.949V49.086H127.304V48.949C130.537 47.177 131.451 45.472 131.451 40.971V29.101L118.522 8.57297C116.485 5.29797 115.009 3.45797 112.268 1.47897V1.34297H131.45V1.47897C129.693 2.63897 128.85 3.66097 128.85 5.36597C128.85 6.25397 129.131 7.27597 129.904 8.50397L140.864 26.512L151.615 9.32297V9.32197Z" fill="white"/>
</g>
</g>
</g>
<defs>
<clipPath id="clip0_3_62">
<rect width="160" height="50" fill="white" transform="translate(0.958984 0.352966)"/>
</clipPath>
<clipPath id="clip1_3_62">
<rect width="160" height="50" fill="white" transform="translate(0.958984 0.352966)"/>
</clipPath>
<clipPath id="clip2_3_62">
<rect width="160" height="50" fill="white" transform="translate(0.958984 0.352966)"/>
</clipPath>
</defs>
</svg>
