<svg width="130" height="41" viewBox="0 0 130 41" fill="none" xmlns="http://www.w3.org/2000/svg">
<g clip-path="url(#clip0_3_124)">
<g clip-path="url(#clip1_3_124)">
<path d="M15.1428 39.6574V39.7671H0.305099V39.6574C2.91025 38.2285 3.47642 36.579 3.47642 32.9498V8.09967C3.47642 4.47052 2.91025 2.82231 0.305099 1.39206V1.28243H15.1428V1.39206C12.5377 2.82166 11.9722 4.47052 11.9722 8.09967V32.9505C11.9722 36.579 12.5383 38.2291 15.1428 39.6574ZM39.4417 22.3938C45.9552 22.3938 48.9556 18.3797 48.9556 12.5523C48.9556 6.72552 45.9545 2.71204 39.4417 2.71204H34.5151V22.3932L39.4417 22.3938ZM34.5151 23.8234V33.2252C34.5151 36.7434 35.3082 38.1176 38.9896 39.6561V39.7658H22.848V39.6561C25.4532 38.2278 26.0193 36.5783 26.0193 32.9485V8.09967C26.0193 4.47116 25.4538 2.82295 22.848 1.39206V1.28243H42.1042C51.2783 1.28243 57.3952 5.18693 57.3952 12.5523C57.3952 19.9183 51.2783 23.8234 42.1609 23.8234H34.5151ZM67.2271 8.54009C67.2271 13.2126 71.3612 14.8079 76.1188 16.1814C82.4614 17.996 89.7674 19.8647 89.7674 28.7184C89.7674 36.4139 82.858 40.3184 75.2128 40.3184C70.6254 40.3184 67.4528 38.5586 65.1314 38.5586C63.5451 38.5586 62.4695 39.3292 61.2798 40.3184L60.4299 27.8375H60.5434C64.0545 34.8205 69.5479 39.1641 75.1554 39.1641C79.9691 39.1641 83.3674 36.5796 83.3674 31.9613C83.3674 26.5724 77.9301 25.2537 72.38 23.5494C66.6603 21.8457 60.8271 19.6455 60.8271 12.0042C60.8271 5.13083 66.6609 0.733032 74.5325 0.733032C78.8929 0.733032 81.8385 2.4367 83.9329 2.4367C85.5186 2.4367 86.4259 1.50361 87.2758 0.733032L87.5015 11.8378H87.3873C84.2728 6.12066 80.4785 1.88794 74.5325 1.88794C70.5674 1.88794 67.2271 4.19646 67.2271 8.5388M121.741 7.71535C122.308 6.78033 122.59 5.90077 122.59 5.02185C122.59 3.59096 121.797 2.27162 120.043 1.39206V1.28243H129.273V1.39206C126.95 2.93193 125.479 4.80067 123.836 7.44064L113.643 23.6596V33.2258C113.643 36.855 114.322 38.2298 116.928 39.6574V39.7671H102.146V39.6574C104.751 38.2285 105.488 36.8543 105.488 33.2258V23.6596L95.0667 7.11049C93.425 4.47116 92.2352 2.98803 90.0254 1.39335V1.28372H105.487V1.39335C104.071 2.32772 103.391 3.15182 103.391 4.52662C103.391 5.24174 103.618 6.06585 104.241 7.05568L113.076 21.571L121.741 7.71535Z" fill="#333333"/>
</g>
</g>
<defs>
<clipPath id="clip0_3_124">
<rect width="129" height="39.98" fill="white" transform="translate(0.288971 0.733032)"/>
</clipPath>
<clipPath id="clip1_3_124">
<rect width="128.968" height="39.98" fill="white" transform="translate(0.305099 0.733032)"/>
</clipPath>
</defs>
</svg>
