<svg width="15" height="17" viewBox="0 0 15 17" fill="none" xmlns="http://www.w3.org/2000/svg">
<g clip-path="url(#clip0_3_390)">
<path d="M4.09336 14.9824H1.19023V5.63555H4.09336V14.9824ZM2.64023 4.36055C1.71211 4.36055 0.958984 3.5918 0.958984 2.66367C0.958984 2.21778 1.13612 1.79014 1.45141 1.47485C1.76671 1.15955 2.19434 0.982422 2.64023 0.982422C3.08613 0.982422 3.51376 1.15955 3.82906 1.47485C4.14435 1.79014 4.32148 2.21778 4.32148 2.66367C4.32148 3.5918 3.56836 4.36055 2.64023 4.36055ZM14.9559 14.9824H12.059V10.4324C12.059 9.34805 12.0371 7.95742 10.5496 7.95742C9.04023 7.95742 8.80898 9.13555 8.80898 10.3543V14.9824H5.90898V5.63555H8.69336V6.91055H8.73398C9.12148 6.17617 10.0684 5.40117 11.4809 5.40117C14.4184 5.40117 14.959 7.33555 14.959 9.84805V14.9824H14.9559Z" fill="black"/>
</g>
<defs>
<clipPath id="clip0_3_390">
<rect width="14" height="16" fill="white" transform="translate(0.958984 0.982422)"/>
</clipPath>
</defs>
</svg>
