<svg width="73" height="25" viewBox="0 0 73 25" fill="none" xmlns="http://www.w3.org/2000/svg">
<g clip-path="url(#clip0_3_443)">
<path d="M70.853 14.317V13.977H67.139C65.163 13.977 63.875 14.9163 63.875 16.453C63.875 17.809 64.953 18.669 66.6383 18.669C69.299 18.669 70.853 17.019 70.853 14.317ZM72.959 11.761V20.2343H70.853V17.9643C70.141 19.477 68.377 20.441 66.3223 20.441C63.5316 20.441 61.7136 18.8803 61.7136 16.481C61.7136 13.977 63.7936 12.3843 67.0076 12.3843H70.0083C70.5943 12.3843 70.853 12.097 70.853 11.679C70.853 9.88097 69.563 8.65497 67.297 8.65497C65.347 8.65497 63.8216 9.85497 63.717 11.289H61.7136C61.9523 8.75297 64.3736 6.8843 67.349 6.8843C70.7996 6.88764 72.959 8.84097 72.959 11.761ZM56.819 13.663C56.819 10.693 55.0796 8.76497 52.4196 8.76497C49.7596 8.76497 47.9956 10.6916 47.9956 13.663C47.9956 16.6343 49.751 18.5663 52.4196 18.5663C55.0896 18.5663 56.819 16.6283 56.819 13.663ZM45.8376 13.663C45.8376 9.8323 48.1023 6.8883 52.235 6.8883C54.107 6.8883 55.845 7.82564 56.6343 9.2283V0.292969H58.7416V20.233H56.6336V18.0703C55.8536 19.5036 54.099 20.4403 52.235 20.4403C48.1016 20.4403 45.8376 17.495 45.8376 13.663ZM41.067 14.317V13.977H37.3623C35.387 13.977 34.0956 14.9163 34.0956 16.453C34.0956 17.809 35.1756 18.669 36.863 18.669C39.507 18.669 41.067 17.019 41.067 14.317ZM43.1736 11.761V20.2343H41.069V17.9643C40.359 19.477 38.5943 20.441 36.539 20.441C33.749 20.441 31.9323 18.8803 31.9323 16.481C31.9323 13.977 34.0123 12.3843 37.223 12.3843H40.2263C40.811 12.3843 41.069 12.097 41.069 11.679C41.069 9.88097 39.779 8.65497 37.5143 8.65497C35.5643 8.65497 34.037 9.85497 33.9323 11.289H31.9323C32.1676 8.75297 34.5923 6.8843 37.567 6.8843C41.0163 6.88764 43.177 8.84097 43.177 11.761H43.1736Z" fill="white"/>
<path d="M7.00698 20.5176C6.83727 20.5378 6.67939 20.6148 6.55915 20.7363C6.43891 20.8577 6.36341 21.0164 6.34499 21.1863C6.34499 21.1963 6.34499 21.2076 6.34299 21.219V21.209C6.34099 21.229 6.34032 21.249 6.33965 21.269V23.5383C6.33965 23.7384 6.26014 23.9304 6.11862 24.0719C5.97709 24.2135 5.78514 24.293 5.58499 24.293H1.71632C1.59142 24.2933 1.46838 24.2626 1.35829 24.2036C1.24821 24.1446 1.15451 24.0592 1.08565 23.955C1.00338 23.8313 0.959333 23.6862 0.958985 23.5376V11.993C0.958324 10.2608 1.34291 8.55011 2.08488 6.98487C2.82685 5.41964 3.90765 4.039 5.24899 2.94296L5.25099 2.93963L5.39499 2.82363L5.40299 2.8183C5.49899 2.74096 5.59699 2.6663 5.69632 2.59363L5.72165 2.57363L5.85432 2.47896L5.86899 2.46896C5.91699 2.43296 5.96699 2.39896 6.01565 2.36496L6.04299 2.34696L6.16365 2.26296L6.19965 2.23896C6.32299 2.15696 6.44765 2.07896 6.57365 2.00096L6.57899 1.9983C6.65432 1.95163 6.72899 1.90696 6.80699 1.8623L6.81299 1.85896C6.89099 1.81363 6.96899 1.76963 7.04699 1.72763L7.05032 1.7263C8.09464 1.15459 9.2207 0.746931 10.389 0.517631H10.3943L10.521 0.492964L10.5363 0.489631L10.6543 0.469631L10.6783 0.464964L10.7897 0.446964L10.8217 0.441631L10.927 0.426298L10.9663 0.419631L11.109 0.399631L11.205 0.387631L11.255 0.382298L11.345 0.371631L11.3997 0.366298L11.4863 0.356964L11.545 0.350964L11.629 0.344298L11.6923 0.338964L11.7723 0.332298L11.839 0.328298L11.917 0.322964L11.9883 0.318298L12.0617 0.314964L12.1377 0.310964L12.2077 0.307631L12.2923 0.304964L12.3543 0.304298L12.4497 0.300964H12.6497C19.1083 0.300964 24.337 5.5363 24.3397 11.995V23.537C24.3395 23.7372 24.2598 23.9293 24.1182 24.0709C23.9766 24.2125 23.7846 24.2921 23.5843 24.2923H19.7157C19.6163 24.2924 19.5179 24.2729 19.4261 24.2349C19.3343 24.197 19.2509 24.1413 19.1806 24.0711C19.1104 24.0009 19.0546 23.9175 19.0166 23.8258C18.9786 23.734 18.959 23.6356 18.959 23.5363V21.2663C18.9585 21.066 18.8786 20.8741 18.7369 20.7325C18.5953 20.591 18.4033 20.5113 18.203 20.511H12.6497L7.00698 20.5176ZM18.959 11.513C18.9825 10.679 18.8404 9.84868 18.5409 9.07C18.2414 8.29132 17.7905 7.57975 17.2143 6.97645C16.638 6.37316 15.9479 5.89011 15.1837 5.55525C14.4196 5.2204 13.5966 5.04038 12.7625 5.02562C11.9283 5.01086 11.0995 5.16164 10.324 5.46924C9.54853 5.77685 8.84172 6.23517 8.24448 6.8177C7.64724 7.40023 7.17144 8.0954 6.8446 8.86299C6.51775 9.63059 6.34636 10.4554 6.34032 11.2896C6.32876 12.9517 6.97334 14.5511 8.13409 15.7407C9.29484 16.9303 10.878 17.614 12.5398 17.6432C14.2016 17.6724 15.8079 17.0449 17.0098 15.8969C18.2116 14.7489 18.9121 13.173 18.959 11.5116V11.513Z" fill="white"/>
</g>
<defs>
<clipPath id="clip0_3_443">
<rect width="72" height="24" fill="white" transform="translate(0.958984 0.292969)"/>
</clipPath>
</defs>
</svg>
