<svg width="33" height="33" viewBox="0 0 33 33" fill="none" xmlns="http://www.w3.org/2000/svg">
<g clip-path="url(#clip0_3_219)">
<path d="M31.6257 5.48633H7.18121C6.02243 5.48633 5.03437 6.22949 4.66743 7.26411H2.29232C1.55593 7.26411 0.958984 7.86105 0.958984 8.59744V23.7086C0.958984 25.4268 2.35187 26.8197 4.0701 26.8197H31.6257C32.362 26.8197 32.959 26.2227 32.959 25.4863V6.81966C32.959 6.08327 32.362 5.48633 31.6257 5.48633ZM3.62565 23.7086V9.93077H4.51454V23.7086C4.51454 23.9536 4.31515 24.153 4.0701 24.153C3.82504 24.153 3.62565 23.9536 3.62565 23.7086ZM30.2923 24.153H7.1491C7.16987 24.0078 7.18121 23.8595 7.18121 23.7086V8.15299H30.2923V24.153ZM10.5145 17.4863H18.0701C18.4383 17.4863 18.7368 17.1878 18.7368 16.8197V11.4863C18.7368 11.1182 18.4383 10.8197 18.0701 10.8197H10.5145C10.1464 10.8197 9.84787 11.1182 9.84787 11.4863V16.8197C9.84787 17.1878 10.1464 17.4863 10.5145 17.4863ZM12.0701 13.0419H16.5145V15.2641H12.0701V13.0419ZM9.84787 20.8197V19.4863C9.84787 19.1182 10.1464 18.8197 10.5145 18.8197H18.0701C18.4383 18.8197 18.7368 19.1182 18.7368 19.4863V20.8197C18.7368 21.1878 18.4383 21.4863 18.0701 21.4863H10.5145C10.1464 21.4863 9.84787 21.1878 9.84787 20.8197ZM20.5145 20.8197V19.4863C20.5145 19.1182 20.813 18.8197 21.1812 18.8197H26.959C27.3272 18.8197 27.6257 19.1182 27.6257 19.4863V20.8197C27.6257 21.1878 27.3272 21.4863 26.959 21.4863H21.1812C20.813 21.4863 20.5145 21.1878 20.5145 20.8197ZM20.5145 12.8197V11.4863C20.5145 11.1182 20.813 10.8197 21.1812 10.8197H26.959C27.3272 10.8197 27.6257 11.1182 27.6257 11.4863V12.8197C27.6257 13.1878 27.3272 13.4863 26.959 13.4863H21.1812C20.813 13.4863 20.5145 13.1878 20.5145 12.8197ZM20.5145 16.8197V15.4863C20.5145 15.1182 20.813 14.8197 21.1812 14.8197H26.959C27.3272 14.8197 27.6257 15.1182 27.6257 15.4863V16.8197C27.6257 17.1878 27.3272 17.4863 26.959 17.4863H21.1812C20.813 17.4863 20.5145 17.1878 20.5145 16.8197Z" fill="#9CEAEC"/>
</g>
<defs>
<clipPath id="clip0_3_219">
<rect width="32" height="32" fill="white" transform="translate(0.958984 0.153076)"/>
</clipPath>
</defs>
</svg>
