<svg width="161" height="37" viewBox="0 0 161 37" fill="none" xmlns="http://www.w3.org/2000/svg">
<g clip-path="url(#clip0_3_52)">
<g clip-path="url(#clip1_3_52)">
<g clip-path="url(#clip2_3_52)">
<mask id="mask0_3_52" style="mask-type:luminance" maskUnits="userSpaceOnUse" x="1" y="1" width="160" height="35">
<path d="M1.1427 1.40482H160.173V35.4231H1.1427V1.40482Z" fill="white"/>
</mask>
<g mask="url(#mask0_3_52)">
<path d="M8.34413 19.0571C8.10141 19.0442 7.85802 19.0617 7.61966 19.1093C5.89418 19.4574 4.9188 20.924 5.1114 22.8323C5.28545 24.5578 7.03125 26.0129 8.64717 26.0571C8.81503 26.0598 8.97936 26.05 9.1437 26.0218C10.893 25.7223 11.3507 23.8236 11.0609 21.9586C10.7358 19.8523 9.31068 19.1102 8.34413 19.0571ZM10.0581 24.0472C9.99362 24.1965 9.74006 24.4006 9.37517 24.3855C9.00057 24.3573 8.58444 24.0851 8.52878 23.4075C8.50139 23.0735 8.62596 22.6654 8.70548 22.4533C8.85567 22.0425 8.71962 21.6105 8.36798 21.3807C8.26642 21.3138 8.15256 21.2678 8.03303 21.2454C7.9135 21.2229 7.7907 21.2245 7.67178 21.25C7.43412 21.3012 7.2318 21.4417 7.10369 21.644C7.01351 21.7977 6.94315 21.9622 6.8943 22.1335C6.88547 22.1644 6.87663 22.1883 6.87222 22.2024C6.7927 22.4162 6.66636 22.4772 6.58066 22.4666C6.5409 22.4613 6.48524 22.4339 6.4499 22.3358C6.35272 22.069 6.43047 21.3145 6.93318 20.7605C7.25124 20.408 7.7513 20.2287 8.23634 20.2896C8.7417 20.3541 9.16137 20.6589 9.42023 21.1502C9.76215 21.8031 9.45645 22.4869 9.27534 22.8951C9.2559 22.9392 9.23646 22.9799 9.22233 23.017C9.10747 23.2891 9.10217 23.525 9.20642 23.684C9.24995 23.7463 9.30824 23.7968 9.37608 23.8311C9.44393 23.8653 9.5192 23.8822 9.59516 23.8802C9.6738 23.8802 9.74447 23.8652 9.8072 23.8492C9.89732 23.828 9.99009 23.8077 10.0457 23.8784C10.067 23.9005 10.0988 23.9553 10.0608 24.0436L10.0572 24.0472H10.0581Z" fill="white"/>
<path d="M32.658 22.357C32.4615 22.1146 32.2192 21.9131 31.945 21.7642C31.922 21.6917 31.8999 21.614 31.8743 21.5345C31.8469 21.4487 31.8184 21.3633 31.7886 21.2783C32.2012 20.4036 32.1694 19.6456 32.0987 19.2259C31.9892 18.5173 31.6861 17.9236 31.1481 17.3564C30.4908 16.6655 29.3952 16.222 28.5232 15.9605C28.5117 15.5452 28.4993 15.077 28.4861 14.7828C28.4684 14.394 28.4331 13.5883 28.1804 12.7737C28.0055 12.1347 27.7338 11.5263 27.3746 10.9696C28.6946 9.3837 29.4111 7.74481 29.4093 6.28527C29.4067 3.91749 27.5628 2.38903 24.7144 2.38903C23.3618 2.38903 21.8201 2.73007 20.2519 3.37855C20.2483 3.37855 20.1635 3.41655 20.0434 3.4669C19.5663 3.00042 18.9381 2.38462 18.8957 2.34839C18.1801 1.72288 17.2895 1.40482 16.2505 1.40482C15.0154 1.40482 13.5938 1.86335 12.0291 2.76717C10.6791 3.54642 9.22844 4.6614 7.83428 5.9893C4.98941 8.69988 2.69761 11.9432 1.70191 14.667C1.27429 15.8368 1.08964 16.8988 1.15502 17.8229C1.23453 18.9449 1.69042 19.8859 2.46967 20.5441L2.95471 20.9558C2.79904 21.6462 2.75815 22.3575 2.83367 23.0612C2.97415 24.4544 3.67918 25.7779 4.81978 26.7887C5.73685 27.6015 6.86066 28.1298 7.99331 28.2915C9.01748 30.33 10.5804 32.049 12.5124 33.2621C14.6187 34.5917 17.1384 35.3374 19.8013 35.416C19.9727 35.4204 20.1441 35.424 20.3128 35.424C23.0605 35.424 25.6368 34.7481 27.7563 33.4688C29.9263 32.1672 31.6212 30.2034 32.5917 27.8665L32.6014 27.84C32.7702 27.4053 33.3233 25.8725 33.3233 24.4332C33.3233 23.3925 32.9601 22.7307 32.6562 22.357H32.658ZM31.5589 27.4345C29.677 31.9456 25.1853 34.4566 19.8349 34.2975C14.8466 34.1491 10.5908 31.5163 8.72926 27.226C7.60368 27.226 6.44365 26.733 5.56015 25.9502C4.62982 25.1259 4.05643 24.0613 3.946 22.9498C3.85853 22.084 3.96455 21.2791 4.23667 20.5768L3.1906 19.6924C-1.59178 15.6495 13.3729 -0.983285 18.1606 3.19125C18.1845 3.21246 19.7889 4.78685 19.7924 4.79039L20.6821 4.41225C24.8796 2.67441 28.2873 3.51285 28.2917 6.28704C28.2935 7.72979 27.3746 9.41109 25.9027 10.9378C26.4364 11.4325 26.864 12.2065 27.1096 13.0918C27.3146 13.7455 27.3517 14.4082 27.3693 14.8322C27.3959 15.4207 27.4241 16.7892 27.4259 16.8148C27.463 16.8263 27.8888 16.9438 28.017 16.9792C29.1434 17.2954 29.9465 17.716 30.3379 18.1295C30.7302 18.5403 30.9246 18.9388 30.9952 19.4061C31.0615 19.7834 31.0527 20.4487 30.5552 21.1926C30.5552 21.1926 30.6834 21.4718 30.807 21.8684C30.9307 22.266 31.0209 22.5964 31.035 22.6442C31.4918 22.6442 32.2065 23.1681 32.2065 24.4341C32.2065 25.7002 31.6844 27.12 31.5607 27.4363L31.5589 27.4345Z" fill="white"/>
<path d="M30.8089 23.6743C30.5677 23.5268 30.2788 23.5771 30.2788 23.5771C30.2788 23.5771 30.1471 22.676 29.7752 21.8587C28.669 22.7316 27.2484 23.343 26.1634 23.6549C24.9133 24.0127 23.2214 24.2892 21.3351 24.177C20.2873 24.0922 19.5946 23.7865 19.3349 24.6329C21.7265 25.5085 24.2586 25.1348 24.2586 25.1348C24.282 25.1328 24.3052 25.14 24.3233 25.1548C24.3415 25.1696 24.3531 25.191 24.3558 25.2143C24.3577 25.2338 24.3535 25.2534 24.3439 25.2705C24.3343 25.2876 24.3196 25.3012 24.3019 25.3097C24.3019 25.3097 22.3564 26.2126 19.2686 25.2567C19.3543 25.9811 20.0611 26.3054 20.3977 26.437C20.8218 26.6022 21.2883 26.6782 21.2883 26.6782C25.1138 27.3364 28.6938 25.1489 29.4986 24.5976C29.5596 24.5561 29.5976 24.5976 29.5499 24.67C29.5031 24.7407 29.4995 24.7442 29.4704 24.7822C28.4844 26.0545 25.8339 27.5264 22.3865 27.5264C20.8836 27.5264 19.3799 26.9963 18.8286 26.1817C17.9725 24.9192 18.7871 23.0753 20.2131 23.2662L20.8386 23.3368C22.6215 23.5365 25.2031 23.2856 27.3314 22.2978C29.2778 21.3949 30.0137 20.4001 29.9024 19.5943C29.8655 19.3439 29.7476 19.1124 29.5667 18.9352C29.2168 18.5933 28.6628 18.3265 27.7263 18.0632C27.4171 17.9766 27.2077 17.9201 26.9807 17.8468C26.5796 17.7142 26.3799 17.6073 26.3357 16.8519C26.3163 16.5215 26.258 15.3712 26.2376 14.8959C26.2005 14.0618 26.1007 12.923 25.3939 12.4521C25.2136 12.3343 25.0048 12.2677 24.7896 12.2595C24.5793 12.2498 24.4733 12.286 24.4318 12.2948C24.0289 12.3638 23.7895 12.5776 23.4917 12.8267C22.61 13.56 21.8661 13.6811 21.0374 13.6457C20.5426 13.6245 20.0187 13.5485 19.4179 13.5132L19.0663 13.4911C17.6801 13.4204 16.1922 14.6176 15.9449 16.3183C15.6012 18.6861 17.3152 19.9089 17.8099 20.6271C17.8727 20.712 17.9469 20.8339 17.9469 20.9478C17.9469 21.0848 17.8585 21.1943 17.7702 21.2871C16.3548 22.7422 15.9033 25.0526 16.4352 26.9786C16.5015 27.2198 16.5854 27.4495 16.6861 27.6695C17.9372 30.593 21.8166 31.9536 25.6077 30.7149C26.1148 30.5497 26.5972 30.3439 27.0478 30.1053C27.8778 29.6956 28.6255 29.1371 29.2539 28.4576C30.2593 27.4071 30.8592 26.2639 31.0898 24.8565C31.2047 24.1028 31.0368 23.8122 30.8089 23.6708V23.6743ZM25.704 18.8363C25.6987 19.1473 25.5096 19.3964 25.2835 19.3929C25.0564 19.3902 24.877 19.1331 24.8815 18.823C24.8868 18.5112 25.0758 18.262 25.302 18.2664C25.5291 18.2691 25.7084 18.5253 25.704 18.8363ZM24.6632 15.1521C25.105 15.0814 25.3188 15.5399 25.4778 16.2945C25.5838 16.8034 25.5644 17.2716 25.4451 17.5411C25.2266 17.5129 25.0054 17.5129 24.7869 17.5411C24.6102 17.3158 24.453 16.9518 24.3629 16.5277C24.2056 15.7705 24.2215 15.2228 24.6632 15.1521ZM23.1807 19.218C23.2797 19.0148 23.588 18.9591 23.8681 19.0978C24.1473 19.2356 24.2939 19.5122 24.1923 19.7162C24.0925 19.9195 23.7842 19.9751 23.505 19.8364C23.2258 19.6986 23.0791 19.422 23.1807 19.218ZM21.4473 18.9882C21.4022 19.0589 21.3042 19.0466 21.0966 19.0236C20.7228 18.9803 20.3438 18.9564 19.7713 19.1623C19.7713 19.1623 19.5628 19.2453 19.47 19.2453C19.445 19.2456 19.4207 19.2364 19.402 19.2197C19.3879 19.2082 19.372 19.1844 19.3702 19.1446C19.3702 19.0589 19.4453 18.9405 19.5707 18.831C19.7174 18.7038 19.9436 18.5695 20.3571 18.5041C20.9234 18.4361 21.3395 18.7011 21.4358 18.8575C21.4773 18.9237 21.4623 18.9679 21.4473 18.9882ZM18.2844 18.2081C18.2102 18.1984 18.1784 18.1657 18.1686 18.1242C18.1395 17.9943 18.34 17.7796 18.5521 17.625C19.1935 17.1638 20.024 17.064 20.7211 17.3644C21.0612 17.5093 21.3828 17.7672 21.5383 18.0226C21.6143 18.1463 21.6284 18.2417 21.5807 18.2929C21.5047 18.3724 21.3104 18.2814 20.9941 18.1427C20.6778 18.0014 20.2678 17.8476 19.7713 17.8777C19.0698 17.9219 18.4593 18.2311 18.2861 18.209L18.2844 18.2081ZM23.0994 9.62668C23.1613 9.64082 23.1993 9.53479 23.1445 9.50476C22.3432 9.05417 21.1142 8.74936 20.2422 8.74318C20.198 8.74318 20.1742 8.69282 20.2007 8.65748C20.3509 8.45516 20.5567 8.2546 20.7467 8.10971C20.7882 8.0779 20.7626 8.00899 20.7096 8.01252C19.4674 8.08939 18.0529 8.68398 17.2374 9.23794C17.1977 9.26444 17.1464 9.2291 17.1561 9.1814C17.218 8.87659 17.4194 8.47283 17.5237 8.28553C17.5484 8.24047 17.4998 8.19187 17.4548 8.21485C16.1472 8.88454 14.6868 10.0764 13.5002 11.4467C13.4587 11.4944 13.5205 11.5642 13.5727 11.5253C14.5975 10.7796 16.0014 10.0879 17.8417 9.63816C19.9029 9.13457 21.8873 9.34573 23.0994 9.62315V9.62668ZM18.6713 5.37793C18.6713 5.37793 17.3682 3.86714 16.975 3.75494C14.556 3.10115 9.32833 6.70583 5.99224 11.4679C4.64048 13.3939 2.70915 16.8051 3.63329 18.5606C3.74815 18.778 4.3931 19.3372 4.73943 19.6261C5.31724 18.7868 6.26524 18.1772 7.33869 17.9687C8.70546 14.2995 10.9875 10.9166 14.0091 8.59033C16.2532 6.72085 18.6713 5.37793 18.6713 5.37793ZM55.6405 16.7857C53.4477 16.7857 52.3627 18.5112 51.8653 19.6244C51.587 20.2463 51.5102 20.7376 51.284 20.7376C50.9659 20.7376 51.1939 20.31 50.9332 19.3646C50.5913 18.118 49.5603 16.7874 47.371 16.7874C45.0668 16.7874 44.0808 18.7329 43.6134 19.8028C43.2936 20.5335 43.2936 20.7376 43.048 20.7376C42.6911 20.7376 42.9861 20.158 43.1469 19.4751C43.4641 18.1304 43.2229 17.1037 43.2229 17.1037H39.5714V30.8324H44.5544V24.0021C44.5544 22.6539 45.1189 20.9452 46.0837 20.9452C47.2004 20.9452 47.4231 21.8022 47.4231 23.3898V30.8351H52.4272V24.0021C52.4272 22.8023 52.9176 20.9452 53.9645 20.9452C55.0954 20.9452 55.2968 22.1494 55.2968 23.3898V30.8324H60.21V22.7581C60.21 19.1764 58.9475 16.7874 55.6405 16.7874V16.7857ZM140.223 16.7857C138.03 16.7857 136.946 18.5112 136.448 19.6244C136.171 20.2463 136.093 20.7376 135.867 20.7376C135.549 20.7376 135.762 20.1951 135.517 19.3646C135.152 18.1242 134.243 16.7874 131.954 16.7874C129.665 16.7874 128.664 18.7329 128.196 19.8028C127.876 20.5335 127.876 20.7376 127.631 20.7376C127.275 20.7376 127.57 20.158 127.731 19.4751C128.047 18.1304 127.806 17.1037 127.806 17.1037H124.155V30.8324H129.138V24.0021C129.138 22.6539 129.702 20.9452 130.667 20.9452C131.783 20.9452 132.007 21.8022 132.007 23.3898V30.8351H137.011V24.0021C137.011 22.8023 137.5 20.9452 138.548 20.9452C139.679 20.9452 139.88 22.1494 139.88 23.3898V30.8324H144.794V22.7581C144.794 19.1764 143.531 16.7874 140.223 16.7874V16.7857ZM68.719 16.7892C64.9023 16.7892 62.1616 18.194 62.1616 18.194V22.3182C62.1616 22.3182 65.1867 20.5785 67.6411 20.5785C69.5989 20.5785 69.841 21.6361 69.75 22.5116C69.75 22.5116 69.1863 22.3614 67.4618 22.3614C63.4003 22.3614 61.3488 24.208 61.3488 27.1677C61.3488 29.9763 63.653 31.1487 65.5949 31.1487C68.4283 31.1487 69.6731 29.2448 70.0557 28.3427C70.3208 27.7155 70.3685 27.2931 70.6079 27.2931C70.8791 27.2931 70.7881 27.5953 70.7758 28.2208C70.7528 29.3128 70.804 30.138 70.9763 30.8333H74.7312V24.0781C74.7312 19.8603 73.239 16.7901 68.7154 16.7901H68.719V16.7892ZM67.5059 27.6227C66.3141 27.8966 65.6974 27.5308 65.6974 26.741C65.6974 25.6578 66.8168 25.2258 68.4142 25.2258C69.1174 25.2258 69.7809 25.2876 69.7809 25.2876C69.7809 25.7497 68.7755 27.3303 67.5077 27.6227H67.5059ZM87.9263 12.9469H82.9433V30.8333H87.9263V12.9469ZM93.4119 23.9694C93.4119 22.7361 94.5587 21.6114 96.6632 21.6114C98.9568 21.6114 100.802 22.7157 101.216 22.9675V18.1931C101.216 18.1931 99.759 16.7892 96.1746 16.7892C92.3985 16.7892 89.2533 18.9997 89.2533 23.7565C89.2533 28.5124 92.1079 31.1505 96.1649 31.1505C99.3349 31.1505 101.224 29.4091 101.224 29.4091V24.8732C100.626 25.2072 98.9603 26.3637 96.6853 26.3637C94.276 26.3637 93.4101 25.2558 93.4101 23.9703L93.4119 23.9694ZM111.312 16.7892C108.427 16.7892 107.33 19.5236 107.108 19.9972C106.886 20.4708 106.777 20.7438 106.596 20.7393C106.281 20.7305 106.501 20.1562 106.623 19.7869C106.854 19.0863 107.347 17.2486 107.347 14.9913C107.347 13.4593 107.14 12.9469 107.14 12.9469H102.838V30.8333H107.821V24.0039C107.821 22.8907 108.264 20.947 109.521 20.947C110.56 20.947 110.886 21.7174 110.886 23.2679V30.8324H115.869V23.5648C115.869 20.0405 115.284 16.7892 111.312 16.7892ZM117.488 17.1214V30.8333H122.471V17.1214C122.471 17.1214 121.633 17.6118 119.985 17.6118C118.336 17.6118 117.488 17.1214 117.488 17.1214ZM119.965 16.7892C121.649 16.7892 123.015 15.8978 123.015 14.7987C123.015 13.6996 121.649 12.809 119.965 12.809C118.281 12.809 116.915 13.6996 116.915 14.7987C116.915 15.8978 118.281 16.7892 119.965 16.7892ZM76.3471 17.1214V30.8333H81.33V17.1214C81.33 17.1214 80.4916 17.6118 78.8439 17.6118C77.1953 17.6118 76.3471 17.1214 76.3471 17.1214ZM78.8244 16.7892C80.5093 16.7892 81.8752 15.8978 81.8752 14.7987C81.8752 13.6996 80.5093 12.809 78.8244 12.809C77.1396 12.809 75.7737 13.6996 75.7737 14.7987C75.7737 15.8978 77.1396 16.7892 78.8244 16.7892ZM154.695 16.7857C152.133 16.7857 150.96 18.7073 150.449 19.8011C150.111 20.5238 150.129 20.7358 149.883 20.7358C149.527 20.7358 149.823 20.1562 149.983 19.4733C150.3 18.1286 150.058 17.1029 150.058 17.1029H146.408V34.6218H151.391V29.0663C151.98 30.0673 153.072 31.1355 154.756 31.1355C158.359 31.1355 160.173 28.0874 160.173 23.9677C160.173 19.2984 158 16.7857 154.695 16.7857ZM153.327 27.8824C152.184 27.8824 151.344 26.4335 151.344 24.4147C151.344 22.3959 152.208 20.947 153.288 20.947C154.674 20.947 155.265 22.2192 155.265 24.4147C155.265 26.6102 154.722 27.8824 153.327 27.8824ZM57.4437 10.0375C57.4437 11.8027 58.8556 13.0935 60.6482 13.0935C62.4417 13.0935 63.8562 11.8063 63.8562 10.0375V5.98843H62.1201V9.83077C62.1201 10.7832 61.4849 11.4211 60.6447 11.4211C59.8053 11.4211 59.1701 10.7832 59.1701 9.83077V5.98754H57.434L57.4455 10.0375H57.4437ZM68.5016 7.61053H70.5743V12.9469H72.3113V7.61053H74.3831V5.98489H68.5016V7.61053H68.5052H68.5034H68.5016ZM67.3796 5.98666H65.6426V12.9469H67.3787L67.3796 5.98666ZM50.427 7.61053H52.4997V12.9469H54.2358V7.61053H56.3093V5.98489H50.4252V7.61053H50.4288H50.427ZM41.3146 5.98666H39.5776V12.9469H41.3146V5.98666ZM49.5135 8.90221C49.5135 7.13698 48.1016 5.84707 46.3055 5.84707C44.5093 5.84707 43.0975 7.13344 43.0975 8.90221V12.9513H44.8335V9.10895C44.8335 8.15654 45.4714 7.51865 46.309 7.51865C47.1457 7.51865 47.7836 8.15654 47.7836 9.10895V12.9522H49.5196L49.5135 8.90221Z" fill="white"/>
</g>
</g>
</g>
</g>
<defs>
<clipPath id="clip0_3_52">
<rect width="160" height="35.34" fill="white" transform="translate(0.958984 0.682983)"/>
</clipPath>
<clipPath id="clip1_3_52">
<rect width="160" height="35.34" fill="white" transform="translate(0.958984 0.682983)"/>
</clipPath>
<clipPath id="clip2_3_52">
<rect width="159.913" height="35.34" fill="white" transform="translate(1.00223 0.682983)"/>
</clipPath>
</defs>
</svg>
