<svg width="161" height="39" viewBox="0 0 161 39" fill="none" xmlns="http://www.w3.org/2000/svg">
<g clip-path="url(#clip0_3_35)">
<g clip-path="url(#clip1_3_35)">
<g clip-path="url(#clip2_3_35)">
<path d="M70.0699 13.8567H74.9428V16.0294H75.0359C76.2153 14.3223 77.7361 13.3911 79.9399 13.3911C83.4161 13.3911 85.4646 15.8743 85.4646 19.4126V29.7483H80.4055V20.437C80.4055 18.7607 79.5674 17.6123 77.9225 17.6123C76.2465 17.6123 75.1289 19.009 75.1289 20.9644V29.7483H70.0699V13.8567ZM69.5184 9.60537C69.5184 7.92899 68.1596 6.57028 66.4836 6.57028C64.8077 6.57028 63.4488 7.92899 63.4488 9.60524C63.4488 11.2812 64.8077 12.6398 66.4836 12.6398C68.1596 12.6398 69.5184 11.2812 69.5184 9.60537ZM121.047 13.6273C120.902 13.6142 120.737 13.6085 120.543 13.6085C118.619 13.6085 117.315 14.4465 116.198 16.3398H116.105V13.8567H111.263V29.748H116.322V22.6094C116.322 19.3017 118.154 17.769 121.047 18.0365V13.6273ZM145.874 19.7227C143.857 19.3505 142.057 19.1953 142.057 18.0779C142.057 17.0846 143.019 16.6191 144.26 16.6191C145.657 16.6191 146.62 17.0537 146.805 18.4814H151.461C151.213 15.3467 148.792 13.3911 144.291 13.3911C140.536 13.3911 137.432 15.1293 137.432 18.4814C137.432 22.2058 140.381 22.9507 143.143 23.4164C145.253 23.7891 147.177 23.944 147.177 25.3718C147.177 26.396 146.215 26.9547 144.694 26.9547C143.169 26.9547 142.159 26.3092 141.85 24.9994H137.03C137.384 28.2662 140.251 30.2447 144.726 30.2447C148.884 30.2447 151.957 28.4446 151.957 24.9684C151.957 20.9023 148.668 20.1885 145.874 19.7227ZM128.895 16.9914C130.54 16.9914 131.719 18.2019 131.905 20.0954H125.636C125.977 18.2019 126.97 16.9914 128.895 16.9914ZM129.175 26.5821C127.094 26.5821 125.915 25.2476 125.605 23.106H137.027C137.057 19.8781 136.127 17.1157 134.233 15.3777C132.867 14.1361 131.067 13.3911 128.801 13.3911C123.96 13.3911 120.639 17.0225 120.639 21.7714C120.639 26.5821 123.867 30.2138 129.112 30.2138C131.129 30.2138 132.743 29.686 134.079 28.755C135.475 27.7927 136.406 26.4271 136.748 24.9994H131.813C131.378 25.9926 130.509 26.5821 129.175 26.5821ZM160.868 26.0008C160.633 26.0101 160.318 26.0238 160.029 26.0238C158.943 26.0238 158.26 25.7132 158.26 24.4718V17.0226H160.868V13.8566H158.26V8.82862H153.325V13.8567H151.772V17.0226H153.325V25.558C153.325 28.9724 155.436 29.9344 158.384 29.9344C159.509 29.9344 160.36 29.8501 160.868 29.751V26.0008ZM94.4994 26.0081C94.282 26.0174 94.0645 26.0226 93.847 26.0238C92.7607 26.0238 92.0778 25.7132 92.0778 24.4718V17.0226H94.4994V13.8566H92.0778V8.82862H87.1428V13.8567H85.4972V17.0226H87.1428V25.558C87.1428 28.9724 89.2534 29.9344 92.2019 29.9344C93.1997 29.9344 93.9808 29.868 94.4994 29.784V26.0081Z" fill="white"/>
<path d="M105.519 20.0954C105.333 18.2021 104.154 16.9914 102.508 16.9914C100.584 16.9914 99.591 18.2021 99.2495 20.0954H105.519ZM94.2525 21.7714C94.2525 17.0226 97.5735 13.3914 102.416 13.3914C104.681 13.3914 106.481 14.1361 107.847 15.3777C109.74 17.1158 110.671 19.878 110.64 23.1062H99.2187C99.5289 25.2475 100.708 26.5822 102.788 26.5822C104.122 26.5822 104.992 25.9926 105.426 24.9994H110.361C110.02 26.4271 109.089 27.7927 107.692 28.7551C106.357 29.686 104.743 30.2137 102.726 30.2137C97.4805 30.2137 94.2525 26.5822 94.2525 21.7714ZM55.168 17.985C57.1547 17.985 58.2718 16.8054 58.2718 15.0361C58.2718 13.2671 57.1235 12.1807 55.1681 12.1807H51.2882V17.985H55.1681H55.168ZM46.1661 7.55608H54.9516C57.6517 7.55608 59.6382 8.30088 61.004 9.60461C62.4319 10.9391 63.2387 12.8326 63.2387 15.0673C63.2387 19.3194 60.2901 22.3303 55.7274 22.3303H51.2882V29.7481H46.1661V7.55608ZM20.1197 0.21814C9.57061 0.21814 1.01863 8.77011 1.01863 19.3193C1.01863 27.4115 6.05339 34.3292 13.159 37.1124C12.992 35.6011 12.8411 33.2769 13.2251 31.6269C13.5722 30.1362 15.4649 22.1325 15.4649 22.1325C15.4649 22.1325 14.8936 20.9882 14.8936 19.2966C14.8936 16.6405 16.4331 14.6577 18.3499 14.6577C19.9796 14.6577 20.7666 15.8812 20.7666 17.3483C20.7666 18.9872 19.7232 21.4374 19.1847 23.7082C18.7347 25.6093 20.1383 27.1597 22.0133 27.1597C25.4082 27.1597 28.018 23.58 28.018 18.4129C28.018 13.8392 24.7316 10.6418 20.0392 10.6418C14.6044 10.6418 11.4142 14.7183 11.4142 18.9309C11.4142 20.5729 12.0468 22.3332 12.8359 23.29C12.9917 23.4793 13.0147 23.645 12.9682 23.8381C12.8231 24.4413 12.501 25.7388 12.4377 26.0043C12.3544 26.3539 12.1609 26.4282 11.7989 26.2595C9.41328 25.1493 7.92166 21.6614 7.92166 18.8597C7.92166 12.8345 12.2996 7.30092 20.5425 7.30092C27.1688 7.30092 32.3181 12.0227 32.3181 18.3328C32.3181 24.9158 28.1674 30.2137 22.4063 30.2137C20.4707 30.2137 18.6511 29.2081 18.0284 28.0204C18.0284 28.0204 17.0705 31.6674 16.8384 32.5611C16.407 34.2202 15.2429 36.2998 14.4642 37.5685C16.2514 38.122 18.1506 38.4202 20.1197 38.4202C30.6691 38.4202 39.2211 29.8685 39.2211 19.3193C39.2211 8.76999 30.6691 0.21814 20.1197 0.21814ZM63.9541 13.8567H69.0134V29.7483H63.9541V13.8567Z" fill="white"/>
</g>
</g>
</g>
<defs>
<clipPath id="clip0_3_35">
<rect width="160" height="38.33" fill="white" transform="translate(0.958984 0.122955)"/>
</clipPath>
<clipPath id="clip1_3_35">
<rect width="160" height="38.33" fill="white" transform="translate(0.958984 0.122955)"/>
</clipPath>
<clipPath id="clip2_3_35">
<rect width="159.959" height="38.33" fill="white" transform="translate(0.979553 0.122955)"/>
</clipPath>
</defs>
</svg>
