<svg width="33" height="33" viewBox="0 0 33 33" fill="none" xmlns="http://www.w3.org/2000/svg">
<path d="M29.084 6.40308H24.959V5.15308C24.959 4.60308 24.509 4.15308 23.959 4.15308H9.95898C9.40898 4.15308 8.95898 4.60308 8.95898 5.15308V6.40308H4.83398C4.35273 6.40308 3.95898 6.79683 3.95898 7.27808C3.95898 9.85933 4.44648 11.4031 5.37148 12.9281C6.22148 14.3281 7.42773 15.1906 8.89023 15.4468C9.06523 15.4781 9.20898 15.5906 9.27773 15.7531C9.66523 16.7156 10.5402 17.9281 12.4715 19.0156C13.734 19.7281 14.7777 20.1593 15.7027 20.3656C15.9277 20.4156 16.0902 20.6218 16.0902 20.8531V25.9031C16.0902 26.1781 15.8652 26.4031 15.5902 26.4031H11.4902C11.0215 26.4031 10.6152 26.7656 10.5902 27.2343C10.5652 27.7343 10.9652 28.1531 11.4652 28.1531H22.4402C22.909 28.1531 23.3152 27.7906 23.3402 27.3218C23.3652 26.8218 22.9652 26.4031 22.4652 26.4031H18.3402C18.0652 26.4031 17.8402 26.1781 17.8402 25.9031V20.8593C17.8402 20.6281 18.0027 20.4218 18.2277 20.3718C19.1465 20.1656 20.1965 19.7281 21.459 19.0218C23.3902 17.9343 24.2652 16.7218 24.6527 15.7593C24.7215 15.5968 24.8652 15.4781 25.0402 15.4531C26.5027 15.1968 27.709 14.3343 28.559 12.9343C29.4715 11.4031 29.959 9.85933 29.959 7.27808C29.959 6.79683 29.5652 6.40308 29.084 6.40308ZM8.95898 13.3156C8.95898 13.4906 8.78398 13.6156 8.62148 13.5531C7.82148 13.2468 7.17148 12.6343 6.70898 11.7468C6.34648 11.0593 5.92148 10.4093 5.76523 8.69683C5.74023 8.40308 5.97148 8.15308 6.26523 8.15308H8.45898C8.73398 8.15308 8.95898 8.37808 8.95898 8.65308V13.3156ZM27.209 11.7468C26.7465 12.6343 26.0965 13.2468 25.2965 13.5531C25.134 13.6156 24.959 13.4906 24.959 13.3156V8.65308C24.959 8.37808 25.184 8.15308 25.459 8.15308H27.6527C27.9465 8.15308 28.1777 8.40308 28.1527 8.69683C27.9965 10.4093 27.5652 11.0593 27.209 11.7468Z" fill="#9CEAEC"/>
</svg>
