<svg width="161" height="41" viewBox="0 0 161 41" fill="none" xmlns="http://www.w3.org/2000/svg">
<g clip-path="url(#clip0_3_44)">
<g clip-path="url(#clip1_3_44)">
<g clip-path="url(#clip2_3_44)">
<mask id="mask0_3_44" style="mask-type:luminance" maskUnits="userSpaceOnUse" x="0" y="1" width="161" height="39">
<path d="M0.958984 1.03198H160.959V39.951H0.958984V1.03198Z" fill="white"/>
</mask>
<g mask="url(#mask0_3_44)">
<path d="M25.669 24.6C25.669 25.228 25.155 25.798 24.47 25.798H16.253C15.9356 25.7964 15.6317 25.6697 15.4073 25.4454C15.1828 25.2211 15.0558 24.9173 15.054 24.6V16.383C15.054 15.755 15.568 15.184 16.253 15.184H24.47C25.098 15.184 25.668 15.698 25.668 16.383L25.669 24.6ZM32.745 30.763C32.7462 31.0332 32.6938 31.3009 32.591 31.5508C32.4881 31.8007 32.3368 32.0277 32.1457 32.2188C31.9547 32.4098 31.7277 32.5611 31.4778 32.664C31.2279 32.7668 30.9602 32.8192 30.69 32.818H10.09C9.81978 32.8192 9.55202 32.7668 9.30216 32.664C9.0523 32.5611 8.82529 32.4098 8.63422 32.2188C8.44316 32.0277 8.29184 31.8007 8.18899 31.5508C8.08613 31.3009 8.03379 31.0332 8.03498 30.763V10.163C8.03498 9.02099 8.94798 8.10799 10.09 8.10799H30.69C31.832 8.10799 32.745 9.02099 32.745 10.162V30.763ZM33.315 1.03299H7.40698C3.86898 1.03199 0.958984 3.94199 0.958984 7.53699V33.445C0.958984 36.983 3.86898 39.951 7.46498 39.951H33.372C36.911 39.951 39.878 37.041 39.878 33.445V7.53699C39.821 3.94299 36.911 1.03299 33.315 1.03299ZM58.647 32.743C56.253 32.743 53.918 31.872 52.243 30.402C50.806 29.095 49.968 27.352 49.968 25.555H52.422C52.422 26.753 52.961 27.951 53.978 28.822C55.175 29.912 56.851 30.511 58.647 30.511C62.058 30.511 64.812 28.332 64.812 25.664C64.812 23.649 63.615 22.07 57.689 20.818C55.295 20.328 53.679 19.62 52.542 18.694C51.405 17.659 50.806 16.298 50.806 14.555C50.806 11.07 54.218 8.23899 58.467 8.23899C60.502 8.23899 62.417 8.89199 63.854 10.036C65.35 11.234 66.188 12.813 66.188 14.556H63.734C63.734 12.323 61.4 10.471 58.467 10.471C55.654 10.471 53.26 12.323 53.26 14.555C53.26 16.57 54.038 17.768 58.228 18.639C62.717 19.565 67.266 21.144 67.266 25.664C67.266 27.57 66.368 29.367 64.692 30.728C63.136 32.035 60.981 32.743 58.647 32.743ZM79.603 16.118C75.42 16.118 72.383 19.347 72.383 23.632C72.383 27.858 75.477 30.97 79.603 30.97C83.615 30.97 86.709 27.624 86.709 23.573C86.709 19.523 83.615 16.118 79.603 16.118ZM86.594 39.951V29.443H86.537C84.99 31.85 82.411 33.083 79.661 33.083C74.331 33.083 70.148 28.973 70.148 23.514C70.148 18.055 74.446 14.004 79.661 14.004C82.411 14.004 85.047 15.237 86.537 17.644H86.594V14.474H88.887V39.951H86.594ZM120.05 16.08C115.855 16.08 112.808 19.252 112.808 23.46C112.808 27.612 115.912 30.668 120.05 30.668C124.074 30.668 127.178 27.381 127.178 23.403C127.12 19.425 124.074 16.081 120.05 16.081V16.08ZM127.005 32.282V29.169H126.948C125.396 31.533 122.81 32.744 120.05 32.744C114.704 32.744 110.509 28.765 110.509 23.345C110.509 17.983 114.819 14.005 120.05 14.005C122.867 14.005 125.454 15.158 126.948 17.58H127.005V14.466H129.247V32.282H127.005ZM136.274 22.044V32.744H133.571V14.478H136.274V17.138H136.341C137.491 14.773 139.517 14.182 142.22 14.005V16.488C138.572 16.724 136.274 18.793 136.274 22.044ZM152.257 16.138C148.926 16.138 146.293 18.733 145.81 22.25H158.756C158.219 18.733 155.587 16.138 152.257 16.138ZM160.905 24.268H145.81C145.972 27.785 148.98 30.725 152.257 30.725C154.781 30.725 157.306 29.169 158.219 26.517H160.475C159.24 30.207 155.963 32.744 152.31 32.744C147.529 32.744 143.662 28.534 143.662 23.403C143.662 18.329 147.529 14.005 152.257 14.005C157.091 14.005 160.959 18.387 160.959 23.576C160.959 23.806 160.905 24.037 160.905 24.268ZM105.411 32.273V29.443H105.353C104.303 31.683 101.971 32.743 99.581 32.743C97.25 32.743 94.859 31.919 93.344 29.974C92.062 28.324 91.77 26.144 91.77 24.081V14.005H94.102V24.081C94.102 27.853 95.442 30.622 99.582 30.622C101.097 30.622 102.321 30.21 103.428 29.149C105.002 27.617 105.294 25.79 105.294 23.669V14.005H107.626V32.272L105.411 32.273Z" fill="white"/>
</g>
</g>
</g>
</g>
<defs>
<clipPath id="clip0_3_44">
<rect width="160" height="40" fill="white" transform="translate(0.958984 0.292969)"/>
</clipPath>
<clipPath id="clip1_3_44">
<rect width="160" height="40" fill="white" transform="translate(0.958984 0.292969)"/>
</clipPath>
<clipPath id="clip2_3_44">
<rect width="160" height="40" fill="white" transform="translate(0.958984 0.292969)"/>
</clipPath>
</defs>
</svg>
