<svg width="161" height="33" viewBox="0 0 161 33" fill="none" xmlns="http://www.w3.org/2000/svg">
<g clip-path="url(#clip0_3_319)">
<g clip-path="url(#clip1_3_319)">
<g clip-path="url(#clip2_3_319)">
<path fill-rule="evenodd" clip-rule="evenodd" d="M109.374 0.948014C102.691 1.55366 97.9138 4.77835 95.6503 10.2145C94.2426 13.5983 94.098 18.6237 95.3093 22.1423C97.576 28.7265 103.801 32.638 111.469 32.297C115.724 32.107 118.144 31.1588 120.871 28.6128C123.942 25.7453 125.367 22.131 125.367 17.2062C125.367 15.1945 125.342 14.9996 125.027 14.7155C124.702 14.4216 124.336 14.407 117.462 14.407H110.239L109.918 14.8031C109.622 15.1669 109.601 15.4072 109.648 17.7583C109.684 19.5801 109.76 20.3773 109.91 20.5283C110.062 20.681 110.998 20.7622 113.271 20.8206L116.422 20.9018L116.122 21.574C115.658 22.6099 114.763 23.4851 113.639 24.0047C112.694 24.4415 112.485 24.474 110.675 24.4707C109.044 24.4675 108.58 24.409 107.833 24.107C105.971 23.3552 104.371 21.6422 103.706 19.684C103.322 18.5604 103.179 15.7059 103.443 14.4378C104.303 10.2908 108.249 7.88288 112.53 8.89283C113.86 9.20621 115.005 9.86544 116.026 10.9062C116.603 11.494 116.958 11.7278 117.273 11.7278C117.897 11.7278 122.904 8.24984 123.036 7.72539C123.289 6.71381 120.401 3.95837 117.656 2.59608C115.171 1.36206 111.935 0.717447 109.376 0.949638L109.374 0.948014ZM142.194 1.11201C135.767 2.44995 130.875 7.35031 129.656 13.6714C129.362 15.1977 129.36 18.0408 129.656 19.5687C131.486 29.0837 141.429 34.7017 150.579 31.391C154.395 30.0092 158.032 26.5669 159.623 22.8291C162.365 16.383 160.508 8.76294 155.141 4.44549C153.225 2.90459 151.454 2.00505 148.992 1.32634C147.463 0.904174 143.754 0.787266 142.194 1.11201ZM1.35166 1.61049C1.00094 1.85729 0.991199 1.9466 0.991199 4.90825C0.991199 7.28049 1.04153 8.02252 1.22177 8.2677C1.43772 8.56322 1.64068 8.53237 5.60579 8.53237H9.67968V19.9568C9.75924 31.0175 9.76574 31.24 10.084 31.5582C10.3909 31.8651 10.6247 31.883 14.2244 31.883C17.8242 31.883 18.058 31.8651 18.3649 31.5582C18.6832 31.24 18.6897 31.0175 18.6101 19.9568V8.53237H22.8431C26.7368 8.39598 27.0112 8.56322 27.2271 8.2677C27.4057 8.02252 27.4577 7.29023 27.4577 4.97969C27.4577 2.22263 27.4333 1.98232 27.133 1.68193C26.8147 1.36368 26.4753 1.46923 14.1433 1.46923C3.05007 1.46923 1.67153 1.38642 1.35166 1.61049ZM36.5359 1.6527C36.2144 1.83131 35.9432 2.33142 35.3733 3.80087C30.1904 17.1754 25.0205 30.8308 25.0205 31.149C25.0205 31.9171 25.1472 31.9398 29.4825 31.9398C32.725 31.9398 33.6213 31.8927 33.8811 31.7108C34.0776 31.5745 34.5582 30.5645 35.0826 29.1941L35.9562 26.9063H47.1972L48.0593 29.1389C48.5335 30.3664 49.0693 31.4998 49.2479 31.6556C49.5402 31.9106 50.0029 31.9398 53.6774 31.9398C58.0939 31.9398 58.1978 31.9203 58.1751 31.0873C58.1604 30.5531 47.1809 2.07325 46.8692 1.75987C46.6386 1.5293 45.9924 1.49033 41.7788 1.45786C37.8478 1.42701 36.8752 1.46273 36.5342 1.6527H36.5359ZM61.6368 1.68193C61.3169 2.0018 61.3121 2.22263 61.3121 16.6769C61.3121 31.1312 61.3251 31.3585 61.6092 31.615C61.8674 31.8489 62.387 31.883 65.5565 31.883C68.4515 31.883 69.2715 31.8359 69.5216 31.6524C69.8236 31.4316 69.8398 31.1036 69.9177 23.464L69.9989 15.4413L76.5425 23.4673C80.1423 27.8805 83.2338 31.5956 83.4124 31.7206C83.6625 31.896 84.4467 31.9479 86.7865 31.9479C89.5322 31.9479 89.8618 31.9187 90.1054 31.6491C90.3538 31.3747 90.3765 30.0888 90.3765 16.5194V1.86541L90.0128 1.61049C89.7108 1.39778 89.0467 1.35557 86.0964 1.35557C82.8441 1.35557 82.5129 1.38154 82.1573 1.66894L81.7708 1.98232L81.6085 9.85569L81.5273 17.7323L75.1461 9.72904C71.6356 5.32716 68.583 1.64296 68.359 1.54229C68.1024 1.42538 66.8506 1.35719 64.9573 1.35719C62.1775 1.35719 61.9372 1.37992 61.6368 1.68193ZM43.3766 14.7788C44.3102 17.5164 45.0977 19.8545 45.1269 19.9747C45.1691 20.1516 44.505 20.1922 41.584 20.1922C38.6629 20.1922 37.9988 20.1484 38.041 19.9844C38.2278 19.244 41.5207 9.80211 41.5921 9.80049C41.6408 9.80049 42.4445 12.0396 43.3782 14.7788H43.3766ZM138.635 13.4571C141.988 14.8583 147.541 14.9184 151.212 13.5935C151.842 13.3662 152.412 13.2411 152.479 13.3158C152.993 13.8906 153.287 16.8036 152.979 18.2844C152.214 21.9556 148.944 24.5746 145.125 24.5746C142.381 24.5746 139.903 23.287 138.516 21.1421C137.104 18.955 136.792 16.6493 137.539 13.8792C137.74 13.1291 137.799 13.1064 138.635 13.4571Z" fill="#F15C22"/>
</g>
</g>
</g>
<defs>
<clipPath id="clip0_3_319">
<rect width="160" height="31.5" fill="white" transform="translate(0.958984 0.90332)"/>
</clipPath>
<clipPath id="clip1_3_319">
<rect width="160" height="31.5" fill="white" transform="translate(0.958984 0.90332)"/>
</clipPath>
<clipPath id="clip2_3_319">
<rect width="159.936" height="31.5" fill="white" transform="translate(0.991199 0.90332)"/>
</clipPath>
</defs>
</svg>
