<svg width="60" height="33" viewBox="0 0 60 33" fill="none" xmlns="http://www.w3.org/2000/svg">
<g opacity="0.7" clip-path="url(#clip0_3_361)">
<g clip-path="url(#clip1_3_361)">
<g clip-path="url(#clip2_3_361)">
<path d="M53.749 16.9357C53.749 16.89 53.738 16.8434 53.7126 16.7986C53.3766 16.184 51.5195 12.7247 47.0419 12.7238C44.0641 12.7238 41.6721 14.4649 40.377 16.7986C40.3525 16.8417 40.3415 16.8874 40.3415 16.9315C40.3415 17.0686 40.4464 17.1888 40.581 17.1896H53.5078C53.6466 17.1896 53.749 17.0703 53.749 16.9357ZM59.289 20.3197C59.289 20.5644 59.2788 20.8056 59.2661 21.0451C59.2534 21.2246 59.0926 21.3744 58.9106 21.3744H39.8963C39.7151 21.3744 39.5805 21.5056 39.5805 21.6757L39.5865 21.7392C40.2535 25.2511 43.337 27.9165 47.0419 27.9174C48.9311 27.9174 50.6587 27.2182 51.9859 26.073C52.1273 25.9528 52.3956 25.8436 52.581 25.8444H57.652C57.7848 25.8461 57.8526 25.9096 57.8534 26.0019C57.8534 26.0374 57.8433 26.078 57.8196 26.1221C55.7492 29.9564 51.6939 32.5668 47.0419 32.5668C43.6638 32.5668 40.6022 31.1939 38.3854 28.9762C36.1677 26.7586 34.7948 23.697 34.7948 20.3197C34.7948 17.0491 36.0695 13.974 38.3803 11.6598C40.6928 9.34908 43.7704 8.07434 47.0419 8.07434C50.4183 8.07434 53.4799 9.44726 55.6975 11.6649C57.9152 13.8826 59.289 16.9433 59.289 20.3197ZM31.3506 0.784833H27.3521C27.1582 0.784833 27.0033 0.940577 27.0033 1.13272V32.2401C27.0033 32.4331 27.1582 32.588 27.3521 32.588H31.3506C31.5411 32.588 31.6968 32.4331 31.6968 32.2401V1.13272C31.6968 0.940577 31.5411 0.784833 31.3506 0.784833ZM20.6949 0.763672C19.2068 0.763672 18.0015 1.96815 18.0015 3.45619C18.0015 4.94253 19.2068 6.15209 20.6949 6.15209C22.1837 6.15209 23.3874 4.94253 23.3874 3.45619C23.3874 1.96815 22.1837 0.763672 20.6949 0.763672ZM22.695 8.0371H18.6939C18.5009 8.0371 18.3468 8.19369 18.3468 8.38498V32.2443C18.3468 32.4373 18.5009 32.5922 18.6939 32.5922H22.695C22.8863 32.5922 23.0412 32.4373 23.0412 32.2443V8.38498C23.0412 8.19369 22.8863 8.0371 22.695 8.0371ZM14.6073 8.38583V12.3844C14.6073 12.5748 14.4515 12.7306 14.2594 12.7306H4.97907V20.3197C4.97907 24.4986 8.37667 27.8962 12.5555 27.8962H14.2594C14.4524 27.8962 14.6073 28.0528 14.6073 28.2424V32.2401C14.6073 32.4331 14.4524 32.588 14.2594 32.588H12.5555C5.79165 32.588 0.288971 27.0853 0.288971 20.3197V1.13187C0.288971 0.939731 0.444715 0.784833 0.635163 0.784833H4.63288C4.82672 0.784833 4.97907 0.939731 4.97907 1.13187V8.0371H14.2594C14.4515 8.0371 14.6073 8.192 14.6073 8.38583ZM57.7087 31.2269H58.1768L58.4992 32.1089L58.8217 31.2269H59.289V32.5838H58.9538V31.7009H58.947L58.6144 32.5838H58.3841L58.0515 31.7009H58.0447V32.5838H57.7087V31.2269ZM56.6616 31.5232H56.2596V31.2269H57.3989V31.5232H56.9977V32.5838H56.6616V31.5232Z" fill="white"/>
</g>
</g>
</g>
<defs>
<clipPath id="clip0_3_361">
<rect width="59" height="31.83" fill="white" transform="translate(0.288971 0.763184)"/>
</clipPath>
<clipPath id="clip1_3_361">
<rect width="59" height="31.83" fill="white" transform="translate(0.288971 0.763184)"/>
</clipPath>
<clipPath id="clip2_3_361">
<rect width="59" height="31.8285" fill="white" transform="translate(0.288971 0.763672)"/>
</clipPath>
</defs>
</svg>
