<svg width="161" height="37" viewBox="0 0 161 37" fill="none" xmlns="http://www.w3.org/2000/svg">
<g clip-path="url(#clip0_3_66)">
<g clip-path="url(#clip1_3_66)">
<g clip-path="url(#clip2_3_66)">
<mask id="mask0_3_66" style="mask-type:luminance" maskUnits="userSpaceOnUse" x="1" y="0" width="160" height="37">
<path d="M1.13127 0.752106H160.109V36.0809H1.13127V0.752106Z" fill="white"/>
</mask>
<g mask="url(#mask0_3_66)">
<path d="M118.812 35.0029H125.771V22.2966C125.771 19.3903 127.456 17.3484 129.96 17.3484C132.368 17.3484 133.62 19.0544 133.62 21.457V35.0029H140.58V20.1355C140.58 15.0919 137.546 11.5367 132.634 11.5367C129.503 11.5367 127.311 12.8821 125.673 15.3313H125.529V12.2084H118.787V35.0019L118.812 35.0029ZM105.134 11.5844C97.8603 11.5844 92.9976 16.7969 92.9976 23.6668C92.9976 30.4869 97.8613 35.7471 105.134 35.7471C112.406 35.7471 117.27 30.4869 117.27 23.6648C117.27 16.7731 112.406 11.5844 105.134 11.5844ZM105.086 30.5823C101.787 30.5823 100.028 27.82 100.028 23.6419C100.028 19.4141 101.762 16.7005 105.086 16.7005C108.385 16.7005 110.214 19.4141 110.214 23.6419C110.214 27.821 108.385 30.5823 105.086 30.5823ZM73.1552 35.0029H92.7084V29.5261H81.6307V29.382L92.2275 17.5421V12.2094H73.1552V17.6842H83.8703V17.8293L73.1552 29.7665V35.0029ZM64.2206 35.0029H71.2286V12.2094H64.2216L64.2206 35.0029ZM47.9671 35.0029H54.9264V24.5302C54.9264 19.7748 57.792 17.6614 62.1499 18.2615H62.294V12.2571C61.9323 12.114 61.5488 12.0882 60.8731 12.0882C58.1526 12.0882 56.3224 13.3382 54.7575 16.004H54.6134V12.2084H47.9671V35.0029ZM35.1565 30.631C32.0743 30.631 30.1964 28.6139 29.8347 25.5636H46.3048C46.3545 20.6631 45.0529 16.7482 42.3324 14.299C40.4057 12.5204 37.878 11.5367 34.6517 11.5367C27.763 11.5367 22.9967 16.7482 22.9967 23.5694C22.9967 30.4392 27.5474 35.6745 35.1088 35.6745C37.9734 35.6745 40.2368 34.9293 42.1157 33.6327C44.1129 32.2396 45.5586 30.2464 45.9441 28.2533H39.2502C38.6003 29.7417 37.2033 30.631 35.1565 30.631ZM34.7948 16.5078C37.251 16.5078 38.9382 18.333 39.2263 20.9989H29.8824C30.412 18.3102 31.9054 16.5078 34.7948 16.5078ZM9.07818 35.0029H16.3991L24.345 12.2094H17.3381L12.8589 26.8602H12.7625L8.2823 12.2094H1.13227L9.07818 35.0029ZM64.2206 4.09162H71.2286V10.2878H64.2216V4.09063L64.2206 4.09162ZM140.483 12.1856H144.047L147.61 19.8235L156.52 0.751099H160.109L149.393 23.6409H145.829L140.483 12.1846V12.1856Z" fill="white"/>
</g>
</g>
</g>
</g>
<defs>
<clipPath id="clip0_3_66">
<rect width="160" height="35.77" fill="white" transform="translate(0.958984 0.462952)"/>
</clipPath>
<clipPath id="clip1_3_66">
<rect width="160" height="35.77" fill="white" transform="translate(0.958984 0.462952)"/>
</clipPath>
<clipPath id="clip2_3_66">
<rect width="159.971" height="35.77" fill="white" transform="translate(0.973289 0.462952)"/>
</clipPath>
</defs>
</svg>
