<svg width="149" height="41" viewBox="0 0 149 41" fill="none" xmlns="http://www.w3.org/2000/svg">
<g clip-path="url(#clip0_3_130)">
<g clip-path="url(#clip1_3_130)">
<path d="M4.93805 32.0059L5.15701 32.0788C7.80882 32.9304 10.6066 31.568 11.4338 29.0864L14.4019 19.4037C15.2048 16.9222 13.7207 14.1974 11.0689 13.3459L10.85 13.2729C8.19808 12.4214 5.40029 13.7838 4.57312 16.2653L1.5807 25.948C0.802189 28.4296 2.28623 31.1544 4.93805 32.0059Z" fill="#084F99"/>
<mask id="mask0_3_130" style="mask-type:alpha" maskUnits="userSpaceOnUse" x="24" y="1" width="23" height="40">
<path d="M24.0847 1.13293H46.6374V40.0343H24.0847V1.13293Z" fill="white"/>
</mask>
<g mask="url(#mask0_3_130)">
<path d="M36.6873 4.56324C37.2225 3.24949 38.2443 2.20337 39.5093 1.59515C39.5824 1.57082 39.631 1.5465 39.704 1.52217C39.7283 1.49784 39.777 1.49784 39.8013 1.47351C40.7988 1.08425 41.9179 1.01127 42.9884 1.35187L43.2073 1.42485C45.8591 2.27635 47.2459 5.26877 46.3213 8.11521L39.0714 32.5654C37.1738 38.1853 31.189 41.1047 26.007 39.645C26.007 39.645 24.6203 39.2314 24.0364 38.8178C29.2184 37.723 35.6654 7.04475 36.6873 4.56324Z" fill="#5EB7FF"/>
</g>
<path d="M5.7652 35.2173L5.98416 35.2903C7.07895 35.6308 8.22239 35.6795 9.34154 35.4119C9.51178 35.3875 9.6821 35.3389 9.85242 35.2659C11.969 34.5847 13.818 32.8574 14.5965 30.4489L20.2408 11.8619C21.1653 9.03973 24.0846 7.40973 26.7121 8.23691L26.9311 8.3099C29.5829 9.16141 30.9697 12.1538 30.0452 15.0003C30.0452 15.0003 24.6929 32.6141 23.9387 34.0982C18.4648 43.9999 8.19806 39.1585 5.27863 35.0227C5.4246 35.0956 5.5949 35.1686 5.7652 35.2173Z" fill="#1479FB"/>
<path d="M126.751 15.8275L126.776 15.7302C126.776 15.6572 126.751 15.5842 126.727 15.5356C126.581 15.2436 125.754 14.6597 124.416 14.5381C124.294 14.5381 124.173 14.5138 124.075 14.5138C123.126 14.5138 122.08 14.903 121.862 15.3166L121.837 15.3652L116.387 28.7703L111.133 15.3166C110.914 14.903 109.673 14.4651 108.748 14.4651C108.699 14.4651 108.602 14.4651 108.53 14.4651C108.383 14.4651 108.262 14.4408 108.116 14.4651C106.802 14.6111 106.34 15.1706 106.17 15.4869C106.145 15.5599 106.121 15.6085 106.121 15.6816V15.7788C106.34 16.314 113.468 34.0983 113.858 35.0714L113.882 35.0957C114.149 35.3876 115.511 35.8256 116.387 35.8256C117.263 35.8256 118.553 35.5093 118.82 35.1931L118.845 35.1687L126.751 15.9005C126.727 15.8761 126.751 15.8275 126.751 15.8275ZM99.9416 28.1621C99.9416 29.5488 99.6008 30.5463 98.968 30.9599C98.4328 31.2761 97.4112 31.6654 95.6112 31.6654H95.416C93.8832 31.6654 92.6912 31.3735 91.864 30.8139C91.232 30.376 90.8664 29.7678 90.8664 29.1352C90.8664 27.2376 91.9368 26.897 95.124 26.824H99.9416V28.1621ZM104.369 35.0471C104.394 34.9984 104.418 34.9254 104.418 34.8524V21.3744C104.394 18.8199 103.566 16.9952 101.961 15.9492C100.428 14.9516 98.36 14.4651 95.8296 14.4651H95.392C92.132 14.4651 89.188 15.6328 87.704 17.4819C87.68 17.5062 87.6552 17.5548 87.6552 17.6035C87.4848 18.1387 88.1904 18.9659 88.9448 19.5011C89.6016 19.9634 90.2832 20.2796 90.7696 20.2796C90.8664 20.2553 91.3048 19.9634 91.4016 19.8904C91.8888 19.4281 93.2512 18.309 95.0272 18.2847L95.8056 18.2604C97.2896 18.2604 98.7248 18.9416 99.3816 19.5984C99.7712 19.9877 99.9656 20.4986 99.9416 21.1555V23.1504H93.4944C91.256 23.1748 89.5288 23.7829 88.3608 24.9751C87.1928 26.1428 86.5848 27.6268 86.5848 29.3785C86.5848 31.2275 87.2664 32.7602 88.604 33.928C89.9424 35.1931 92.716 35.7769 94.9056 35.8012C96.316 35.8012 97.46 35.631 98.2624 35.266C98.7488 35.0714 99.1872 34.8038 99.528 34.4632L99.9168 34.074V34.8524C99.9168 34.9254 99.9416 34.9984 99.9656 35.0471C100.209 35.558 101.279 35.7769 102.155 35.7769C103.031 35.7769 104.15 35.558 104.369 35.0471ZM132.274 22.5422C132.542 20.5229 133.174 19.6471 134.026 18.9416C134.926 18.236 135.996 18.0657 137.554 18.0171C138.867 17.9684 140.522 18.528 141.275 19.2578C142.006 20.012 142.443 21.0824 142.565 22.4936L142.59 22.7368L132.226 22.8098L132.274 22.5422ZM146.846 32.3709C146.993 31.8114 146.263 30.9599 145.533 30.4247C144.901 29.9624 144.219 29.6704 143.684 29.6461C143.392 29.6461 143.198 29.7921 143.149 29.8408C141.859 31.0085 140.424 31.5924 138.818 31.5924C137.383 31.5924 134.902 31.1059 133.953 30.1814C133.004 29.3299 132.42 28.0648 132.347 26.7024L132.322 26.4591H132.566C132.687 26.4591 145.971 26.6537 146.19 26.6537C146.409 26.6537 146.603 26.5564 146.75 26.3861C147.358 25.7292 147.382 23.9046 147.309 22.9315V22.9071C147.285 20.0364 146.36 17.7495 144.609 16.1195C142.784 14.4408 139.67 13.492 136.458 13.6623C135.169 13.7352 134.171 13.9056 133.247 14.2218C132.128 14.6111 131.106 15.2436 130.279 16.0708C129.403 16.9223 128.698 18.0657 128.138 19.5255C127.603 20.9365 127.311 22.7612 127.311 24.8777C127.311 27.0916 127.627 28.9163 128.26 30.303C128.844 31.7627 129.622 32.9305 130.546 33.7333C131.009 34.1226 131.544 34.4632 132.079 34.7064C134.342 35.9229 136.458 36.0688 137.991 36.1662H138.113C138.234 36.1662 142.882 36.2878 146.725 32.4926C146.798 32.4926 146.822 32.4439 146.846 32.3709ZM79.7972 35.0957C80.2108 34.0496 85.7336 16.0464 85.904 15.4869L85.928 15.3652C85.928 15.2923 85.904 15.2193 85.8792 15.1706C85.7824 14.976 84.9552 14.2461 83.5192 14.0759C83.3736 14.0515 83.2032 14.0516 83.0328 14.0516C82.0112 14.0516 80.916 14.4164 80.7216 14.8057L80.6976 14.8544L76.8048 28.5756L71.7688 14.8057C71.6228 14.3921 70.6254 14.0028 69.7495 14.0028C68.8494 14.0028 67.7546 14.4164 67.6086 14.8057L63.2538 28.3567L59.0936 14.9516L59.0693 14.8787C58.8746 14.4894 57.7798 14.0272 56.7338 14.0272C56.6364 14.0272 56.2472 14.0759 56.0282 14.0759L55.8336 14.1002C54.4712 14.2218 53.9846 14.8787 53.863 15.1463C53.8386 15.2193 53.8143 15.2923 53.8143 15.3652V15.4139V15.4383L60.2614 35.0714C60.456 35.5093 62.0617 35.8012 63.0835 35.8012C64.1296 35.8012 65.8326 35.5336 66.1489 35.0957L69.8955 22.7125L74.3476 35.0714C74.5422 35.5093 76.1479 35.8012 77.1698 35.8012C78.2889 35.8012 79.6026 35.558 79.7972 35.0957Z" fill="#2B2B2B"/>
</g>
</g>
<defs>
<clipPath id="clip0_3_130">
<rect width="148" height="40" fill="white" transform="translate(0.618958 0.733032)"/>
</clipPath>
<clipPath id="clip1_3_130">
<rect width="148" height="40" fill="white" transform="translate(0.618958 0.733032)"/>
</clipPath>
</defs>
</svg>
