<svg width="161" height="26" viewBox="0 0 161 26" fill="none" xmlns="http://www.w3.org/2000/svg">
<g clip-path="url(#clip0_3_24)">
<g clip-path="url(#clip1_3_24)">
<g clip-path="url(#clip2_3_24)">
<path fill-rule="evenodd" clip-rule="evenodd" d="M24.3469 3.21503C24.9816 3.35664 25.537 3.73798 25.8972 4.27941C26.2518 4.81193 26.4297 5.54973 26.4297 6.50214C26.4297 7.50187 26.2704 8.51027 25.9625 9.53732C25.6096 10.6713 25.1628 11.7739 24.6269 12.8338L23.9917 14.2347L20.8726 6.6701C20.6092 6.03446 20.4365 5.36499 20.3594 4.6813C20.3594 3.85952 20.8072 3.37365 21.7223 3.21503V2.98176H12.4115V3.21503C12.7667 3.28035 13.0747 3.39232 13.3359 3.53228C13.5885 3.68224 13.8405 3.93417 14.0737 4.29874C14.2983 4.66264 14.5603 5.1945 14.8488 5.89497L16.3431 9.3787L13.7098 14.6273L9.78755 5.51241C9.68309 5.33693 9.60156 5.14878 9.54495 4.95256C9.50305 4.80349 9.48108 4.64953 9.47963 4.49469C9.47963 4.22343 9.57294 3.97149 9.75956 3.74755C9.94617 3.52295 10.2261 3.34566 10.5813 3.2057V2.97243H1.09323V3.2057C1.8397 3.42964 2.52218 3.85886 3.11935 4.47602C3.72652 5.09186 4.31503 6.04493 4.8942 7.31526L10.9172 20.7909H11.1792L16.6044 9.95788L21.2558 20.7816H21.517L27.0456 8.80885C27.6389 7.44361 28.3845 6.14976 29.2683 4.9519C29.8275 4.2049 30.5578 3.6029 31.3977 3.19637V2.96243H24.3463V3.21436L24.3469 3.21503Z" fill="white"/>
<path d="M39.5502 15.0845C38.9437 16.6161 37.6173 17.3819 35.5626 17.3819C35.0021 17.4107 34.4419 17.319 33.9199 17.1128C33.3979 16.9067 32.9262 16.5909 32.5367 16.1869C31.8269 15.4204 31.4537 14.272 31.4164 12.7591H39.7274V12.6005C39.7274 11.5361 39.4475 10.6024 38.9063 9.80792C38.3475 9.00347 37.5876 8.35957 36.7023 7.94042C35.7685 7.50121 34.7408 7.27727 33.5831 7.27727C32.3959 7.26384 31.2252 7.5565 30.184 8.12704C29.1236 8.7019 28.2434 9.55975 27.6415 10.6051C27.0397 11.6505 26.7397 12.8424 26.7749 14.0481C26.7749 15.3091 27.0549 16.4295 27.6154 17.4005C28.1737 18.3657 28.9882 19.1577 29.9687 19.6886C30.9685 20.2491 32.1168 20.5104 33.3958 20.5104C35.1147 20.5104 36.515 20.0718 37.6173 19.1754C38.799 18.1342 39.5813 16.7142 39.8301 15.1591L39.5502 15.0845ZM31.9589 8.87417C32.3228 8.05239 32.8453 7.6325 33.5464 7.6325C33.7802 7.62802 34.0108 7.68624 34.2144 7.80111C34.418 7.91597 34.5871 8.08329 34.7041 8.28566C34.8254 8.47228 34.9287 8.69688 35.022 8.93949C35.106 9.19208 35.1713 9.52799 35.2087 9.94855C35.2553 10.3778 35.274 10.9383 35.274 11.6481V12.2926H31.4257C31.4257 11.5081 31.4723 10.8543 31.5563 10.3311C31.6496 9.7426 31.7903 9.2574 31.9589 8.87417ZM54.3162 18.4469C54.2328 18.5226 54.1285 18.5714 54.0169 18.5869L53.7277 18.6055C53.5941 18.6145 53.4608 18.5838 53.3445 18.5175C53.2282 18.4511 53.1341 18.3519 53.0738 18.2323C52.9432 17.9797 52.8779 17.4845 52.8779 16.7374V10.6857C52.8779 9.47201 52.616 8.60358 52.1028 8.05306C51.5889 7.49188 50.7671 7.22128 49.6368 7.22128C47.4525 7.25985 45.3023 7.76955 43.3331 8.71555C42.5219 9.07084 41.7841 9.57444 41.1577 10.2005C40.7026 10.6512 40.4384 11.2598 40.4199 11.9C40.4199 12.4419 40.6065 12.8618 40.9611 13.1797C41.3257 13.5063 41.8015 13.6655 42.3807 13.6655C42.6985 13.6624 43.0123 13.5944 43.3029 13.4659C43.5935 13.3373 43.8549 13.1508 44.0709 12.9177C44.3291 12.6406 44.5283 12.3141 44.6567 11.9579C44.7852 11.6016 44.84 11.223 44.8181 10.845V10.4058C44.8181 9.61264 45.0047 9.01413 45.3506 8.60358C45.6958 8.20168 46.135 7.99707 46.6489 7.99707C47.0595 7.99707 47.3954 8.09905 47.6666 8.29499C47.9279 8.49161 48.1332 8.83685 48.2551 9.32271C48.3858 9.79925 48.4418 10.4711 48.4418 11.3395V12.6565C47.1434 13.0584 45.9951 13.4409 44.9867 13.8335C43.847 14.272 42.8939 14.7019 42.1475 15.1405C40.9611 15.8036 40.3726 16.6721 40.3726 17.7184C40.3726 18.5496 40.6992 19.2127 41.363 19.7072C42.0162 20.2118 42.8853 20.4544 43.9496 20.4544C44.8963 20.4749 45.8342 20.2702 46.6862 19.8572C47.3394 19.53 47.9466 19.0161 48.5071 18.2976C48.6377 19.0254 48.8803 19.5486 49.2542 19.8845C49.7254 20.2971 50.3379 20.511 50.9631 20.4824C51.6476 20.4904 52.3228 20.3234 52.9245 19.9972C53.534 19.6599 54.0604 19.1908 54.4655 18.6242L54.3162 18.4469ZM46.9568 18.6802C45.9764 18.6802 45.4906 18.0077 45.4906 16.6627C45.4906 15.7663 45.7618 15.0285 46.2937 14.45C46.7422 13.9548 47.4707 13.5156 48.4511 13.1237V16.8593C48.4511 17.4379 48.3111 17.8857 48.0399 18.1943C47.7599 18.5209 47.4054 18.6802 46.9568 18.6802Z" fill="white"/>
<path fill-rule="evenodd" clip-rule="evenodd" d="M54.3155 19.8379C54.81 19.8006 55.1746 19.6139 55.4079 19.2594C55.6411 18.9041 55.7531 18.1943 55.7531 17.1199V6.55013C55.7531 5.33579 55.5945 4.47669 55.2679 3.97216C55.1259 3.73143 54.9218 3.53328 54.677 3.39845C54.4322 3.26361 54.1556 3.19704 53.8763 3.2057V2.92578C56.0071 2.45237 58.1113 1.86615 60.1799 1.16959V17.6438C60.1799 18.4836 60.2732 19.0441 60.4512 19.3433C60.6378 19.6419 60.9457 19.8099 61.3843 19.8379V20.1178H54.3162L54.3155 19.8379ZM63.6263 19.7912C63.1125 19.306 62.8512 18.4842 62.8512 17.3352V8.66889H60.9457L60.8991 8.46361C61.5715 8.15503 62.2813 7.70715 63.0471 7.11864C64.6202 5.91162 66.0104 4.48344 67.1747 2.87846L67.408 2.9631V7.58585H70.2845L69.668 8.67822H67.418V16.5321C67.418 17.2986 67.5299 17.8397 67.7539 18.1663C67.9778 18.4929 68.305 18.6615 68.7343 18.6615C68.9395 18.6615 69.1455 18.6335 69.3601 18.5775C69.5747 18.5309 69.7713 18.4376 69.9393 18.3163L70.0886 18.5309C69.3414 19.1661 68.6223 19.6513 67.9591 19.9972C67.3083 20.3392 66.5843 20.5185 65.849 20.5197C65.0452 20.569 64.2531 20.3083 63.6356 19.7912H63.6263Z" fill="white"/>
<path fill-rule="evenodd" clip-rule="evenodd" d="M83.9102 19.2967C83.7037 18.6807 83.6213 18.0299 83.6676 17.3819V10.7983C83.6676 8.42563 82.7052 7.23062 80.791 7.23062C80.2305 7.23062 79.7353 7.29593 79.2781 7.43589C78.7465 7.6113 78.2431 7.86297 77.7838 8.18303C77.2793 8.52893 76.6628 9.0048 75.9163 9.61197V1.17892C73.8497 1.87245 71.7486 2.45863 69.6214 2.93511V3.21504C70.2192 3.21504 70.6864 3.4763 71.013 3.98083C71.3402 4.49402 71.4989 5.35379 71.4989 6.55813V16.8687C71.4989 18.017 71.3776 18.7922 71.125 19.194C70.8824 19.5953 70.4898 19.8006 69.9579 19.8472V20.1271H77.1113V19.8472C76.6821 19.8006 76.3735 19.6233 76.1963 19.2967C75.9691 18.6854 75.8768 18.0322 75.9257 17.3819V10.0605C76.3082 9.7426 76.6535 9.50067 76.9527 9.36937C77.298 9.21075 77.6065 9.1361 77.8865 9.1361C78.3257 9.1361 78.6709 9.32272 78.9229 9.69595C79.1755 10.0692 79.2968 10.705 79.2968 11.6201V17.3539C79.2968 18.027 79.2594 18.5402 79.1941 18.8855C79.1288 19.222 79.0075 19.4646 78.8482 19.5953C78.6803 19.7166 78.4377 19.8006 78.1104 19.8379V20.1178H84.7973V19.8379C84.3674 19.8099 84.0781 19.6233 83.9102 19.2967ZM89.588 20.3237L87.9071 19.9972C87.468 19.9013 87.0208 19.848 86.5715 19.8379C86.1944 19.835 85.8225 19.9249 85.4884 20.0998V14.3094L85.7497 14.2534C86.4842 15.4472 87.3084 16.5835 88.215 17.6525C88.9621 18.4936 89.644 19.0914 90.2698 19.4367C90.9143 19.7912 91.5401 19.9692 92.1566 19.9692C92.7538 19.9692 93.193 19.8379 93.4636 19.5673C93.7442 19.2967 93.8748 18.9415 93.8748 18.4936C93.8748 17.9424 93.6882 17.5032 93.3236 17.1859C92.7317 16.7273 92.0693 16.3678 91.3622 16.1215L89.532 15.3931C88.3983 15.0048 87.3514 14.3987 86.4502 13.6089C86.1607 13.3135 85.9338 12.9627 85.783 12.5776C85.6322 12.1925 85.5606 11.7809 85.5724 11.3675C85.5724 10.583 85.7683 9.89256 86.1796 9.26673C86.6102 8.62075 87.2114 8.10675 87.9164 7.7818C88.6636 7.40857 89.5693 7.22195 90.6157 7.22195C91.1662 7.22195 91.7081 7.26861 92.2499 7.35192C92.7911 7.44523 93.277 7.51987 93.7069 7.60452C94.1361 7.67916 94.4533 7.71649 94.6779 7.71649C94.9185 7.72848 95.1585 7.68383 95.3784 7.58585L95.733 12.3206L95.4997 12.3766C94.7319 11.0637 93.7788 9.8684 92.6698 8.82752C92.0077 8.1738 91.1328 7.77954 90.2045 7.71649C89.6906 7.71649 89.2707 7.84712 88.9435 8.10838C88.6169 8.3883 88.4583 8.74354 88.4583 9.21075C88.4583 9.71461 88.6169 10.1258 88.9528 10.4524C89.2894 10.779 89.8499 11.0789 90.6344 11.3302L92.8004 12.0586C93.8794 12.3529 94.8784 12.8859 95.7236 13.6182C96.3122 14.2161 96.6107 14.9725 96.6107 15.8783C96.6413 16.5102 96.5287 17.1409 96.2813 17.7231C96.0338 18.3054 95.658 18.8242 95.1818 19.2407C94.1142 20.1073 92.7643 20.5494 91.3908 20.4824C90.7862 20.4781 90.183 20.4219 89.588 20.3144V20.3237ZM100.178 6.41817C100.532 6.42055 100.882 6.35259 101.209 6.21826C101.536 6.08393 101.833 5.8859 102.083 5.63571C102.332 5.38517 102.529 5.08756 102.662 4.76021C102.795 4.43285 102.862 4.08229 102.858 3.7289C102.858 3.02842 102.616 2.40259 102.121 1.87007C101.874 1.60393 101.573 1.39433 101.238 1.2557C100.902 1.11706 100.541 1.05267 100.178 1.06695C99.7112 1.06695 99.282 1.19758 98.8801 1.44018C98.4804 1.68913 98.1446 2.02834 97.8997 2.43058C97.5955 2.93286 97.4715 3.52374 97.5479 4.10595C97.6243 4.68816 97.8967 5.22699 98.3203 5.63372C98.8615 6.15691 99.478 6.41817 100.188 6.41817H100.178Z" fill="white"/>
<path fill-rule="evenodd" clip-rule="evenodd" d="M125.869 19.3527C125.683 19.0534 125.599 18.4929 125.599 17.6438V10.7983C125.599 8.42563 124.637 7.23062 122.722 7.23062C122.19 7.23062 121.667 7.3146 121.163 7.48255C120.658 7.64184 120.136 7.90311 119.575 8.26767C119.089 8.58492 118.548 9.00481 117.932 9.50934C117.866 8.91553 117.583 8.3669 117.138 7.96842C116.554 7.46284 115.799 7.19899 115.027 7.23062C114.187 7.23062 113.356 7.42657 112.534 7.82846C111.787 8.18303 111.049 8.72488 110.292 9.44402V7.22129C108.934 7.74587 107.553 8.21326 106.155 8.62225L104.334 9.13544V9.39737C104.895 9.44402 105.296 9.67729 105.53 10.0885C105.763 10.4991 105.875 11.3022 105.875 12.4979V17.6345C105.875 18.4742 105.726 19.0348 105.408 19.362C105.264 19.516 105.088 19.6379 104.894 19.7199C104.699 19.8018 104.489 19.842 104.278 19.8379C103.746 19.8379 103.344 19.6793 103.083 19.362C102.812 19.0441 102.681 18.4656 102.681 17.6438V7.15598C101.685 7.55143 100.672 7.90345 99.6459 8.21102C98.5645 8.53573 97.4746 8.83175 96.3775 9.09878V9.36005C97.0686 9.4067 97.5545 9.68662 97.8437 10.2005C98.1423 10.705 98.2823 11.5548 98.2823 12.7218V16.8687C98.2823 17.9704 98.161 18.7362 97.9184 19.1567C97.6851 19.5766 97.2926 19.8099 96.7414 19.8379V20.1178H111.479V19.8379C111.295 19.8243 111.117 19.7662 110.961 19.6687C110.805 19.5711 110.675 19.4371 110.582 19.278C110.356 18.7544 110.26 18.1843 110.302 17.6158V9.95789C110.61 9.69596 110.89 9.49134 111.142 9.37804C111.444 9.23917 111.772 9.16623 112.104 9.1641C112.599 9.1641 112.972 9.33205 113.216 9.68662C113.449 10.0419 113.57 10.6864 113.57 11.6194V17.6158C113.57 18.4556 113.477 19.0254 113.3 19.3154C113.122 19.6139 112.832 19.7819 112.412 19.8379V20.1178H119.155V19.8379C118.707 19.7819 118.398 19.6233 118.221 19.3433C118.053 19.0634 117.969 18.4936 117.969 17.6158V9.95789C118.296 9.67796 118.585 9.46269 118.847 9.30406C119.139 9.11478 119.479 9.01081 119.827 9.00481C120.266 9.00481 120.621 9.19143 120.864 9.58465C121.116 9.97655 121.237 10.649 121.237 11.6201V17.6158C121.237 18.5122 121.163 19.0907 121.004 19.362C120.855 19.6326 120.537 19.7819 120.061 19.8379V20.1178H126.878V19.8379C126.383 19.8099 126.047 19.6513 125.869 19.3527Z" fill="white"/>
<path d="M140.662 10.873C140.507 10.1444 140.188 9.46078 139.728 8.87418C139.333 8.34772 138.819 7.9214 138.229 7.62948C137.638 7.33755 136.988 7.18816 136.329 7.1933C135.625 7.18938 134.927 7.33594 134.284 7.62319C133.733 7.87512 133.154 8.24835 132.547 8.74355V7.20264C130.485 7.93945 128.391 8.58435 126.271 9.13545V9.36872C126.747 9.41604 127.121 9.53734 127.392 9.73329C127.653 9.9199 127.85 10.2285 127.971 10.6677C128.092 11.0969 128.148 11.6941 128.148 12.4699V21.2108C128.148 22.1446 128.064 22.8544 127.915 23.3589C127.766 23.8541 127.532 24.1994 127.224 24.4053C126.872 24.6191 126.476 24.747 126.065 24.7786V25.0585H134.47V24.7786C133.751 24.7132 133.257 24.4986 132.976 24.1341C132.687 23.7695 132.547 23.0877 132.547 22.0886V19.7166C132.883 19.9499 133.201 20.1278 133.527 20.2304C134.78 20.5711 136.111 20.4858 137.31 19.9878C138.025 19.6851 138.666 19.2292 139.187 18.6522C139.766 18.0055 140.21 17.2499 140.494 16.4295C140.815 15.5084 140.973 14.538 140.961 13.5622C140.961 12.5725 140.868 11.6761 140.662 10.873ZM135.554 18.3723C135.078 19.25 134.48 19.6793 133.779 19.6793C133.506 19.6882 133.234 19.634 132.986 19.5206C132.829 19.4375 132.682 19.3374 132.547 19.2221V9.26674C133.117 8.8182 133.611 8.59359 134.013 8.59359C134.667 8.59359 135.199 9.03347 135.629 9.90191C136.058 10.7703 136.283 12.1426 136.283 14.0008C136.283 16.0276 136.03 17.4852 135.554 18.3723Z" fill="white"/>
<path fill-rule="evenodd" clip-rule="evenodd" d="M140.821 19.8379C141.325 19.8006 141.69 19.6139 141.923 19.2594C142.156 18.9041 142.268 18.1943 142.268 17.1199V6.55013C142.268 5.33579 142.11 4.47669 141.783 3.97216C141.641 3.73153 141.437 3.53346 141.192 3.39864C140.947 3.26381 140.671 3.19718 140.392 3.2057V2.92578C141.467 2.67585 142.538 2.40459 143.604 2.114C144.64 1.82882 145.668 1.51388 146.686 1.16959V17.6438C146.686 18.4836 146.779 19.0441 146.966 19.3433C147.144 19.6419 147.461 19.8099 147.9 19.8379V20.1178H140.831V19.8379H140.821Z" fill="white"/>
<path d="M160.554 15.0845C159.956 16.6161 158.631 17.3819 156.567 17.3819C156.008 17.4095 155.449 17.3172 154.929 17.1111C154.409 16.905 153.938 16.5898 153.55 16.1869C152.84 15.4204 152.467 14.272 152.43 12.7591H160.741V12.6005C160.741 11.5361 160.461 10.6024 159.919 9.80791C159.358 9.0021 158.594 8.35807 157.706 7.94041C156.732 7.48911 155.669 7.26248 154.596 7.27726C153.363 7.27726 152.224 7.55718 151.187 8.12703C150.127 8.70198 149.247 9.55987 148.645 10.6052C148.043 11.6506 147.744 12.8424 147.779 14.0481C147.779 15.3091 148.059 16.4295 148.629 17.4005C149.184 18.3646 149.995 19.1564 150.973 19.6886C151.972 20.2491 153.111 20.5104 154.4 20.5104C156.109 20.5104 157.519 20.0718 158.612 19.1754C159.794 18.1344 160.576 16.7143 160.825 15.1591L160.554 15.0845ZM152.971 8.87416C153.326 8.05238 153.858 7.6325 154.558 7.6325C154.802 7.6325 155.026 7.68848 155.212 7.79112C155.418 7.89376 155.586 8.06171 155.717 8.28632C155.838 8.47294 155.941 8.69688 156.025 8.93948C156.118 9.19208 156.183 9.52799 156.221 9.94854C156.267 10.3778 156.286 10.9383 156.286 11.6481V12.2926H152.43C152.439 11.5081 152.486 10.8543 152.57 10.3311C152.663 9.74259 152.803 9.25739 152.971 8.87416Z" fill="white"/>
</g>
</g>
</g>
<defs>
<clipPath id="clip0_3_24">
<rect width="160" height="24.66" fill="white" transform="translate(0.958984 0.962982)"/>
</clipPath>
<clipPath id="clip1_3_24">
<rect width="160" height="24.66" fill="white" transform="translate(0.958984 0.962982)"/>
</clipPath>
<clipPath id="clip2_3_24">
<rect width="159.957" height="24.66" fill="white" transform="translate(0.980591 0.962982)"/>
</clipPath>
</defs>
</svg>
