<svg width="209" height="33" viewBox="0 0 209 33" fill="none" xmlns="http://www.w3.org/2000/svg">
<g clip-path="url(#clip0_3_336)">
<g clip-path="url(#clip1_3_336)">
<g clip-path="url(#clip2_3_336)">
<path fill-rule="evenodd" clip-rule="evenodd" d="M30.6887 3.58133C31.5139 3.76543 32.236 4.2612 32.7042 4.96511C33.1652 5.65743 33.3965 6.61663 33.3965 7.85484C33.3965 9.15457 33.1894 10.4656 32.7891 11.8008C32.3303 13.2751 31.7494 14.7086 31.0527 16.0865L30.2269 17.9078L26.1718 8.07319C25.8294 7.24681 25.6048 6.37645 25.5046 5.4876C25.5046 4.41922 26.0868 3.78755 27.2765 3.58133V3.27806H15.1717V3.58133C15.6335 3.66624 16.0339 3.81181 16.3735 3.99378C16.7019 4.18874 17.0295 4.51627 17.3327 4.99024C17.6247 5.46334 17.9653 6.15479 18.3404 7.06547L20.2831 11.5946L16.8596 18.4182L11.7603 6.56811C11.6245 6.33996 11.5186 6.09535 11.4449 5.84026C11.3905 5.64645 11.3619 5.44629 11.36 5.24498C11.36 4.89232 11.4813 4.56479 11.724 4.27365C11.9666 3.98164 12.3305 3.75116 12.7923 3.5692V3.26593H0.457031V3.5692C1.4275 3.86034 2.31478 4.41835 3.09115 5.22072C3.88052 6.02135 4.64563 7.26043 5.3986 8.91195L13.229 26.4314H13.5696L20.6228 12.3476L26.67 26.4193H27.0096L34.1972 10.8537C34.9685 9.07882 35.9379 7.39671 37.0869 5.83939C37.814 4.86824 38.7633 4.08559 39.8553 3.55707V3.25293H30.6879V3.58046L30.6887 3.58133Z" fill="white"/>
<path d="M50.4542 19.0124C49.6657 21.0035 47.9414 21.9991 45.27 21.9991C44.5413 22.0366 43.8131 21.9174 43.1344 21.6493C42.4558 21.3813 41.8426 20.9708 41.3361 20.4455C40.4133 19.4491 39.9281 17.9561 39.8796 15.9892H50.6847V15.783C50.6847 14.3992 50.3207 13.1852 49.6171 12.1524C48.8906 11.1065 47.9026 10.2694 46.7517 9.72449C45.5377 9.15347 44.2016 8.86234 42.6965 8.86234C41.153 8.84487 39.6311 9.22536 38.2774 9.96711C36.8988 10.7145 35.7545 11.8297 34.972 13.1888C34.1895 14.5479 33.7995 16.0974 33.8454 17.665C33.8454 19.3044 34.2093 20.7609 34.938 22.0234C35.6639 23.2783 36.7228 24.3078 37.9976 24.998C39.2973 25.7268 40.7903 26.0664 42.453 26.0664C44.6877 26.0664 46.5082 25.4963 47.9414 24.3309C49.4776 22.9773 50.4947 21.1312 50.8181 19.1094L50.4542 19.0124ZM40.5849 10.9384C41.058 9.87006 41.7373 9.32417 42.6489 9.32417C42.9527 9.31834 43.2526 9.39403 43.5173 9.54337C43.782 9.69271 44.0018 9.91024 44.154 10.1733C44.3117 10.4159 44.446 10.708 44.5673 11.0234C44.6764 11.3518 44.7614 11.7885 44.8099 12.3352C44.8705 12.8932 44.8948 13.6219 44.8948 14.5448V15.3826H39.8917C39.8917 14.3628 39.9524 13.5128 40.0615 12.8326C40.1828 12.0675 40.3657 11.4367 40.5849 10.9384ZM69.6512 23.3838C69.5428 23.4822 69.4072 23.5456 69.2621 23.5657L68.8861 23.59C68.7124 23.6016 68.5391 23.5618 68.3879 23.4755C68.2368 23.3892 68.1144 23.2602 68.0361 23.1048C67.8662 22.7764 67.7813 22.1326 67.7813 21.1612V13.2935C67.7813 11.7157 67.4408 10.5866 66.7736 9.87093C66.1055 9.14134 65.0371 8.78955 63.5676 8.78955C60.7279 8.83969 57.9324 9.50234 55.3724 10.7322C54.3177 11.1941 53.3585 11.8489 52.5441 12.6627C51.9525 13.2487 51.609 14.0399 51.5849 14.8723C51.5849 15.5767 51.8276 16.1226 52.2885 16.5359C52.7625 16.9605 53.3812 17.1676 54.1341 17.1676C54.5473 17.1635 54.9552 17.0752 55.3331 16.908C55.7109 16.7408 56.0506 16.4984 56.3316 16.1954C56.6671 15.8352 56.9262 15.4106 57.0931 14.9475C57.2601 14.4843 57.3314 13.9921 57.3029 13.5006V12.9296C57.3029 11.8985 57.5455 11.1204 57.9952 10.5866C58.444 10.0642 59.0151 9.79814 59.6831 9.79814C60.2169 9.79814 60.6536 9.93071 61.0062 10.1855C61.3459 10.4411 61.6128 10.8899 61.7714 11.5216C61.9412 12.1411 62.014 13.0145 62.014 14.1436V15.8557C60.3261 16.3782 58.8331 16.8756 57.5221 17.386C56.0404 17.9561 54.8013 18.515 53.8309 19.0851C52.2885 19.9473 51.5234 21.0763 51.5234 22.4367C51.5234 23.5172 51.948 24.3794 52.811 25.0223C53.6602 25.6782 54.7901 25.9936 56.1739 25.9936C57.4045 26.0203 58.624 25.7542 59.7316 25.2173C60.5808 24.7918 61.3702 24.1238 62.0989 23.1897C62.2687 24.1359 62.5841 24.8161 63.0702 25.2528C63.6828 25.7891 64.4791 26.0673 65.2919 26.03C66.1818 26.0405 67.0596 25.8234 67.842 25.3992C68.6343 24.9608 69.3187 24.351 69.8453 23.6143L69.6512 23.3838ZM60.0834 23.6871C58.8088 23.6871 58.1772 22.8128 58.1772 21.0642C58.1772 19.8988 58.5298 18.9396 59.2213 18.1875C59.8044 17.5437 60.7515 16.9726 62.0261 16.4632V21.3198C62.0261 22.0719 61.8441 22.6542 61.4915 23.0554C61.1276 23.48 60.6666 23.6871 60.0834 23.6871Z" fill="white"/>
<path fill-rule="evenodd" clip-rule="evenodd" d="M69.6503 25.1922C70.2932 25.1436 70.7672 24.901 71.0705 24.4401C71.3738 23.9782 71.5193 23.0554 71.5193 21.6586V7.91702C71.5193 6.33828 71.3131 5.22138 70.8885 4.56545C70.7039 4.25248 70.4386 3.99487 70.1203 3.81957C69.802 3.64428 69.4425 3.55773 69.0793 3.56899V3.20507C71.8495 2.5896 74.5851 1.82746 77.2745 0.921875V22.3397C77.2745 23.4315 77.3958 24.1602 77.6272 24.5492C77.8698 24.9374 78.2701 25.1558 78.8403 25.1922V25.5561H69.6512L69.6503 25.1922ZM81.7551 25.1315C81.0871 24.5007 80.7474 23.4323 80.7474 21.9385V10.6716H78.2701L78.2095 10.4047C79.0837 10.0035 80.0066 9.42124 81.0021 8.65613C83.0473 7.0869 84.8547 5.23016 86.3683 3.14355L86.6716 3.25359V9.26354H90.4113L89.6098 10.6837H86.6846V20.8944C86.6846 21.8908 86.8301 22.5944 87.1213 23.019C87.4124 23.4436 87.8379 23.6628 88.3959 23.6628C88.6628 23.6628 88.9305 23.6264 89.2095 23.5536C89.4885 23.493 89.7441 23.3717 89.9625 23.214L90.1566 23.493C89.1852 24.3187 88.2503 24.9495 87.3882 25.3993C86.542 25.8439 85.6007 26.077 84.6449 26.0786C83.5998 26.1427 82.57 25.8038 81.7673 25.1315H81.7551Z" fill="white"/>
<path fill-rule="evenodd" clip-rule="evenodd" d="M108.126 24.4888C107.857 23.6879 107.75 22.8419 107.81 21.9994V13.4402C107.81 10.3555 106.559 8.80193 104.071 8.80193C103.342 8.80193 102.698 8.88685 102.104 9.06881C101.413 9.29685 100.758 9.62404 100.161 10.0401C99.5051 10.4898 98.7036 11.1085 97.7331 11.8979V0.934234C95.0463 1.83587 92.3147 2.59796 89.5492 3.21743V3.58135C90.3264 3.58135 90.9338 3.92101 91.3584 4.57694C91.7838 5.24414 91.9901 6.36191 91.9901 7.92765V21.3322C91.9901 22.8251 91.8324 23.8329 91.504 24.3554C91.1886 24.877 90.6782 25.1439 89.9868 25.2045V25.5684H99.2867V25.2045C98.7287 25.1439 98.3275 24.9134 98.0971 24.4888C97.8017 23.694 97.6817 22.8448 97.7453 21.9994V12.481C98.2426 12.0677 98.6915 11.7532 99.0805 11.5825C99.5294 11.3763 99.9305 11.2792 100.294 11.2792C100.865 11.2792 101.314 11.5218 101.642 12.0071C101.97 12.4923 102.128 13.3189 102.128 14.5086V21.963C102.128 22.8381 102.079 23.5053 101.995 23.9542C101.91 24.3918 101.752 24.7072 101.545 24.877C101.326 25.0347 101.011 25.1439 100.586 25.1924V25.5563H109.279V25.1924C108.72 25.156 108.344 24.9134 108.126 24.4888ZM115.507 25.8241L113.322 25.3995C112.751 25.2749 112.17 25.2056 111.586 25.1924C111.095 25.1886 110.612 25.3056 110.178 25.5329V18.0049L110.517 17.9321C111.472 19.4841 112.544 20.9614 113.722 22.3512C114.694 23.4447 115.58 24.2219 116.394 24.6708C117.232 25.1317 118.045 25.3631 118.847 25.3631C119.623 25.3631 120.194 25.1924 120.546 24.8406C120.911 24.4888 121.081 24.027 121.081 23.4447C121.081 22.7281 120.838 22.1571 120.364 21.7446C119.595 21.1483 118.733 20.681 117.814 20.3609L115.435 19.4138C113.961 18.909 112.6 18.121 111.428 17.0942C111.052 16.7101 110.757 16.2541 110.561 15.7534C110.365 15.2528 110.271 14.7177 110.287 14.1802C110.287 13.1604 110.542 12.2627 111.076 11.449C111.636 10.6092 112.418 9.94098 113.334 9.51851C114.306 9.03328 115.483 8.79067 116.843 8.79067C117.559 8.79067 118.264 8.85132 118.968 8.95963C119.672 9.08094 120.303 9.17799 120.862 9.28803C121.42 9.38508 121.833 9.4336 122.125 9.4336C122.438 9.4492 122.749 9.39114 123.035 9.26377L123.496 15.4193L123.193 15.4921C122.195 13.7853 120.956 12.2313 119.514 10.878C118.653 10.0281 117.516 9.51557 116.309 9.4336C115.641 9.4336 115.095 9.60343 114.669 9.94309C114.245 10.307 114.039 10.7689 114.039 11.3763C114.039 12.0313 114.245 12.5659 114.682 12.9905C115.119 13.4151 115.848 13.805 116.868 14.1317L119.684 15.0788C121.087 15.4613 122.385 16.1542 123.484 17.1063C124.249 17.8836 124.638 18.867 124.638 20.0446C124.677 20.8661 124.531 21.686 124.209 22.443C123.888 23.2 123.399 23.8745 122.78 24.416C121.392 25.5427 119.637 26.1175 117.851 26.0303C117.065 26.0247 116.281 25.9516 115.507 25.8119V25.8241ZM129.276 7.74568C129.735 7.74877 130.191 7.66043 130.616 7.48578C131.041 7.31114 131.427 7.05369 131.751 6.72843C132.075 6.40269 132.331 6.01578 132.505 5.5902C132.678 5.16461 132.765 4.70885 132.76 4.24941C132.76 3.33873 132.445 2.5251 131.801 1.83278C131.48 1.48678 131.089 1.21429 130.653 1.03405C130.217 0.853815 129.747 0.7701 129.276 0.788664C128.668 0.788664 128.11 0.958495 127.588 1.2739C127.068 1.59755 126.632 2.03855 126.313 2.5615C125.918 3.21449 125.757 3.98269 125.856 4.73961C125.955 5.49653 126.309 6.19705 126.86 6.72583C127.564 7.40602 128.365 7.74568 129.288 7.74568H129.276Z" fill="white"/>
<path fill-rule="evenodd" clip-rule="evenodd" d="M162.676 24.5613C162.434 24.1722 162.325 23.4435 162.325 22.3396V13.4399C162.325 10.3552 161.074 8.80164 158.585 8.80164C157.892 8.80164 157.213 8.91081 156.557 9.12917C155.901 9.33626 155.222 9.67592 154.493 10.1499C153.862 10.5623 153.158 11.1082 152.356 11.7642C152.271 10.9922 151.903 10.2789 151.324 9.76084C150.565 9.10354 149.584 8.76051 148.58 8.80164C147.488 8.80164 146.407 9.05638 145.339 9.57887C144.367 10.0398 143.408 10.7443 142.425 11.6792V8.78951C140.658 9.4715 138.864 10.0792 137.046 10.6109L134.678 11.2781V11.6186C135.407 11.6792 135.93 11.9825 136.233 12.5171C136.536 13.0509 136.682 14.095 136.682 15.6495V22.3275C136.682 23.4193 136.488 24.148 136.075 24.5734C135.887 24.7736 135.659 24.9321 135.406 25.0386C135.153 25.1452 134.88 25.1975 134.606 25.1921C133.914 25.1921 133.392 24.9859 133.052 24.5734C132.699 24.1601 132.529 23.408 132.529 22.3396V8.70459C131.235 9.21872 129.918 9.67637 128.584 10.0762C127.178 10.4984 125.761 10.8832 124.334 11.2304V11.5701C125.233 11.6307 125.864 11.9946 126.241 12.6627C126.629 13.3186 126.811 14.4234 126.811 15.9406V21.3319C126.811 22.7642 126.653 23.7598 126.338 24.3065C126.034 24.8524 125.524 25.1557 124.807 25.1921V25.556H143.967V25.1921C143.728 25.1744 143.497 25.0989 143.294 24.9721C143.091 24.8453 142.922 24.671 142.801 24.4642C142.508 23.7835 142.383 23.0423 142.437 22.3032V12.3473C142.837 12.0068 143.202 11.7408 143.53 11.5935C143.922 11.4129 144.348 11.3181 144.78 11.3153C145.424 11.3153 145.909 11.5337 146.225 11.9946C146.528 12.4565 146.686 13.2944 146.686 14.5075V22.3032C146.686 23.395 146.565 24.1358 146.334 24.5128C146.104 24.901 145.727 25.1193 145.181 25.1921V25.556H153.946V25.1921C153.364 25.1193 152.963 24.9131 152.733 24.5492C152.514 24.1852 152.405 23.4444 152.405 22.3032V12.3473C152.83 11.9834 153.206 11.7035 153.546 11.4973C153.927 11.2512 154.368 11.116 154.821 11.1082C155.392 11.1082 155.853 11.3508 156.169 11.8621C156.497 12.3716 156.654 13.2458 156.654 14.5083V22.3032C156.654 23.4687 156.557 24.2208 156.351 24.5734C156.157 24.9252 155.744 25.1193 155.125 25.1921V25.556H163.987V25.1921C163.344 25.1557 162.907 24.9495 162.676 24.5613Z" fill="white"/>
<path d="M181.908 13.537C181.706 12.5897 181.291 11.701 180.694 10.9384C180.18 10.2539 179.512 9.69968 178.744 9.32016C177.977 8.94063 177.131 8.74641 176.275 8.7531C175.359 8.74799 174.452 8.93853 173.616 9.31198C172.899 9.63951 172.147 10.1247 171.358 10.7685V8.76523C168.677 9.72314 165.954 10.5616 163.199 11.278V11.5813C163.817 11.6428 164.304 11.8005 164.655 12.0553C164.995 12.2979 165.251 12.6991 165.408 13.2701C165.566 13.8281 165.639 14.6045 165.639 15.6131V26.977C165.639 28.191 165.53 29.1138 165.336 29.7697C165.141 30.4135 164.837 30.8624 164.437 31.1301C163.98 31.4081 163.464 31.5743 162.931 31.6153V31.9793H173.858V31.6153C172.923 31.5304 172.28 31.2514 171.916 30.7774C171.54 30.3035 171.358 29.4171 171.358 28.1182V25.0344C171.794 25.3376 172.208 25.569 172.632 25.7024C174.261 26.1453 175.991 26.0344 177.55 25.387C178.48 24.9934 179.313 24.4007 179.99 23.6506C180.743 22.8098 181.32 21.8275 181.69 20.7609C182.107 19.5634 182.313 18.3018 182.297 17.0332C182.297 15.7465 182.176 14.5811 181.908 13.537ZM175.267 23.2867C174.648 24.4278 173.87 24.9859 172.96 24.9859C172.604 24.9975 172.251 24.9269 171.928 24.7796C171.724 24.6715 171.533 24.5414 171.358 24.3914V11.4487C172.098 10.8656 172.741 10.5736 173.264 10.5736C174.114 10.5736 174.805 11.1455 175.364 12.2745C175.922 13.4035 176.214 15.1876 176.214 17.6034C176.214 20.2384 175.886 22.1334 175.267 23.2867Z" fill="white"/>
<path fill-rule="evenodd" clip-rule="evenodd" d="M182.114 25.1922C182.77 25.1436 183.244 24.901 183.547 24.4401C183.851 23.9782 183.996 23.0554 183.996 21.6586V7.91702C183.996 6.33828 183.79 5.22138 183.365 4.56545C183.181 4.25261 182.915 3.9951 182.597 3.81982C182.279 3.64454 181.919 3.55792 181.556 3.56899V3.20507C182.955 2.88013 184.347 2.52747 185.733 2.14969C187.08 1.77893 188.416 1.36949 189.739 0.921875V22.3397C189.739 23.4315 189.861 24.1602 190.103 24.5492C190.335 24.9374 190.747 25.1558 191.318 25.1922V25.5561H182.127V25.1922H182.114Z" fill="white"/>
<path d="M207.769 19.0122C206.992 21.0034 205.268 21.999 202.585 21.999C201.858 22.035 201.132 21.9149 200.456 21.647C199.779 21.379 199.168 20.9693 198.663 20.4454C197.74 19.4489 197.255 17.956 197.207 15.9891H208.012V15.7828C208.012 14.3991 207.648 13.1851 206.943 12.1523C206.214 11.1046 205.221 10.2673 204.066 9.72437C202.8 9.13764 201.418 8.84299 200.023 8.86221C198.421 8.86221 196.939 9.22614 195.592 9.96698C194.213 10.7145 193.069 11.8298 192.287 13.1888C191.504 14.5479 191.114 16.0974 191.16 17.6648C191.16 19.3042 191.524 20.7608 192.265 22.0233C192.987 23.2767 194.042 24.3061 195.313 24.9979C196.611 25.7266 198.092 26.0663 199.768 26.0663C201.99 26.0663 203.823 25.4962 205.244 24.3307C206.781 22.9773 207.798 21.1311 208.121 19.1093L207.769 19.0122ZM197.91 10.9383C198.372 9.86993 199.064 9.32405 199.974 9.32405C200.29 9.32405 200.582 9.39683 200.824 9.53027C201.091 9.66371 201.31 9.88207 201.48 10.1741C201.638 10.4167 201.771 10.7078 201.88 11.0232C202.002 11.3516 202.087 11.7883 202.135 12.3351C202.196 12.8931 202.22 13.6218 202.22 14.5446V15.3825H197.207C197.219 14.3627 197.279 13.5126 197.389 12.8325C197.51 12.0673 197.692 11.4365 197.91 10.9383Z" fill="white"/>
</g>
</g>
</g>
<defs>
<clipPath id="clip0_3_336">
<rect width="208" height="32.06" fill="white" transform="translate(0.288971 0.65332)"/>
</clipPath>
<clipPath id="clip1_3_336">
<rect width="208" height="32.06" fill="white" transform="translate(0.288971 0.65332)"/>
</clipPath>
<clipPath id="clip2_3_336">
<rect width="207.957" height="32.06" fill="white" transform="translate(0.310593 0.65332)"/>
</clipPath>
</defs>
</svg>
