<svg width="266" height="41" viewBox="0 0 266 41" fill="none" xmlns="http://www.w3.org/2000/svg">
<g clip-path="url(#clip0_3_110)">
<g clip-path="url(#clip1_3_110)">
<g clip-path="url(#clip2_3_110)">
<path fill-rule="evenodd" clip-rule="evenodd" d="M39.4647 4.01408V4.39918C40.5116 4.63288 41.4277 5.26203 42.0217 6.15522C42.6071 7.03324 42.8998 8.25014 42.8998 9.82133C42.8998 11.4695 42.6379 13.1332 42.1296 14.8276C41.5476 16.6981 40.8108 18.5169 39.9268 20.2651L38.8794 22.5757L33.7345 10.0986C33.2999 9.04999 33.0147 7.94553 32.8873 6.81758C32.8873 5.46205 33.6267 4.66105 35.1362 4.39918V4.01408H19.7786V4.39918C20.3639 4.50701 20.8723 4.69185 21.3036 4.92291C21.7195 5.16937 22.1354 5.58528 22.5205 6.18603C22.8902 6.78678 23.3215 7.6648 23.799 8.82008L26.2636 14.5657L21.9197 23.2227L15.4501 8.18853C15.2777 7.89884 15.1431 7.58823 15.0496 7.2643C14.9806 7.01855 14.9443 6.76476 14.9418 6.50951C14.9418 6.0628 15.0958 5.64689 15.4039 5.2772C15.712 4.90751 16.1741 4.61483 16.7594 4.38378V3.99868H1.10913V4.38378C2.34144 4.75347 3.46592 5.46205 4.45177 6.4787C5.45302 7.49535 6.42346 9.06655 7.3785 11.1615L17.314 33.3892H17.7453L26.6949 15.5208L34.366 33.3738H34.7973L43.9164 13.6261C44.8951 11.3742 46.1249 9.24011 47.5825 7.2643C48.5049 6.03212 49.7093 5.03906 51.0946 4.36837V3.98328H39.4647V3.99868V4.01408Z" fill="#32302F"/>
<path d="M64.5421 23.9775C63.5409 26.5037 61.3535 27.7668 57.9647 27.7668C57.0402 27.8144 56.1162 27.663 55.2552 27.3228C54.3942 26.9827 53.6162 26.4617 52.9739 25.7951C51.8032 24.532 51.187 22.6374 51.1254 20.1419H64.8348V19.8801C64.8348 18.124 64.3727 16.5836 63.4793 15.2743C62.5576 13.9473 61.3042 12.8851 59.844 12.1935C58.3036 11.4696 56.6092 11.0999 54.6991 11.0999C52.7407 11.0777 50.8096 11.5604 49.0921 12.5016C47.3431 13.4499 45.8916 14.8649 44.899 16.5891C43.9063 18.3132 43.4116 20.279 43.4697 22.2677C43.4697 24.3472 43.9318 26.1956 44.856 27.7976C45.7769 29.3897 47.1204 30.6959 48.7378 31.5716C50.386 32.4958 52.2807 32.9271 54.391 32.9271C57.2253 32.9271 59.5359 32.2031 61.3535 30.7244C63.3028 29.0075 64.5935 26.6656 65.0043 24.1007L64.5421 23.9775ZM52.0188 13.7339C52.6196 12.3784 53.4822 11.6852 54.6375 11.6852C55.0232 11.6777 55.4039 11.7737 55.7398 11.9634C56.0758 12.153 56.3547 12.4293 56.5475 12.7635C56.7478 13.0716 56.9172 13.4413 57.0713 13.8418C57.2099 14.2577 57.3177 14.8122 57.3794 15.5054C57.4564 16.2139 57.4872 17.1382 57.4872 18.3089V19.3717H51.1408C51.1408 18.0778 51.2178 16.9995 51.3564 16.1369C51.5105 15.1665 51.7415 14.3655 52.0188 13.7339ZM88.8956 29.5229C88.7582 29.6476 88.5865 29.7281 88.4027 29.7539L87.9252 29.7847C87.7048 29.7993 87.485 29.7486 87.2933 29.639C87.1015 29.5294 86.9463 29.3658 86.8469 29.1686C86.6313 28.7527 86.5234 27.9363 86.5234 26.704V16.7223C86.5234 14.7198 86.0921 13.2872 85.2449 12.3784C84.3977 11.4542 83.0422 11.0074 81.1783 11.0074C77.5754 11.071 74.0288 11.9117 70.7807 13.4721C69.4423 14.058 68.2251 14.8886 67.1916 15.9213C66.4409 16.6648 66.0052 17.6687 65.9747 18.7248C65.9747 19.6182 66.2828 20.3114 66.8681 20.8351C67.4689 21.3742 68.2545 21.6361 69.2095 21.6361C69.7336 21.6312 70.2513 21.5195 70.7307 21.3076C71.2101 21.0957 71.6412 20.7881 71.9976 20.4038C72.4235 19.9467 72.7523 19.408 72.9641 18.8202C73.1759 18.2325 73.2663 17.6078 73.2299 16.9841V16.2602C73.2299 14.9508 73.538 13.965 74.1079 13.2872C74.6779 12.6248 75.4019 12.286 76.2491 12.286C76.9268 12.286 77.4814 12.4554 77.9281 12.7789C78.3594 13.1024 78.6983 13.6723 78.8985 14.4733C79.1142 15.2589 79.2066 16.368 79.2066 17.8005V19.9725C77.0655 20.6348 75.1708 21.2664 73.5072 21.9134C71.6279 22.6373 70.0567 23.3459 68.8244 24.0699C66.8681 25.1636 65.8977 26.5961 65.8977 28.3214C65.8977 29.6923 66.4368 30.786 67.5305 31.6024C68.6088 32.4342 70.0413 32.8347 71.7974 32.8347C73.3586 32.8682 74.9056 32.5303 76.3107 31.8489C77.389 31.3097 78.3902 30.4625 79.3144 29.2764C79.5301 30.4779 79.9306 31.3405 80.5467 31.8951C81.3241 32.5748 82.334 32.928 83.3656 32.8809C84.4946 32.894 85.6081 32.6182 86.6004 32.0799C87.6056 31.5237 88.474 30.7501 89.1421 29.8155L88.8956 29.5229ZM76.7574 29.908C75.14 29.908 74.339 28.7989 74.339 26.5807C74.339 25.102 74.7857 23.8851 75.6637 22.93C76.4031 22.1136 77.6046 21.3896 79.222 20.7427V26.9042C79.222 27.8593 78.9909 28.5986 78.5442 29.107C78.0821 29.6461 77.4968 29.908 76.7574 29.908Z" fill="#32302F"/>
<path fill-rule="evenodd" clip-rule="evenodd" d="M88.8957 31.818C89.7121 31.7564 90.3128 31.4484 90.6979 30.863C91.083 30.2777 91.2679 29.107 91.2679 27.3355V9.89837C91.2679 7.89587 91.006 6.47872 90.4669 5.64691C90.2325 5.25008 89.8959 4.92349 89.4921 4.70129C89.0884 4.47909 88.6323 4.36944 88.1717 4.3838V3.92168C91.6864 3.1411 95.1571 2.17444 98.5693 1.02576V28.1981C98.5693 29.5845 98.7233 30.5087 99.016 31.0016C99.3241 31.4946 99.8324 31.7718 100.556 31.818V32.2802H88.8957V31.818ZM104.253 31.741C103.406 30.94 102.975 29.5845 102.975 27.6898V13.395H99.8324L99.7554 13.0562C100.864 12.5478 102.035 11.8084 103.298 10.838C105.893 8.84731 108.186 6.49182 110.107 3.84466L110.492 3.9833V11.6082H115.236L114.22 13.4104H110.507V26.3651C110.507 27.6282 110.692 28.5216 111.062 29.0608C111.432 29.5999 111.971 29.8772 112.679 29.8772C113.018 29.8772 113.357 29.8309 113.711 29.7385C114.066 29.6615 114.389 29.5075 114.666 29.3072L114.913 29.6615C113.68 30.709 112.494 31.51 111.401 32.0799C110.292 32.6499 109.136 32.9425 107.919 32.9425C106.594 33.0238 105.287 32.5938 104.269 31.741H104.253Z" fill="#32302F"/>
<path fill-rule="evenodd" clip-rule="evenodd" d="M137.71 30.9246C137.37 29.9086 137.234 28.8355 137.31 27.7668V16.9071C137.31 12.9945 135.723 11.0228 132.566 11.0228C131.641 11.0228 130.825 11.1306 130.07 11.3617C129.193 11.6512 128.363 12.0663 127.606 12.594C126.774 13.1639 125.757 13.9495 124.525 14.9508V1.04112C121.116 2.18475 117.651 3.15135 114.143 3.93704V4.39916C115.128 4.39916 115.899 4.83047 116.438 5.66227C116.977 6.50949 117.239 7.92664 117.239 9.91374V26.9196C117.239 28.8143 117.038 30.0928 116.623 30.7551C116.222 31.4175 115.575 31.7564 114.697 31.8334V32.2955H126.496V31.8334C125.788 31.7564 125.28 31.4637 124.987 30.9246C124.612 29.9164 124.46 28.8393 124.54 27.7668V15.6902C125.172 15.1664 125.742 14.7659 126.235 14.5503C126.805 14.2884 127.313 14.1652 127.775 14.1652C128.499 14.1652 129.069 14.4733 129.485 15.0894C129.901 15.7056 130.101 16.753 130.101 18.2626V27.7206C130.101 28.8297 130.039 29.6769 129.931 30.2468C129.824 30.8014 129.623 31.2019 129.362 31.4175C129.084 31.6178 128.684 31.7564 128.145 31.818V32.2801H139.174V31.818C138.465 31.7718 137.988 31.4637 137.71 30.9246ZM147.076 32.619L144.303 32.0799C143.579 31.922 142.841 31.8343 142.101 31.818C141.479 31.8129 140.865 31.9611 140.314 32.2493V22.6989L140.745 22.6065C141.957 24.5758 143.316 26.4502 144.812 28.2135C146.044 29.5999 147.168 30.5857 148.2 31.1556C149.263 31.741 150.295 32.0337 151.312 32.0337C152.298 32.0337 153.022 31.818 153.469 31.3713C153.931 30.9246 154.146 30.3392 154.146 29.5999C154.146 28.691 153.838 27.967 153.238 27.4433C152.261 26.6866 151.169 26.0935 150.003 25.6873L146.984 24.4858C145.114 23.8455 143.387 22.8461 141.9 21.5436C141.423 21.0561 141.049 20.4775 140.8 19.8424C140.552 19.2073 140.433 18.5286 140.452 17.8467C140.452 16.5528 140.776 15.4129 141.454 14.3808C142.164 13.3155 143.156 12.4677 144.319 11.9316C145.551 11.3155 147.045 11.0074 148.77 11.0074C149.679 11.0074 150.573 11.0844 151.466 11.2231C152.359 11.3771 153.16 11.5003 153.869 11.639C154.578 11.7622 155.101 11.8238 155.471 11.8238C155.868 11.8443 156.264 11.7704 156.626 11.6082L157.212 19.4179L156.827 19.5103C155.56 17.3452 153.988 15.3738 152.159 13.6569C151.067 12.5785 149.624 11.9281 148.093 11.8238C147.245 11.8238 146.552 12.0395 146.013 12.4708C145.474 12.9329 145.212 13.5182 145.212 14.2884C145.212 15.1202 145.474 15.798 146.029 16.3371C146.583 16.8763 147.507 17.3692 148.801 17.7851L152.375 18.9866C154.154 19.4719 155.802 20.3511 157.196 21.559C158.167 22.5449 158.66 23.7926 158.66 25.2868C158.709 26.3289 158.523 27.3688 158.115 28.3289C157.707 29.2891 157.088 30.1448 156.303 30.8322C154.542 32.2618 152.315 32.9913 150.049 32.8809C149.052 32.8738 148.057 32.781 147.076 32.6036V32.619ZM164.544 9.68268C165.127 9.6868 165.705 9.57475 166.244 9.35308C166.783 9.1314 167.273 8.80453 167.685 8.39155C168.096 7.97858 168.421 7.48776 168.641 6.94775C168.861 6.40774 168.971 5.82936 168.965 5.24637C168.965 4.09108 168.564 3.05902 167.748 2.181C167.341 1.7419 166.844 1.39611 166.291 1.16743C165.738 0.938741 165.142 0.832589 164.544 0.856273C163.774 0.856273 163.065 1.07193 162.403 1.47243C161.74 1.88833 161.201 2.42747 160.785 3.10523C160.284 3.93386 160.08 4.90833 160.206 5.86851C160.332 6.82868 160.781 7.71745 161.479 8.38875C162.372 9.25137 163.389 9.68268 164.559 9.68268H164.544Z" fill="#32302F"/>
<path fill-rule="evenodd" clip-rule="evenodd" d="M206.92 31.017C206.612 30.524 206.473 29.5998 206.473 28.1981V16.907C206.473 12.9945 204.887 11.0228 201.729 11.0228C200.851 11.0228 199.988 11.1614 199.156 11.4387C198.325 11.7005 197.462 12.1318 196.538 12.7326C195.737 13.2563 194.843 13.9495 193.827 14.7813C193.718 13.8019 193.252 12.8969 192.517 12.2397C191.554 11.4058 190.309 10.9706 189.036 11.0228C187.65 11.0228 186.279 11.3462 184.923 12.0086C183.691 12.594 182.474 13.4874 181.226 14.6735V11.0074C178.985 11.8727 176.708 12.6435 174.402 13.3179L171.399 14.1652V14.5965C172.323 14.6735 172.985 15.0586 173.37 15.7363C173.755 16.4141 173.94 17.7388 173.94 19.7105V28.1827C173.94 29.569 173.694 30.4932 173.17 31.0324C172.662 31.5561 172.046 31.818 171.306 31.818C170.428 31.818 169.766 31.5561 169.335 31.0324C168.888 30.5086 168.672 29.5536 168.672 28.1981V10.8995C167.101 11.5311 165.437 12.101 163.666 12.6402C161.91 13.1639 160.123 13.6568 158.275 14.1035V14.5348C159.414 14.6119 160.215 15.074 160.693 15.9212C161.186 16.753 161.417 18.1547 161.417 20.0802V26.9195C161.417 28.7372 161.217 30.0003 160.816 30.6935C160.431 31.3867 159.784 31.7717 158.875 31.818V32.2801H183.183V31.818C182.88 31.7949 182.587 31.6987 182.33 31.5378C182.072 31.3768 181.857 31.1558 181.704 30.8937C181.332 30.0302 181.173 29.0897 181.242 28.1518V15.5207C181.75 15.0894 182.212 14.7505 182.628 14.5657C183.126 14.336 183.667 14.2152 184.215 14.2114C185.031 14.2114 185.647 14.4886 186.048 15.074C186.433 15.6593 186.633 16.7222 186.633 18.2626V28.1518C186.633 29.5382 186.479 30.4778 186.186 30.9553C185.894 31.4483 185.416 31.7255 184.723 31.818V32.2801H195.845V31.818C195.105 31.7255 194.597 31.4637 194.304 31.0016C194.027 30.5394 193.888 29.5998 193.888 28.1518V15.5207C194.427 15.0586 194.905 14.7043 195.336 14.4424C195.819 14.1305 196.379 13.9597 196.954 13.9495C197.678 13.9495 198.263 14.2576 198.663 14.9045C199.079 15.5515 199.28 16.6606 199.28 18.2626V28.1518C199.28 29.6306 199.156 30.5857 198.895 31.0324C198.648 31.4791 198.124 31.7255 197.339 31.818V32.2801H208.584V31.818C207.767 31.7717 207.213 31.5099 206.92 31.017Z" fill="#32302F"/>
<path d="M231.32 17.0303C231.063 15.8287 230.536 14.7014 229.779 13.7338C229.126 12.8655 228.279 12.1623 227.305 11.6807C226.332 11.1992 225.259 10.9527 224.172 10.9611C223.01 10.9545 221.86 11.1961 220.799 11.6697C219.89 12.0856 218.935 12.7018 217.934 13.5182V10.9765C214.532 12.192 211.078 13.256 207.582 14.1651V14.5502C208.368 14.6273 208.984 14.8275 209.431 15.151C209.862 15.4591 210.186 15.9674 210.386 16.6914C210.586 17.4 210.678 18.3858 210.678 19.6643V34.0823C210.678 35.6227 210.54 36.7934 210.293 37.6252C210.047 38.4416 209.662 39.0116 209.153 39.3504C208.574 39.7032 207.92 39.9143 207.243 39.9666V40.4287H221.107V39.9666C219.921 39.8588 219.104 39.5045 218.642 38.9037C218.165 38.303 217.934 37.1785 217.934 35.5303V31.6177C218.488 32.0028 219.012 32.2955 219.551 32.4649C221.617 33.0267 223.812 32.8858 225.79 32.0644C226.97 31.565 228.027 30.8131 228.886 29.8617C229.841 28.7949 230.574 27.5487 231.042 26.1956C231.572 24.6759 231.832 23.0756 231.813 21.4666C231.813 19.8338 231.658 18.355 231.32 17.0303ZM222.894 29.3996C222.108 30.8475 221.122 31.5561 219.967 31.5561C219.516 31.5709 219.068 31.4812 218.658 31.2942C218.399 31.1569 218.156 30.9916 217.934 30.8013V14.3808C218.873 13.6414 219.69 13.2717 220.352 13.2717C221.43 13.2717 222.308 13.9957 223.017 15.4283C223.726 16.8608 224.095 19.1252 224.095 22.1905C224.095 25.5332 223.679 27.9362 222.894 29.3996Z" fill="#32302F"/>
<path fill-rule="evenodd" clip-rule="evenodd" d="M231.581 31.818C232.413 31.7564 233.014 31.4484 233.399 30.863C233.784 30.2777 233.969 29.107 233.969 27.3355V9.89837C233.969 7.89587 233.707 6.47872 233.168 5.64691C232.934 5.25008 232.597 4.92349 232.193 4.70129C231.79 4.47909 231.334 4.36944 230.873 4.3838V3.92168C232.648 3.50849 234.414 3.0617 236.172 2.58155C237.989 2.07322 239.684 1.56489 241.255 1.02576V28.1981C241.255 29.5845 241.409 30.5087 241.717 31.0016C242.01 31.4946 242.534 31.7718 243.258 31.818V32.2802H231.597V31.818H231.581Z" fill="#32302F"/>
<path d="M264.13 23.9775C263.144 26.5037 260.957 27.7668 257.552 27.7668C256.63 27.8122 255.709 27.6597 254.851 27.3196C253.993 26.9795 253.218 26.4597 252.577 25.7951C251.406 24.532 250.79 22.6374 250.728 20.1419H264.438V19.8801C264.438 18.124 263.976 16.5836 263.082 15.2743C262.156 13.9452 260.897 12.8828 259.432 12.1935C257.825 11.4493 256.072 11.0755 254.302 11.0999C252.269 11.0999 250.39 11.562 248.68 12.5016C246.931 13.4499 245.479 14.8649 244.487 16.5891C243.494 18.3132 242.999 20.279 243.057 22.2677C243.057 24.3472 243.519 26.1956 244.459 27.7976C245.376 29.3876 246.714 30.6936 248.325 31.5716C249.974 32.4958 251.853 32.9271 253.979 32.9271C256.798 32.9271 259.124 32.2031 260.926 30.7244C262.875 29.0075 264.166 26.6656 264.576 24.1007L264.13 23.9775ZM251.622 13.7339C252.207 12.3784 253.085 11.6852 254.241 11.6852C254.641 11.6852 255.011 11.7776 255.319 11.9471C255.658 12.1165 255.935 12.3938 256.151 12.7635C256.351 13.0716 256.52 13.4413 256.659 13.8418C256.813 14.2577 256.921 14.8122 256.982 15.5054C257.059 16.214 257.09 17.1382 257.09 18.3089V19.3717H250.728C250.744 18.0778 250.821 16.9995 250.96 16.1369C251.114 15.1665 251.345 14.3655 251.622 13.7339Z" fill="#32302F"/>
</g>
</g>
</g>
<defs>
<clipPath id="clip0_3_110">
<rect width="265" height="40.05" fill="white" transform="translate(0.958984 0.733032)"/>
</clipPath>
<clipPath id="clip1_3_110">
<rect width="265" height="40.05" fill="white" transform="translate(0.958984 0.733032)"/>
</clipPath>
<clipPath id="clip2_3_110">
<rect width="264.946" height="40.05" fill="white" transform="translate(0.985901 0.733032)"/>
</clipPath>
</defs>
</svg>
