<svg width="161" height="67" viewBox="0 0 161 67" fill="none" xmlns="http://www.w3.org/2000/svg">
<g clip-path="url(#clip0_3_74)">
<g clip-path="url(#clip1_3_74)">
<g clip-path="url(#clip2_3_74)">
<mask id="mask0_3_74" style="mask-type:luminance" maskUnits="userSpaceOnUse" x="0" y="0" width="161" height="67">
<path d="M0.968399 0.292969H160.916V66.2059H0.968399V0.292969Z" fill="white"/>
</mask>
<g mask="url(#mask0_3_74)">
<path fill-rule="evenodd" clip-rule="evenodd" d="M8.38631 0.292969C4.08786 0.292969 0.968399 3.52265 0.968399 7.97474V58.6878C0.968399 62.9027 4.40849 66.2059 8.79712 66.2059H153.368C157.389 66.2059 160.916 62.7157 160.916 58.7379V7.71756C160.916 3.55605 157.556 0.292969 153.264 0.292969H8.38631ZM158.184 7.71756V58.7379C158.184 61.2161 155.886 63.4705 153.368 63.4705H8.79712C5.93817 63.4705 3.70044 61.3697 3.70044 58.6844V7.97474C3.70044 5.01559 5.58414 3.02835 8.38297 3.02835H153.264C156.02 3.02835 158.181 5.08906 158.181 7.71756H158.184ZM155.996 7.71756C155.996 6.27473 154.811 5.21264 153.268 5.21264H70.0442C70.0442 8.31207 70.0509 16.0573 70.0509 16.0573L70.455 15.6465C71.2132 14.8783 74.1055 14.4909 76.37 15.4428C78.1468 16.1909 79.0853 17.8942 79.0886 20.339L79.1053 49.0989C79.1053 51.1095 76.5169 53.895 71.6741 53.895C66.8312 53.895 64.3296 51.0427 64.3263 49.0989L64.3062 7.08632C64.3062 5.77174 63.6015 5.51657 62.9826 5.29246C62.908 5.26572 62.8337 5.23788 62.7599 5.20897H8.38631C6.58611 5.20897 5.89141 6.42469 5.89141 7.97106V58.6844C5.89141 60.1273 7.15389 61.2829 8.80046 61.2829H153.371C154.764 61.2829 155.996 59.9703 155.996 58.7345V7.71756ZM112.08 53.2103C112.858 53.2103 113.523 52.6058 113.523 51.7809C113.523 50.9559 112.858 50.3547 112.08 50.3547C111.302 50.3547 110.631 50.9592 110.631 51.7809C110.631 52.6025 111.295 53.2103 112.08 53.2103ZM153.097 51.7809C153.097 52.6058 152.433 53.2103 151.655 53.2103C150.87 53.2103 150.205 52.6025 150.205 51.7809C150.205 50.9592 150.876 50.3547 151.655 50.3547C152.433 50.3547 153.097 50.9559 153.097 51.7809ZM17.551 19.651C17.551 18.3361 16.8439 18.0809 16.2244 17.8575C15.7404 17.6828 15.3099 17.5275 15.3099 16.9023V15.5797L23.2021 15.5563V49.6734C23.2021 50.7154 24.0504 51.2732 24.8854 51.2799C25.677 51.2866 26.5186 50.7889 26.5453 49.6734V15.5429H31.1845V49.6734C31.1845 50.2645 31.465 50.7388 31.9359 51.0227C32.4904 51.3433 33.2285 51.3433 33.7862 51.0327C34.2672 50.7388 34.521 50.2645 34.521 49.67V15.5429H40.2289V47.4724C40.2289 51.6072 36.2077 53.885 28.8833 53.885C21.5589 53.885 17.5209 51.6539 17.5176 47.4724L17.5477 19.651H17.551ZM98.3966 37.0319V37.0352H92.7087C92.7121 37.5095 92.7154 50.1744 92.7154 50.1744C92.7188 51.0928 91.8404 51.5771 91.0188 51.5771C90.2439 51.5771 89.4022 51.1496 89.4022 50.1744L89.3956 33.5383H98.3966V19.621C98.3966 17.951 96.3726 14.8315 91.5231 14.8315H90.5478C85.7083 14.8315 83.7211 17.951 83.7211 19.621V49.1056C83.7344 51.0494 85.9187 53.9017 90.5946 53.9017H91.5465C96.219 53.9017 98.3966 51.0494 98.3966 49.1056V37.0352H98.3999L98.3966 37.0319ZM59.587 37.0319L59.5936 49.1056C59.5936 51.0494 57.4093 53.9017 52.7402 53.9017H51.785C47.1124 53.9017 44.9248 51.0494 44.9114 49.1056V19.621C44.9114 17.951 46.902 14.8315 51.7349 14.8315H52.7101C57.5596 14.8315 59.5736 17.951 59.5736 19.621L59.5836 33.5383H50.5826L50.5926 50.1744C50.5926 51.1496 51.4343 51.5771 52.2058 51.5771C53.0241 51.5771 53.9025 51.0928 53.9025 50.1744C53.9025 50.1744 53.8958 37.5095 53.8924 37.0352H59.5836L59.587 37.0319ZM100.815 15.6398V16.9657C100.815 17.591 101.245 17.7463 101.729 17.921C102.349 18.1444 103.056 18.3996 103.056 19.7145L103.089 53.2871H108.784V18.1948C108.86 17.8809 109.054 17.6137 109.371 17.4367C109.943 17.0927 110.838 17.0927 111.422 17.4367C111.83 17.6838 112.053 18.0512 112.057 18.4887V33.5116H117.831V18.5756C117.831 17.0158 116.936 16.2076 116.168 15.8135C114.268 14.8249 111.272 14.4241 109.194 15.9437L108.787 16.2243V15.6298L100.818 15.6398H100.815ZM53.8924 29.0027H50.5826L50.5759 18.3986C50.5759 18.0111 50.783 17.6838 51.1604 17.4667C51.7749 17.106 52.7301 17.0993 53.3347 17.44C53.6854 17.6638 53.8858 17.9811 53.8858 18.3986L53.8924 29.0027ZM89.3889 29.0027H92.7054L92.6954 18.3986C92.6954 17.9811 92.495 17.6638 92.141 17.44C91.5431 17.0993 90.5879 17.106 89.97 17.4667C89.5926 17.6838 89.3889 18.0111 89.3889 18.3986V29.0027ZM112.08 50.5952C111.426 50.5952 110.918 51.1029 110.918 51.7809C110.918 52.4689 111.436 52.9732 112.08 52.9732C112.725 52.9732 113.236 52.4555 113.236 51.7809C113.236 51.1062 112.735 50.5952 112.08 50.5952ZM112.063 51.8911H111.776V52.6058H111.529V50.9592H112.157C112.544 50.9592 112.738 51.1029 112.738 51.4268C112.738 51.7241 112.551 51.851 112.307 51.8811L112.778 52.6058H112.498L112.063 51.8911ZM111.776 51.6773V51.1697H112.117C112.287 51.1697 112.474 51.2064 112.474 51.4101C112.474 51.664 112.287 51.6773 112.073 51.6773H111.776ZM151.351 51.1697V51.6773H151.648C151.862 51.6773 152.049 51.664 152.049 51.4101C152.049 51.2064 151.862 51.1697 151.691 51.1697H151.351ZM150.492 51.7809C150.492 51.1029 151.003 50.5952 151.655 50.5952C152.306 50.5952 152.81 51.1062 152.81 51.7809C152.81 52.4555 152.299 52.9732 151.655 52.9732C151.01 52.9732 150.492 52.4689 150.492 51.7809ZM151.351 51.8911H151.638L152.072 52.6058H152.353L151.882 51.8811C152.126 51.851 152.313 51.7241 152.313 51.4268C152.313 51.1029 152.119 50.9592 151.731 50.9592H151.104V52.6058H151.351V51.8911ZM71.6741 51.5504C70.8725 51.5504 70.0642 51.0862 70.0642 50.1744H70.0676L70.0509 18.2549C70.0509 17.5502 70.8959 17.1929 71.7175 17.1929C72.646 17.1929 73.2672 17.6137 73.2672 18.2549L73.2839 50.1744C73.2906 51.0862 72.4756 51.5504 71.6741 51.5504ZM145.155 47.5525C145.302 47.5292 145.449 47.5158 145.603 47.5158L145.596 47.5125C147.189 47.5125 148.482 48.7983 148.482 50.3714C148.482 51.9445 147.176 53.227 145.596 53.227C144.016 53.227 142.734 51.9679 142.714 50.4082L126.141 50.3881L125.032 53.1502H123.847L129.271 38.605C128.386 38.2977 127.858 37.927 127.858 37.5228C127.858 37.0018 128.733 36.571 130.142 36.2704L131.231 33.3513C127.427 31.5544 125.416 27.6868 125.219 25.6194C125.195 25.3633 125.165 25.1079 125.129 24.8533C125.11 24.7187 125.092 24.5864 125.069 24.377C124.995 24.3703 124.919 24.3783 124.846 24.386C124.699 24.4014 124.567 24.4154 124.498 24.3035C124.174 23.7758 124.465 22.53 124.695 22.53C124.772 22.53 125.082 22.5233 125.082 22.5233C126.004 17.6571 130.52 17.0092 133.622 16.9223C133.546 16.6885 133.539 16.2243 133.539 15.9838C133.539 15.8569 133.542 15.74 133.556 15.6431C133.225 15.6131 132.968 15.3359 132.968 14.9952C132.968 14.6345 133.258 14.3439 133.616 14.3439C133.616 14.3439 134.404 14.2003 136.051 14.2003C137.871 14.2003 138.556 14.3439 138.556 14.3439C138.916 14.3439 139.203 14.6312 139.203 14.9952C139.203 15.3593 138.916 15.6498 138.556 15.6498H138.475C138.492 15.7467 138.495 15.8602 138.495 15.9872C138.495 16.2443 138.472 16.7687 138.379 16.9758C141.431 17.2396 145.462 18.2883 146.451 22.5267C146.493 22.7014 146.736 22.6786 146.856 22.6673C146.879 22.6653 146.897 22.6636 146.909 22.6636C146.992 22.6636 147.41 24.1131 146.905 24.3636C146.905 24.3636 146.535 24.3035 146.591 24.5974C146.591 24.5974 146.565 25.3522 146.468 25.7296C146.468 27.59 144.2 31.8784 140.256 33.6252L141.214 36.3472C142.443 36.6411 143.191 37.0452 143.191 37.5262C143.191 37.8969 142.747 38.2409 141.982 38.5315L145.155 47.5525ZM136.174 35.8161C137.6 35.8429 138.916 35.9431 140.012 36.1134L139.244 33.9425C138.362 34.2597 137.381 34.2955 136.441 34.3299L136.174 34.3399V35.8161ZM141.137 48.5011L139.868 47.8465L135.186 48.5812L141.137 48.5011ZM137.287 47.6287L138.913 47.3555L137.961 46.8645C137.784 47.1577 137.556 47.4166 137.287 47.6287ZM137.326 15.9805C137.326 15.8536 137.33 15.7367 137.343 15.6431V15.6398H134.688C134.705 15.7367 134.711 15.8502 134.711 15.9771C134.711 16.2209 134.691 16.6986 134.608 16.929L137.427 16.9624C137.34 16.7487 137.326 16.2376 137.326 15.9805ZM135.166 34.2965C134.02 34.2965 133.115 34.0894 132.153 33.7287L131.291 36.07C132.41 35.913 133.736 35.8195 135.166 35.8095V34.2965ZM135.162 39.3898C133.265 39.3664 131.548 39.1761 130.256 38.8788V38.8822L126.498 49.0922L132.801 46.437C132.674 46.113 132.6 45.7624 132.6 45.395C132.6 43.9254 133.719 42.7164 135.162 42.5561V39.3898ZM134.541 48.0869C133.991 47.8986 133.511 47.5481 133.165 47.0816L128.018 49.1858L134.541 48.0869ZM129.054 49.5498L142.827 49.6066C142.847 49.5364 142.867 49.4696 142.894 49.4028L142.129 49.0087L142.183 49.0522L132.794 49.0321L129.054 49.5498ZM138.258 46.2099L143.268 48.6981H143.271C143.512 48.3675 143.819 48.0936 144.173 47.8932L140.977 38.8354C139.731 39.1427 138.055 39.3431 136.188 39.3831L136.194 42.6228C137.447 42.9368 138.375 44.0557 138.375 45.395C138.375 45.6789 138.335 45.9494 138.258 46.2099Z" fill="white"/>
</g>
</g>
</g>
</g>
<defs>
<clipPath id="clip0_3_74">
<rect width="160" height="66.13" fill="white" transform="translate(0.958984 0.292969)"/>
</clipPath>
<clipPath id="clip1_3_74">
<rect width="160" height="66.13" fill="white" transform="translate(0.958984 0.292969)"/>
</clipPath>
<clipPath id="clip2_3_74">
<rect width="159.981" height="66.13" fill="white" transform="translate(0.968399 0.292969)"/>
</clipPath>
</defs>
</svg>
