<svg width="19" height="17" viewBox="0 0 19 17" fill="none" xmlns="http://www.w3.org/2000/svg">
<g clip-path="url(#clip0_3_396)">
<path d="M18.1371 4.86055C17.9402 4.11992 17.3621 3.53867 16.6277 3.3418C15.2965 2.98242 9.959 2.98242 9.959 2.98242C9.959 2.98242 4.6215 2.98242 3.29025 3.3418C2.55587 3.53867 1.97775 4.11992 1.78087 4.86055C1.42462 6.20117 1.42462 8.99492 1.42462 8.99492C1.42462 8.99492 1.42462 11.7887 1.78087 13.1293C1.97775 13.8699 2.55587 14.4262 3.29025 14.623C4.6215 14.9824 9.959 14.9824 9.959 14.9824C9.959 14.9824 15.2965 14.9824 16.6277 14.623C17.3621 14.4262 17.9402 13.8668 18.1371 13.1293C18.4934 11.7887 18.4934 8.99492 18.4934 8.99492C18.4934 8.99492 18.4934 6.20117 18.1371 4.86055ZM8.21525 11.5324V6.45742L12.6746 8.99492L8.21525 11.5324Z" fill="black"/>
</g>
<defs>
<clipPath id="clip0_3_396">
<rect width="18" height="16" fill="white" transform="translate(0.958984 0.982422)"/>
</clipPath>
</defs>
</svg>
